<svg width="476" height="374" viewBox="0 0 476 374" fill="none" xmlns="http://www.w3.org/2000/svg">
<g clip-path="url(#clip0_7_118)">
<path fill-rule="evenodd" clip-rule="evenodd" d="M-2.08565e-06 240.493C-0.0734663 240.577 2.6447 229.998 2.6447 229.998H60.5931C60.5931 229.998 58.0513 236.454 51.7187 236.454C45.4008 236.454 34.7926 236.454 34.7926 236.454C34.7926 236.454 34.2783 263.881 34.2783 278.432C34.2783 281.609 33.7641 310.574 37.1287 313.869C33.4555 313.869 21.4221 313.869 21.4221 313.869C21.4221 313.869 23.4644 309.644 23.4644 307.295C23.4644 304.946 24.3754 277.739 24.3754 274.68C24.3754 271.638 23.8758 239.039 23.2587 237.265C21.4221 237.265 7.44925 237.265 7.44925 237.265C6.78808 237.265 1.73375 238.093 -2.08565e-06 240.493Z" fill="#9E0817"/>
<path fill-rule="evenodd" clip-rule="evenodd" d="M82.0151 229.525H97.4279C97.4279 229.525 95.3856 234.223 95.4297 239.31C95.4297 242.132 95.077 266.112 95.077 266.112H128.856C128.856 266.112 128.342 239.969 128.033 238.211C127.724 236.454 126.505 230.472 125.374 229.407C128.65 229.407 141.403 229.407 141.403 229.407C141.403 229.407 138.95 233.513 138.95 239.969C138.95 246.407 138.641 274.916 138.641 274.916C138.641 274.916 138.744 299.201 139.361 303.899C139.67 307.414 140.786 311.993 141.403 313.159C138.641 313.159 125.991 313.159 125.991 313.159C125.991 313.159 127.519 309.763 127.724 308.225C127.93 306.704 128.856 284.887 128.944 271.283C127.21 271.283 95.1799 271.283 95.1799 271.283C95.1799 271.283 94.8713 293.928 95.4884 303.307C95.5913 305.774 96.0908 309.999 97.9274 313.633C95.3856 313.633 82.4265 313.633 82.4265 313.633C82.4265 313.633 84.4688 309.526 84.6745 305.065C84.6745 300.62 85.0859 269.171 85.0859 269.171C85.0859 269.171 84.8802 242.791 84.5717 239.259C84.2191 233.682 82.0151 229.525 82.0151 229.525Z" fill="#9E0817"/>
<path fill-rule="evenodd" clip-rule="evenodd" d="M169.349 229.17C168.321 228.934 209.328 229.17 209.328 229.17L210.151 240.898C210.151 240.898 208.417 237.383 205.258 235.626C204.215 235.034 199.44 233.395 183.513 233.987C183.513 233.987 181.985 242.2 182.514 265.402C182.514 265.402 201.174 266.349 210.254 264.709C208.917 266.585 205.655 269.526 201.379 270.692C197.089 271.858 182.602 272.213 182.602 272.213C182.602 272.213 181.779 291.224 183.719 308.123C183.719 308.123 193.519 308.36 199.94 307.769C204.068 307.38 212.09 305.42 215.352 299.201C215.455 301.093 213.824 312.23 213.824 312.23C213.824 312.23 207.8 313.633 193.416 313.396C185.056 313.261 169.849 313.633 169.849 313.633C169.849 313.633 172.405 306.704 172.405 301.567C172.405 296.395 172.611 268.934 172.611 268.934C172.611 268.934 172.302 245.478 172.2 242.2C172.097 238.904 170.363 229.407 169.349 229.17Z" fill="#9E0817"/>
<path fill-rule="evenodd" clip-rule="evenodd" d="M285.231 229.525H300.63C300.63 229.525 298.602 234.223 298.646 239.31C298.646 242.132 298.293 266.112 298.293 266.112H332.057C332.057 266.112 331.543 239.969 331.249 238.211C330.941 236.454 329.707 230.472 328.59 229.407C331.852 229.407 344.605 229.407 344.605 229.407C344.605 229.407 342.166 233.513 342.166 239.969C342.166 246.407 341.858 274.916 341.858 274.916C341.858 274.916 341.96 299.201 342.563 303.899C342.871 307.414 344.003 311.993 344.605 313.159C341.858 313.159 329.207 313.159 329.207 313.159C329.207 313.159 330.735 309.763 330.941 308.225C331.147 306.704 332.057 284.887 332.16 271.283C330.427 271.283 298.396 271.283 298.396 271.283C298.396 271.283 298.088 293.928 298.705 303.307C298.808 305.774 299.322 309.999 301.158 313.633C298.602 313.633 285.643 313.633 285.643 313.633C285.643 313.633 287.685 309.526 287.891 305.065C287.891 300.62 288.302 269.171 288.302 269.171C288.302 269.171 288.097 242.791 287.788 239.259C287.435 233.682 285.231 229.525 285.231 229.525Z" fill="#9E0817"/>
<path fill-rule="evenodd" clip-rule="evenodd" d="M373.183 229.525H388.581C388.581 229.525 386.538 234.223 386.582 239.31C386.582 242.132 386.245 266.112 386.245 266.112H420.009C420.009 266.112 419.494 239.969 419.186 238.211C418.877 236.454 417.658 230.472 416.526 229.407C419.803 229.407 432.542 229.407 432.542 229.407C432.542 229.407 430.088 233.513 430.088 239.969C430.088 246.407 429.779 274.916 429.779 274.916C429.779 274.916 429.882 299.201 430.499 303.899C430.808 307.414 431.924 311.993 432.542 313.159C429.779 313.159 417.144 313.159 417.144 313.159C417.144 313.159 418.672 309.763 418.877 308.225C419.083 306.704 420.009 284.887 420.097 271.283C418.363 271.283 386.347 271.283 386.347 271.283C386.347 271.283 386.039 293.928 386.641 303.307C386.744 305.774 387.258 309.999 389.095 313.633C386.538 313.633 373.579 313.633 373.579 313.633C373.579 313.633 375.622 309.526 375.827 305.065C375.827 300.62 376.239 269.171 376.239 269.171C376.239 269.171 376.033 242.791 375.724 239.259C375.357 233.682 373.183 229.525 373.183 229.525Z" fill="#9E0817"/>
<path fill-rule="evenodd" clip-rule="evenodd" d="M460.091 229.525H475.504C475.504 229.525 473.461 234.223 473.505 239.31C473.505 242.132 473.153 266.112 473.153 266.112L473.256 271.283C473.256 271.283 472.947 293.928 473.564 303.307C473.667 305.774 474.167 309.999 476.003 313.633C473.461 313.633 460.502 313.633 460.502 313.633C460.502 313.633 462.545 309.526 462.75 305.065C462.75 300.62 463.147 269.171 463.147 269.171C463.147 269.171 462.941 242.791 462.647 239.259C462.28 233.682 460.091 229.525 460.091 229.525Z" fill="#9E0817"/>
<path fill-rule="evenodd" clip-rule="evenodd" d="M150.748 7.52014C124.522 20.9381 110.475 43.8028 108.595 76.1141V195.913H270.936V105.299H217.513C210.107 105.637 205.597 110.774 205.347 118.092V159.055H150.44L150.748 7.52014Z" fill="#DBC59E"/>
<path fill-rule="evenodd" clip-rule="evenodd" d="M205.347 83.4483V0H367.408V120.475C366.057 148.122 349.307 176.293 326.151 188.409V30.0468H271.244C271.244 30.0468 271.244 71.4161 271.244 72.5314C271.244 78.1589 265.572 83.5835 260.709 83.6173L205.347 83.4483Z" fill="#D9AC75"/>
<path fill-rule="evenodd" clip-rule="evenodd" d="M84.9242 357.756H102.467C102.232 362.471 100.763 366.358 98.0301 369.383C95.312 372.442 91.962 373.946 87.995 373.946C83.9251 373.946 80.5163 372.324 77.7688 369.062C75.0212 365.784 73.6548 361.728 73.6548 356.878C73.6548 354.596 74.0221 352.45 74.7714 350.422C75.5208 348.377 76.6227 346.552 78.0773 344.913C79.4584 343.325 81.0159 342.142 82.7056 341.364C84.3952 340.587 86.2759 340.215 88.3476 340.215C91.0805 340.215 93.5488 340.959 95.7234 342.496C97.8979 344.017 99.6464 346.197 100.969 349.02H97.5453C96.2229 347.059 94.7977 345.64 93.2844 344.71C91.7563 343.781 90.0666 343.308 88.186 343.308C84.9389 343.308 82.1913 344.66 79.958 347.313C77.71 349.983 76.5933 353.194 76.5933 356.945C76.5933 360.917 77.71 364.246 79.9433 366.899C82.1766 369.569 84.9389 370.887 88.23 370.887C90.816 370.887 93.1228 369.958 95.1797 368.048C97.222 366.122 98.5591 363.671 99.1762 360.612H84.9242V357.756Z" fill="#231F20"/>
<path fill-rule="evenodd" clip-rule="evenodd" d="M110.416 344.034V373.304H107.684V340.84H115.28C116.94 340.84 118.277 340.992 119.306 341.28C120.319 341.584 121.23 342.04 122.053 342.716C123.185 343.629 124.066 344.829 124.727 346.366C125.374 347.87 125.712 349.476 125.712 351.183C125.712 353.684 125.05 355.847 123.758 357.655C122.465 359.463 120.834 360.46 118.88 360.612L125.712 373.304H122.406L114.031 357.655H116.705C118.483 357.655 119.937 357.047 121.054 355.847C122.171 354.647 122.729 353.092 122.729 351.216C122.729 350.067 122.567 349.036 122.215 348.107C121.877 347.161 121.363 346.333 120.701 345.64C120.143 345.065 119.467 344.66 118.689 344.423C117.91 344.169 116.529 344.034 114.516 344.034H110.416Z" fill="#231F20"/>
<path fill-rule="evenodd" clip-rule="evenodd" d="M130.545 356.878C130.545 354.63 130.913 352.467 131.662 350.422C132.426 348.361 133.528 346.518 134.953 344.913C136.334 343.358 137.862 342.192 139.523 341.381C141.168 340.604 142.976 340.215 144.915 340.215C146.899 340.215 148.72 340.604 150.425 341.398C152.1 342.192 153.642 343.392 155.038 344.964C156.478 346.569 157.551 348.377 158.271 350.405C159.005 352.399 159.358 354.563 159.358 356.878C159.358 359.176 159.049 361.288 158.432 363.215C157.801 365.141 156.875 366.899 155.641 368.471C154.201 370.279 152.585 371.648 150.763 372.577C148.97 373.507 147.001 373.946 144.886 373.946C140.83 373.946 137.422 372.324 134.659 369.028C131.912 365.767 130.545 361.711 130.545 356.878ZM133.44 356.945C133.44 360.883 134.557 364.212 136.79 366.882C139.023 369.552 141.785 370.887 145.077 370.887C148.28 370.887 150.983 369.535 153.187 366.831C155.406 364.128 156.493 360.798 156.493 356.861C156.493 353.177 155.362 349.983 153.099 347.313C150.821 344.66 148.074 343.308 144.871 343.308C143.563 343.308 142.314 343.578 141.11 344.085C139.89 344.609 138.773 345.352 137.76 346.333C136.423 347.651 135.365 349.256 134.586 351.149C133.822 353.025 133.44 354.951 133.44 356.945Z" fill="#231F20"/>
<path fill-rule="evenodd" clip-rule="evenodd" d="M164.515 340.84H167.307V361.39C167.307 362.961 167.351 364.161 167.468 364.956C167.586 365.733 167.762 366.426 168.027 367.034C168.526 368.268 169.276 369.248 170.245 369.941C171.215 370.634 172.317 370.989 173.551 370.989C175.682 370.989 177.254 370.16 178.268 368.471C179.296 366.798 179.81 364.229 179.81 360.697V340.84H182.558V361.491C182.558 365.699 181.823 368.842 180.383 370.904C178.914 372.966 176.695 373.997 173.742 373.997C170.583 373.997 168.247 372.983 166.763 370.972C165.279 368.944 164.515 365.784 164.515 361.491V340.84Z" fill="#231F20"/>
<path fill-rule="evenodd" clip-rule="evenodd" d="M188.803 340.84H194.797C196.531 340.84 197.898 340.959 198.941 341.145C199.969 341.364 200.821 341.702 201.512 342.158C202.746 343.037 203.701 344.153 204.377 345.521C205.024 346.89 205.376 348.445 205.376 350.169C205.376 351.808 205.068 353.312 204.465 354.698C203.863 356.1 203.025 357.199 201.953 358.01C201.203 358.585 200.307 359.024 199.279 359.277C198.236 359.531 196.898 359.666 195.297 359.666H191.594V373.304H188.803V340.84ZM191.594 344.034V356.421H195.679C197.956 356.421 199.646 355.914 200.719 354.934C201.806 353.937 202.349 352.399 202.349 350.304C202.349 348.141 201.806 346.552 200.704 345.538C199.617 344.541 197.868 344.034 195.444 344.034H191.594Z" fill="#231F20"/>
<path fill-rule="evenodd" clip-rule="evenodd" d="M222.552 356.878C222.552 354.63 222.919 352.467 223.683 350.422C224.432 348.361 225.534 346.518 226.96 344.913C228.355 343.358 229.869 342.192 231.529 341.381C233.189 340.604 234.982 340.215 236.921 340.215C238.905 340.215 240.741 340.604 242.416 341.398C244.106 342.192 245.664 343.392 247.045 344.964C248.485 346.569 249.557 348.377 250.292 350.405C250.997 352.399 251.364 354.563 251.364 356.878C251.364 359.176 251.07 361.288 250.439 363.215C249.822 365.141 248.896 366.899 247.647 368.471C246.207 370.279 244.591 371.648 242.784 372.577C240.977 373.507 239.008 373.946 236.892 373.946C232.837 373.946 229.428 372.324 226.68 369.028C223.918 365.767 222.552 361.711 222.552 356.878ZM225.446 356.945C225.446 360.883 226.548 364.212 228.796 366.882C231.03 369.552 233.792 370.887 237.083 370.887C240.286 370.887 242.989 369.535 245.193 366.831C247.412 364.128 248.514 360.798 248.514 356.861C248.514 353.177 247.368 349.983 245.105 347.313C242.813 344.66 240.08 343.308 236.877 343.308C235.57 343.308 234.321 343.578 233.101 344.085C231.896 344.609 230.794 345.352 229.766 346.333C228.429 347.651 227.371 349.256 226.592 351.149C225.814 353.025 225.446 354.951 225.446 356.945Z" fill="#231F20"/>
<path fill-rule="evenodd" clip-rule="evenodd" d="M256.977 373.304V340.84H270.906V344.034H259.71V355.424H270.906V358.618H259.71V373.304H256.977Z" fill="#231F20"/>
<path fill-rule="evenodd" clip-rule="evenodd" d="M296.692 373.304H293.915V340.84H296.692V355.424H310.121V340.84H312.898V373.304H310.121V358.517H296.692V373.304Z" fill="#231F20"/>
<path fill-rule="evenodd" clip-rule="evenodd" d="M318.525 356.878C318.525 354.63 318.893 352.467 319.657 350.422C320.406 348.361 321.508 346.518 322.933 344.913C324.329 343.358 325.828 342.192 327.503 341.381C329.163 340.604 330.956 340.215 332.895 340.215C334.878 340.215 336.715 340.604 338.39 341.398C340.08 342.192 341.622 343.392 343.018 344.964C344.458 346.569 345.531 348.377 346.265 350.405C346.971 352.399 347.338 354.563 347.338 356.878C347.338 359.176 347.044 361.288 346.398 363.215C345.795 365.141 344.855 366.899 343.621 368.471C342.181 370.279 340.565 371.648 338.757 372.577C336.95 373.507 334.981 373.946 332.866 373.946C328.81 373.946 325.402 372.324 322.654 369.028C319.892 365.767 318.525 361.711 318.525 356.878ZM321.42 356.945C321.42 360.883 322.522 364.212 324.77 366.882C327.003 369.552 329.765 370.887 333.042 370.887C336.26 370.887 338.963 369.535 341.167 366.831C343.386 364.128 344.488 360.798 344.488 356.861C344.488 353.177 343.342 349.983 341.079 347.313C338.787 344.66 336.054 343.308 332.851 343.308C331.543 343.308 330.28 343.578 329.075 344.085C327.87 344.609 326.753 345.352 325.74 346.333C324.403 347.651 323.345 349.256 322.566 351.149C321.787 353.025 321.42 354.951 321.42 356.945Z" fill="#231F20"/>
<path fill-rule="evenodd" clip-rule="evenodd" d="M358.74 373.304H355.948V344.034H350.321V340.84H364.382V344.034H358.74V373.304Z" fill="#231F20"/>
<path fill-rule="evenodd" clip-rule="evenodd" d="M371.743 355.424H383.615V358.618H371.743V370.16H383.615V373.304H368.98V340.84H383.615V344.034H371.743V355.424Z" fill="#231F20"/>
<path fill-rule="evenodd" clip-rule="evenodd" d="M403.332 373.304H390.623V340.84H393.4V370.16H403.332V373.304Z" fill="#231F20"/>
<path fill-rule="evenodd" clip-rule="evenodd" d="M407.241 364.043H409.885C409.944 366.054 410.444 367.643 411.384 368.842C412.324 370.025 413.559 370.617 415.087 370.617C416.732 370.617 418.04 370.025 419.01 368.859C419.965 367.676 420.464 366.071 420.464 364.043C420.464 361.103 418.481 358.872 414.514 357.368C414.19 357.25 413.97 357.182 413.808 357.114C411.751 356.286 410.253 355.255 409.356 354.005C408.446 352.754 407.99 351.098 407.99 349.087C407.99 346.502 408.681 344.389 410.091 342.716C411.487 341.077 413.294 340.266 415.527 340.266C417.643 340.266 419.333 341.009 420.567 342.513C421.801 344.017 422.507 346.113 422.639 348.851H420.009C419.862 347.059 419.421 345.707 418.642 344.744C417.864 343.798 416.835 343.308 415.527 343.308C414.132 343.308 412.986 343.849 412.089 344.879C411.222 345.944 410.767 347.262 410.767 348.884C410.767 349.729 410.899 350.473 411.164 351.081C411.428 351.69 411.854 352.264 412.442 352.771C413.03 353.261 414.161 353.819 415.851 354.461C416.82 354.816 417.555 355.103 418.055 355.34C419.891 356.151 421.214 357.182 422.022 358.449C422.83 359.734 423.241 361.39 423.241 363.468C423.241 366.612 422.477 369.164 420.993 371.073C419.495 372.983 417.526 373.946 415.057 373.946C412.751 373.946 410.885 373.05 409.445 371.242C408.019 369.417 407.285 367.017 407.241 364.043Z" fill="#231F20"/>
</g>
<defs>
<clipPath id="clip0_7_118">
<rect width="476" height="374" fill="white"/>
</clipPath>
</defs>
</svg>
