<svg width="514" height="524" viewBox="0 0 514 524" fill="none" xmlns="http://www.w3.org/2000/svg">
<path fill-rule="evenodd" clip-rule="evenodd" d="M0 0H514V524H0V0Z" fill="white"/>
<path fill-rule="evenodd" clip-rule="evenodd" d="M307.558 177.113C307.558 182.466 306.433 188.778 302.302 194.704H313.369V105.789H277.541V142.121C296.865 148.431 307.558 161.053 307.558 177.113Z" fill="#4D3B90"/>
<path fill-rule="evenodd" clip-rule="evenodd" d="M236.285 131.768C244.611 131.768 251.991 134.94 257.861 137.534C245.367 134.362 226.255 138.686 216.226 150.792V216.234H252.938V141.862C260.888 143.878 266.753 149.067 270.347 152.817V216.239H278.297C270.915 228.923 257.1 236.706 244.991 234.111V236.706C279.621 241.029 294.192 215.661 294.192 187.698C294.192 153.968 273.756 134.944 252.938 131.194V82.1858H216.226V131.768C192.951 138.686 169.483 160.308 169.483 195.189C169.483 249.964 219.632 283.689 263.347 283.689C329.204 283.689 380.108 235.259 380.108 166.649C380.108 84.2022 306.68 25.1041 249.153 25.1041C182.916 25.1041 134.474 89.3907 134.474 157.136C134.474 192.882 147.342 222.575 163.616 243.046L164.942 241.599C152.072 225.169 140.339 199.8 140.339 164.054C143.745 89.3907 204.114 47.3007 257.861 47.3007C295.895 47.3007 364.208 60.5589 364.208 157.71C364.208 208.734 328.825 274.173 254.638 274.173C216.223 274.173 186.702 243.042 186.702 198.357C186.704 159.735 206.575 131.768 236.285 131.768ZM94.9205 477.991V470.213H107.791V404.766H73.7286V470.213H86.9732V477.991H39.4751V470.213H51.587V336.16H39.4751V328.668H86.9732V336.16H73.7286V396.123H107.791V336.16H94.9205V328.668H141.665V336.16H129.553V470.213H141.665V477.991H94.9205ZM159.454 328.668H181.213V346.533H159.454V328.668ZM149.045 477.991V470.213H160.777V378.25H149.045V370.471H181.972V470.217H192.381V477.996H149.045V477.991ZM197.111 477.991V470.213H209.223V316.558H197.111V309.062H230.417V470.213H241.205V477.991H197.111ZM274.512 477.991C262.968 477.991 256.721 469.057 256.721 454.93V378.246H245.367V370.467H256.721V328.09C263.347 328.09 269.968 328.668 276.594 328.09V370.467H293.436V378.246H276.594V470.209H293.436V477.987H274.512V477.991ZM373.293 446.278C370.834 456.373 360.802 481.164 336.769 481.164C309.519 481.164 295.515 452.627 295.515 423.795C295.515 384.021 318.792 367.299 336.202 367.299C351.346 367.299 373.861 381.418 375.564 422.065C375.943 430.43 375.564 438.496 373.293 446.278ZM350.399 388.34C347.555 378.824 342.449 374.5 335.822 374.5C319.172 374.5 319.172 400.451 319.172 423.217C319.172 453.778 320.875 459.541 322.198 463.295C324.283 469.057 328.825 474.819 336.202 474.819C353.049 474.819 353.049 447.434 352.481 422.639C352.481 394.68 351.346 391.512 350.399 388.34ZM432.529 477.991V470.213H442.177V407.369C442.177 392.951 442.177 378.824 431.773 378.824C425.903 378.824 416.25 387.766 413.791 402.463C413.035 406.795 413.412 411.115 413.412 423.217V470.213H423.821V477.991H380.864V470.213H392.22V378.25H380.864V370.471H413.412V387.193C416.823 379.98 419.659 375.082 426.659 371.336C431.771 368.168 436.312 367.303 439.718 367.303C440.853 367.303 444.641 367.303 449.183 369.32C462.998 375.082 463.374 390.939 463.374 402.467V470.217H474.73V477.996H432.529V477.991Z" fill="#4D3B90"/>
</svg>
