<svg width="252" height="238" viewBox="0 0 252 238" fill="none" xmlns="http://www.w3.org/2000/svg">
<path fill-rule="evenodd" clip-rule="evenodd" d="M0 0.298645H251.684V238H0V0.298645Z" fill="white"/>
<path fill-rule="evenodd" clip-rule="evenodd" d="M204.148 206.174C204.148 202.402 205.148 199.266 207.841 199.266C210.116 199.266 211.804 202.031 211.804 206.174C211.804 210.572 210.09 213.004 207.979 213.004C205.862 213.004 204.148 211.554 204.148 206.174ZM200.032 206.285C200.032 202.07 203.592 198.616 207.265 198.616C209.116 198.616 210.575 199.497 211.569 200.914C211.641 200.938 211.768 200.957 211.799 200.827L211.789 195.061C211.789 194.43 211.416 193.818 210.59 193.65C209.748 193.481 208.728 193.539 208.728 193.539C208.57 193.539 208.438 193.418 208.438 193.264C208.438 193.115 208.575 192.99 208.739 192.99L214.369 192.614C214.369 192.614 215.466 192.349 215.466 193.25C215.466 194.146 215.451 194.849 215.451 194.849L215.446 211.338C215.446 211.969 215.644 212.667 216.471 212.836C217.312 213.009 218.332 212.947 218.332 212.947C218.49 212.947 218.623 213.072 218.623 213.221C218.623 213.37 218.485 213.496 218.327 213.496L212.865 213.751C212.865 213.751 211.783 213.953 211.799 213.086C211.814 212.185 211.814 211.482 211.814 211.482C211.799 211.395 211.722 211.328 211.62 211.328C211.554 211.328 211.498 211.362 211.462 211.41C210.315 212.913 208.637 213.843 206.688 213.843C203.011 213.843 200.032 210.5 200.032 206.285ZM192.259 199.324C193.029 199.324 195.243 199.358 195.376 202.706C195.493 205.61 194.952 205.249 193.335 205.283C191.724 205.321 189.643 205.283 189.643 205.283C189.219 205.283 188.521 205.451 188.72 204.228C188.913 203.028 189.133 199.324 192.259 199.324ZM192.213 213.997C187.929 213.997 184.45 210.572 184.45 206.342C184.45 202.575 187.924 198.683 192.213 198.683C192.213 198.683 198.895 198.442 198.951 205.249C198.956 205.456 198.966 205.928 198.533 205.899L189.179 205.909C189.179 205.909 188.561 205.827 188.572 206.482C188.577 207.022 187.776 213.452 193.019 213.255C197.375 213.091 197.987 209.141 197.987 209.141C197.987 209.141 198.053 208.606 198.441 208.63C198.828 208.655 198.818 208.982 198.803 209.319C198.783 209.652 197.992 213.896 192.213 213.997ZM178.728 193.457V198.515C178.728 198.919 179.156 198.982 179.156 198.982H182.976C183.012 198.977 183.048 198.972 183.089 198.972C183.313 198.972 183.497 199.146 183.497 199.358C183.497 199.57 183.313 199.738 183.089 199.738C183.033 199.738 182.976 199.729 182.925 199.709H179.365C178.758 199.709 178.748 200.258 178.748 200.258V211.405C178.748 211.405 178.702 213.115 180.651 213.134C183.747 213.168 183.466 209.059 183.466 209.059C183.497 208.871 183.665 208.727 183.869 208.727C184.073 208.727 184.241 208.871 184.267 209.059C184.277 209.449 184.297 214.257 179.784 214.238C174.979 214.218 174.933 211.159 174.954 210.808V200.417C174.954 199.68 174.51 199.709 174.51 199.709H172.791C172.74 199.729 172.689 199.738 172.633 199.738C172.403 199.738 172.225 199.57 172.225 199.358C172.225 199.146 172.403 198.972 172.633 198.972C172.653 198.972 172.684 198.977 172.709 198.982C173.995 199.04 175.173 198.616 176.356 197.359C177.478 196.174 177.902 193.674 177.948 193.38C177.948 193.356 177.942 193.336 177.942 193.312C177.942 193.1 178.126 192.932 178.35 192.932C178.575 192.932 178.753 193.1 178.753 193.312C178.753 193.365 178.743 193.413 178.728 193.457ZM129.417 199.603C129.417 198.703 128.326 198.968 128.326 198.968L122.853 199.232C122.695 199.232 122.557 199.358 122.557 199.507C122.557 199.661 122.69 199.782 122.853 199.782C122.853 199.782 123.695 199.854 124.541 200.027C125.368 200.196 125.725 200.576 125.725 201.203V211.579C125.725 212.21 125.368 212.59 124.541 212.759C123.695 212.932 122.833 213.173 122.833 213.173C122.669 213.173 122.542 213.298 122.542 213.448C122.542 213.597 122.675 213.722 122.833 213.722H132.452C132.61 213.722 132.748 213.597 132.748 213.448C132.748 213.298 132.615 213.173 132.457 213.173C132.457 213.173 131.381 213.053 130.534 212.884C129.713 212.711 129.402 212.378 129.402 211.752V201.203C129.402 201.203 129.417 200.504 129.417 199.603ZM125.347 194.83C125.347 193.717 126.306 192.811 127.484 192.811C128.662 192.811 129.621 193.717 129.621 194.83C129.621 195.942 128.662 196.848 127.484 196.848C126.306 196.848 125.347 195.942 125.347 194.83ZM170.955 199.603C170.955 198.703 169.858 198.968 169.858 198.968L164.391 199.232C164.227 199.232 164.095 199.358 164.095 199.507C164.095 199.661 164.227 199.782 164.386 199.782C164.386 199.782 165.232 199.854 166.074 200.027C166.9 200.196 167.257 200.576 167.257 201.203V211.579C167.257 212.21 166.9 212.59 166.074 212.759C165.232 212.932 164.365 213.173 164.365 213.173C164.202 213.173 164.074 213.298 164.074 213.448C164.074 213.597 164.212 213.722 164.37 213.722H173.984C174.143 213.722 174.28 213.597 174.28 213.448C174.28 213.298 174.153 213.173 173.99 213.173C173.99 213.173 172.919 213.053 172.072 212.884C171.246 212.711 170.94 212.378 170.94 211.752V201.203C170.94 201.203 170.955 200.504 170.955 199.603ZM166.885 194.83C166.885 193.717 167.839 192.811 169.017 192.811C170.2 192.811 171.154 193.717 171.154 194.83C171.154 195.942 170.2 196.848 169.017 196.848C167.839 196.848 166.885 195.942 166.885 194.83ZM150.166 201.434C150.222 201.564 150.273 201.708 150.308 201.863C150.4 202.07 150.507 202.253 150.599 202.253C150.798 202.253 151.002 201.708 151.176 201.434C151.344 201.164 153.216 198.794 155.735 198.698C158.255 198.606 159.938 199.382 160.882 201.299C161.254 202.06 161.111 204.305 161.111 204.305L160.922 211.747C160.922 212.373 161.279 212.759 162.106 212.922C162.952 213.096 163.559 213.168 163.559 213.168C163.717 213.168 163.85 213.293 163.85 213.443C163.85 213.597 163.712 213.717 163.554 213.717H154.343C154.185 213.717 154.047 213.597 154.047 213.443C154.047 213.293 154.18 213.168 154.338 213.168C154.338 213.168 155.026 213.096 155.868 212.922C156.699 212.759 157.051 212.373 157.051 211.747L157.056 203.038C157.056 203.038 157.526 199.815 155.072 199.815C152.782 199.815 151.548 202.267 151.114 203.26C150.854 203.862 150.589 205.037 150.456 206.116V211.747C150.456 212.373 150.813 212.759 151.64 212.922C152.481 213.096 153.088 213.168 153.088 213.168C153.251 213.168 153.379 213.293 153.379 213.443C153.379 213.597 153.246 213.717 153.083 213.717H143.877C143.714 213.717 143.581 213.597 143.581 213.443C143.581 213.293 143.709 213.168 143.872 213.168C143.872 213.168 144.555 213.096 145.402 212.922C146.228 212.759 146.585 212.373 146.585 211.747L146.59 203.038C146.59 203.038 146.896 199.733 144.606 199.815C142.316 199.897 141.148 202.238 140.72 203.231C140.414 203.929 140.123 205.456 140.026 206.694V211.747C140.026 212.373 140.383 212.759 141.209 212.922C142.056 213.096 142.663 213.168 142.663 213.168C142.821 213.168 142.949 213.293 142.949 213.443C142.949 213.597 142.816 213.717 142.658 213.717H133.11C132.947 213.717 132.814 213.597 132.814 213.443C132.814 213.293 132.947 213.168 133.105 213.168C133.105 213.168 134.13 213.096 134.972 212.922C135.798 212.759 136.155 212.373 136.155 211.747V201.198C136.155 200.572 135.798 200.191 134.972 200.022C134.13 199.849 133.283 199.777 133.283 199.777C133.12 199.777 132.993 199.656 132.993 199.502C132.993 199.353 133.125 199.107 133.288 199.107L138.945 198.842C138.945 198.842 140.041 198.698 140.041 199.599C140.041 200.499 140.026 201.198 140.026 201.198V201.973C140.087 202.041 140.149 202.089 140.194 202.089C140.398 202.089 140.602 201.569 140.776 201.299C140.949 201.024 142.75 198.794 145.269 198.698C147.789 198.606 149.294 199.488 150.166 201.434ZM110.571 195.49V211.574C110.571 212.263 110.959 212.677 111.857 212.86C112.453 212.98 113.152 213.072 113.56 213.067C114.075 213.062 116.824 212.913 118.207 211.974C119.492 211.097 120.385 209.536 120.823 207.836C121.262 206.13 121.211 206.058 121.211 206.058C121.211 206.058 121.262 205.389 121.573 205.413C121.879 205.437 121.955 205.837 121.93 206.13C121.904 206.424 121.93 213.231 121.93 213.231C121.93 213.231 122.057 213.712 121.384 213.712L103.257 213.722C103.084 213.722 102.941 213.587 102.941 213.423C102.941 213.255 103.079 213.12 103.257 213.12C103.257 213.12 104.364 213.043 105.282 212.86C106.18 212.677 106.568 212.263 106.568 211.574V195.49C106.568 194.806 106.18 194.391 105.282 194.208C104.364 194.02 103.257 193.943 103.257 193.943C103.079 193.943 102.941 193.808 102.941 193.645C102.941 193.481 103.084 193.346 103.257 193.346H114.407C114.58 193.346 114.723 193.481 114.723 193.645C114.723 193.808 114.585 193.943 114.407 193.943C114.407 193.943 112.775 194.02 111.857 194.208C110.959 194.391 110.571 194.806 110.571 195.49ZM90.5064 200.417C90.5064 200.417 90.5319 200.967 90.2718 200.971C90.0117 200.976 89.9148 200.721 89.823 200.442C89.7312 200.167 89.0885 198.178 88.553 197.229C88.0123 196.284 86.3955 192.835 82.662 193.052C78.9286 193.269 78.24 195.706 77.7759 197.522C77.3117 199.338 77.123 203.52 77.1587 204.353C77.1995 205.191 76.7354 213.659 83.0854 213.443C89.4354 213.221 89.976 207.879 89.976 206.463C90.0117 206.28 90.0117 206.087 90.3024 206.082C90.588 206.077 91.0012 206.044 91.0063 206.492C91.0114 206.935 90.7054 209.917 89.3997 211.405C88.0889 212.898 86.5485 213.876 83.0497 214.059C79.5457 214.242 75.7765 211.55 75.0064 210.244C74.2362 208.934 72.5021 206.935 72.6602 202.97C72.8132 199.011 75.6184 195.451 77.3525 194.252C79.0816 193.052 80.933 192.469 82.662 192.469C84.3962 192.469 86.0079 192.85 87.7012 194.069C89.165 195.124 89.4354 193.813 89.5119 193.63C89.5884 193.452 89.7159 192.648 90.0729 192.648C90.4299 192.648 90.3993 192.999 90.3993 193.071L90.5064 200.417ZM60.9497 194.512V211.574C60.9497 212.263 61.3322 212.677 62.2299 212.855C63.1531 213.043 64.7903 213.12 64.7903 213.12C64.9637 213.12 65.1065 213.255 65.1065 213.423C65.1065 213.587 64.9586 213.717 64.7852 213.717H52.7432C52.5698 213.717 52.4269 213.587 52.4269 213.423C52.4269 213.255 52.5647 213.12 52.7432 213.12C52.7432 213.12 53.8499 213.043 54.7731 212.855C55.6708 212.677 56.9459 212.263 56.9459 211.574L56.951 194.449C56.9102 193.924 56.5736 193.943 56.5736 193.943C56.5736 193.943 55.6096 193.804 54.3651 194.175C53.0747 194.555 52.0087 196.15 51.2488 197.86C50.5449 199.44 50.1828 201.4 50.1828 201.4C50.1828 201.598 50.0145 201.752 49.8053 201.752C49.5962 201.752 49.433 201.598 49.433 201.4V193.23H68.4116V201.4C68.4116 201.598 68.2432 201.752 68.0341 201.752C67.8301 201.752 67.6567 201.598 67.6567 201.4C67.6567 201.4 67.4017 199.589 66.6366 197.836C65.8359 196.015 64.8719 194.401 63.3622 194.112C62.082 193.866 61.271 193.943 61.271 193.943C61.271 193.943 60.9905 194.045 60.9497 194.512ZM40.6909 195.456C40.6909 194.772 41.0786 194.358 41.9762 194.175C42.8943 193.987 44.0062 193.91 44.0062 193.91C44.1796 193.91 44.3224 193.775 44.3224 193.611C44.3224 193.442 44.1745 193.312 44.0011 193.312H33.377C33.2036 193.312 33.0557 193.442 33.0557 193.611C33.0557 193.775 33.1985 193.91 33.3719 193.91C33.3719 193.91 34.4838 193.987 35.4018 194.175C36.2995 194.358 36.6871 194.772 36.6871 195.456V211.54C36.6871 212.229 36.2995 212.638 35.4018 212.826C34.4838 213.009 33.3719 213.086 33.3719 213.086C33.1985 213.086 33.0557 213.221 33.0557 213.385C33.0557 213.554 33.2036 213.684 33.377 213.684H44.0011C44.1745 213.684 44.3224 213.554 44.3224 213.385C44.3224 213.221 44.1796 213.086 44.0062 213.086C44.0062 213.086 42.8943 213.009 41.9762 212.826C41.0786 212.638 40.6909 212.229 40.6909 211.54V195.456Z" fill="#2C386E"/>
<path fill-rule="evenodd" clip-rule="evenodd" d="M165.421 144.733C164.299 144.733 163.391 145.59 163.391 146.65C163.391 146.977 163.493 147.271 163.646 147.536L169.848 158.384C170.684 159.945 172.434 160.985 174.413 160.985H200.573L218.577 180.162H157.867C157.638 180.186 157.403 180.196 157.168 180.196C153.884 180.196 151.145 177.98 150.538 175.041L139.909 134.848C139.842 134.53 139.807 134.212 139.807 133.88C139.807 131.413 141.923 129.414 144.535 129.414C144.683 129.414 144.825 129.419 144.968 129.434H170.868L185.292 144.733H165.421ZM103.436 129.448L95.5556 146.394L105.552 146.409L94.862 180.181H125.862L125.857 146.322H135.665L133.038 129.448H103.436ZM80.8461 129.448H97.8304L68.4369 180.181H33.0198L80.8461 129.448ZM126.943 14.4848L227.197 180.196L139.74 91.8656L126.943 14.4848ZM124.664 14.5041L24.4868 180.143L111.892 91.7741L124.664 14.5041Z" fill="#2C386E"/>
</svg>
