<svg width="278" height="193" viewBox="0 0 278 193" fill="none" xmlns="http://www.w3.org/2000/svg">
<g clip-path="url(#clip0_7_160)">
<path d="M219.315 7.9145L224.747 10.598L225.413 9.69406L226.03 8.82418L220.584 6.14062L219.946 7.04462L219.315 7.9145Z" fill="#D4A00E"/>
<path d="M219.968 19.4959L226.497 10.2968L225.496 9.79076L224.467 9.3075L217.924 18.5123L218.959 18.9956L219.968 19.4959Z" fill="#D4A00E"/>
<path d="M219.234 1.93912L231.559 7.91457L232.19 7.04469L232.807 6.1407L220.516 0.148193L219.892 1.03513L219.234 1.93912Z" fill="#D4A00E"/>
<path d="M236.579 13.9582L231.154 11.2974L230.529 12.207L229.912 13.0712L235.33 15.732L235.961 14.8565L236.579 13.9582Z" fill="#D4A00E"/>
<path d="M224.864 21.8838L231.421 12.7131L230.365 12.2071L229.357 11.6954L222.827 20.8946L223.842 21.3892L224.864 21.8838Z" fill="#D4A00E"/>
<path d="M241.661 11.235L223.28 20.6217L224.569 22.3842L242.971 12.9804L242.333 12.1106L241.661 11.235Z" fill="#D4A00E"/>
<path d="M242.944 11.0814L230.667 5.0946L230.036 5.98154L229.412 6.86848L241.71 12.8724L242.341 11.974L242.944 11.0814Z" fill="#D4A00E"/>
<path d="M218.52 1.06921L217.553 18.9558L218.808 18.9956L220.036 19.0467L221.01 1.16018L219.775 1.10901L218.52 1.06921Z" fill="#D4A00E"/>
<path d="M195.441 41.8911L200.743 44.4553L201.388 43.5627L202.033 42.6757L196.724 40.1002L196.114 40.9928L195.441 41.8911Z" fill="#D4A00E"/>
<path d="M207.059 33.8801L200.509 43.0849L201.552 43.5853L202.553 44.0685L209.089 34.8865L208.088 34.3918L207.059 33.8801Z" fill="#D4A00E"/>
<path d="M190.263 44.5576L208.644 35.1538L207.992 34.2896L207.341 33.4027L188.939 42.7838L189.591 43.6593L190.263 44.5576Z" fill="#D4A00E"/>
<path d="M188.939 44.694L201.25 50.6751L201.874 49.7825L202.512 48.9126L190.222 42.9031L189.591 43.8014L188.939 44.694Z" fill="#D4A00E"/>
<path d="M212.512 47.804L207.149 45.183L206.518 46.0699L205.894 46.9625L211.257 49.5779L211.861 48.6852L212.512 47.804Z" fill="#D4A00E"/>
<path d="M211.943 36.2682L205.427 45.4844L206.456 45.979L207.478 46.4566L214.001 37.2575L212.992 36.7685L211.943 36.2682Z" fill="#D4A00E"/>
<path d="M213.369 54.7175L214.385 36.8253L213.136 36.7912L211.861 36.7571L210.921 54.6209L212.176 54.6721L213.369 54.7175Z" fill="#D4A00E"/>
<path d="M212.656 53.859L200.365 47.8438L199.741 48.7364L199.103 49.6347L211.401 55.6386L212.018 54.7346L212.656 53.859Z" fill="#D4A00E"/>
<path d="M219.81 49.6462L225.317 47.1445L224.666 46.2121L224.062 45.257L218.589 47.7699L219.234 48.7137L219.81 49.6462Z" fill="#D4A00E"/>
<path d="M217.553 37.2006L223.801 46.5646L224.803 46.0927L225.852 45.6322L219.659 36.2397L218.623 36.7571L217.553 37.2006Z" fill="#D4A00E"/>
<path d="M220.036 54.6209L219.713 36.7344L218.451 36.7571H217.23L217.546 54.6721L218.808 54.638L220.036 54.6209Z" fill="#D4A00E"/>
<path d="M219.515 55.6387L232.018 49.9361L231.435 49.0037L230.838 48.1224L218.328 53.7966L218.904 54.7176L219.515 55.6387Z" fill="#D4A00E"/>
<path d="M234.789 40.3959L229.364 42.8918L229.988 43.8299L230.598 44.7339L236.01 42.255L235.406 41.3283L234.789 40.3959Z" fill="#D4A00E"/>
<path d="M222.553 34.932L228.774 44.296L229.796 43.8298L230.838 43.3465L224.652 33.9939L223.609 34.4601L222.553 34.932Z" fill="#D4A00E"/>
<path d="M242.409 43.3466L224.364 33.5164L223.699 34.3464L223.006 35.222L241.058 45.0693L241.723 44.2051L242.409 43.3466Z" fill="#D4A00E"/>
<path d="M241.14 43.4261L228.623 49.1287L229.227 50.0327L229.823 50.9196L242.34 45.2341L241.723 44.3358L241.14 43.4261Z" fill="#D4A00E"/>
<path d="M193.63 35.512V30.4803H191.085L191.127 35.5632L192.375 35.512H193.63Z" fill="#D4A00E"/>
<path d="M205.269 29.3148L192.375 29.366V30.3439L192.409 31.3389L205.269 31.282V29.3148Z" fill="#D4A00E"/>
<path d="M186.889 39.7705L205.942 31.2991L205.338 30.4008L204.755 29.4797L185.723 37.9511L186.34 38.8494L186.889 39.7705Z" fill="#D4A00E"/>
<path d="M187.423 38.7925L187.293 26.9838H184.831L184.94 38.8323L186.175 38.8039L187.423 38.7925Z" fill="#D4A00E"/>
<path d="M190.983 20.292L190.997 25.4942L192.293 25.4772H193.569V20.2806L192.293 20.292H190.983Z" fill="#D4A00E"/>
<path d="M205.235 24.5845L192.341 24.6413L192.375 25.6306V26.5971L205.235 26.5289V24.5845Z" fill="#D4A00E"/>
<path d="M185.564 18.0746L204.727 26.3924L205.317 25.46L205.887 24.5503L186.73 16.2495L186.175 17.1706L185.564 18.0746Z" fill="#D4A00E"/>
<path d="M184.803 17.2217L184.851 29.0873L186.113 29.0475H187.341L187.265 17.2217H184.803Z" fill="#D4A00E"/>
<path d="M211.353 0.108398L199.131 6.16344L199.755 7.0447L200.4 7.94869L212.656 1.89933L212.018 1.02376L211.353 0.108398Z" fill="#D4A00E"/>
<path d="M211.353 6.08398L205.962 8.77322L206.627 9.69427L207.299 10.621L212.69 7.91471L212.018 6.99935L211.353 6.08398Z" fill="#D4A00E"/>
<path d="M214.096 18.4725L207.498 9.29614L206.518 9.79078L205.482 10.2968L212.073 19.4845L213.088 18.9615L214.096 18.4725Z" fill="#D4A00E"/>
<path d="M210.921 1.13183L211.984 19.007L213.219 18.9558L214.474 18.899L213.369 1.0238L212.128 1.06929L210.921 1.13183Z" fill="#D4A00E"/>
<path d="M196.724 15.8003L202.06 13.1395L201.429 12.2355L200.764 11.2974L195.441 13.9582L196.072 14.8792L196.724 15.8003Z" fill="#D4A00E"/>
<path d="M209.214 20.8831L202.643 11.7181L201.6 12.2355L200.599 12.7188L207.19 21.8838L208.171 21.3721L209.214 20.8831Z" fill="#D4A00E"/>
<path d="M189.035 13.0486L207.478 22.3443L208.102 21.4915L208.774 20.6046L190.317 11.2917L189.679 12.1901L189.035 13.0486Z" fill="#D4A00E"/>
<path d="M190.304 12.9462L202.539 6.89118L201.895 5.99856L201.277 5.11731L189.035 11.1724L189.679 12.0536L190.304 12.9462Z" fill="#D4A00E"/>
<path d="M244.864 17.6025L244.411 29.417L245.687 29.4454L246.908 29.4795L247.353 17.6423L246.085 17.6082L244.864 17.6025Z" fill="#D4A00E"/>
<path d="M238.493 20.6217L238.314 25.7159L239.583 25.7671L240.852 25.7728L241.024 20.6899L239.748 20.6501L238.493 20.6217Z" fill="#D4A00E"/>
<path d="M226.613 26.546L239.514 26.8814L239.542 25.8921L239.562 24.9199L226.696 24.5845L226.661 25.5908L226.613 26.546Z" fill="#D4A00E"/>
<path d="M245.42 16.6532L226.051 24.5503L226.606 25.46L227.148 26.3924L246.51 18.4839L245.975 17.5629L245.42 16.6532Z" fill="#D4A00E"/>
<path d="M240.509 35.8816L240.687 30.7874L239.46 30.7533L238.157 30.6964L237.93 35.8134L240.509 35.8816Z" fill="#D4A00E"/>
<path d="M226.435 31.2877L239.322 31.6004L239.357 30.6225L239.391 29.6616L226.497 29.3148V30.2814L226.435 31.2877Z" fill="#D4A00E"/>
<path d="M245.797 38.366L227.011 29.5137L226.421 30.4006L225.797 31.2989L244.583 40.1399L245.207 39.2415L245.797 38.366Z" fill="#D4A00E"/>
<path d="M246.579 39.2417L246.997 27.3988L245.742 27.359L244.501 27.3477L244.083 39.1735L245.317 39.1962L246.579 39.2417Z" fill="#D4A00E"/>
<path d="M243.376 12.6165C242.985 13.1793 242.162 13.3442 241.518 13.0258C240.852 12.7188 240.626 12.0195 241.024 11.468C241.394 10.9336 242.251 10.7516 242.917 11.0643C243.52 11.3657 243.767 12.065 243.376 12.6165Z" fill="#D4A00E"/>
<path d="M221.031 1.71176C220.688 2.26325 219.831 2.42813 219.186 2.10406C218.521 1.79704 218.329 1.1091 218.72 0.557606C219.062 0.0117981 219.906 -0.153081 220.585 0.176678C221.237 0.483693 221.449 1.18869 221.031 1.71176Z" fill="#D4A00E"/>
<path d="M213.205 1.71174C212.821 2.26323 211.943 2.42811 211.346 2.10404C210.667 1.79702 210.462 1.10908 210.832 0.557588C211.216 0.0117798 212.073 -0.1531 212.711 0.148232C213.37 0.483675 213.603 1.18868 213.205 1.71174Z" fill="#D4A00E"/>
<path d="M226.469 10.3537C226.085 10.8768 225.276 11.053 224.631 10.7176C223.966 10.4163 223.739 9.71695 224.124 9.17683C224.473 8.64239 225.337 8.47183 225.989 8.77316C226.661 9.08586 226.833 9.79086 226.469 10.3537Z" fill="#D4A00E"/>
<path d="M231.668 12.8724C231.305 13.4125 230.44 13.5887 229.796 13.2703C229.158 12.9463 228.918 12.2697 229.329 11.7182C229.686 11.1951 230.53 11.0132 231.202 11.2975C231.846 11.6386 232.038 12.3379 231.668 12.8724Z" fill="#D4A00E"/>
<path d="M247.162 18.2793C246.771 18.808 245.955 18.9672 245.276 18.6772C244.645 18.3532 244.405 17.6425 244.795 17.1137C245.207 16.585 246.016 16.4031 246.668 16.7271C247.319 17.0569 247.511 17.7391 247.162 18.2793Z" fill="#D4A00E"/>
<path d="M240.626 26.3527C240.296 26.8985 239.46 27.0634 238.781 26.745C238.15 26.4323 237.916 25.7159 238.314 25.2099C238.692 24.647 239.542 24.4935 240.166 24.7949C240.825 25.1132 241.037 25.8012 240.626 26.3527Z" fill="#D4A00E"/>
<path d="M240.509 31.3388C240.125 31.8619 239.275 32.0779 238.603 31.7368C237.978 31.4014 237.752 30.6964 238.15 30.2131C238.507 29.6616 239.357 29.474 240.009 29.7583C240.626 30.1051 240.88 30.7987 240.509 31.3388Z" fill="#D4A00E"/>
<path d="M246.394 39.6965C245.996 40.2424 245.16 40.4015 244.501 40.1002C243.856 39.7818 243.609 39.0882 244.028 38.5708C244.405 38.008 245.269 37.8488 245.9 38.1558C246.531 38.4685 246.771 39.1735 246.394 39.6965Z" fill="#D4A00E"/>
<path d="M242.82 44.8419C242.409 45.3991 241.613 45.5697 240.948 45.257C240.31 44.9556 240.056 44.2563 240.461 43.6992C240.838 43.1761 241.661 42.9942 242.32 43.2898C242.944 43.6196 243.163 44.3302 242.82 44.8419Z" fill="#D4A00E"/>
<path d="M220.105 19.3482C219.714 19.9053 218.87 20.0759 218.232 19.7689C217.553 19.4448 217.361 18.7171 217.738 18.2054C218.136 17.6425 218.959 17.472 219.618 17.7903C220.276 18.1315 220.482 18.808 220.105 19.3482Z" fill="#D4A00E"/>
<path d="M214.329 19.3254C213.931 19.8485 213.067 20.0304 212.429 19.7177C211.764 19.3936 211.551 18.6943 211.928 18.1769C212.333 17.6084 213.17 17.4435 213.828 17.7846C214.466 18.0746 214.665 18.7796 214.329 19.3254Z" fill="#D4A00E"/>
<path d="M209.13 21.8839C208.719 22.4184 207.882 22.6174 207.244 22.2819C206.592 21.9351 206.366 21.2927 206.737 20.7412C207.148 20.201 207.957 20.0248 208.609 20.3432C209.295 20.6502 209.487 21.3495 209.13 21.8839Z" fill="#D4A00E"/>
<path d="M206.209 26.0115C205.866 26.546 204.995 26.7222 204.343 26.4323C203.671 26.0968 203.479 25.3918 203.883 24.8631C204.247 24.3116 205.084 24.141 205.735 24.4764C206.421 24.7892 206.593 25.4771 206.209 26.0115Z" fill="#D4A00E"/>
<path d="M206.208 31.0035C205.831 31.5266 204.96 31.7312 204.343 31.3958C203.671 31.066 203.451 30.4008 203.842 29.8721C204.226 29.3149 205.049 29.1443 205.694 29.4457C206.366 29.7584 206.593 30.4748 206.208 31.0035Z" fill="#D4A00E"/>
<path d="M208.987 35.0458C208.596 35.5916 207.793 35.7792 207.148 35.4552C206.469 35.1311 206.25 34.4602 206.634 33.903C207.018 33.38 207.875 33.198 208.534 33.5164C209.172 33.8007 209.364 34.5 208.987 35.0458Z" fill="#D4A00E"/>
<path d="M214.192 37.6099C213.794 38.1557 212.971 38.3263 212.306 38.0079C211.654 37.718 211.449 37.0016 211.819 36.4728C212.196 35.9157 213.053 35.7224 213.691 36.0635C214.384 36.3705 214.569 37.0641 214.192 37.6099Z" fill="#D4A00E"/>
<path d="M219.776 37.4963C219.371 38.0535 218.534 38.2411 217.889 37.9171C217.245 37.593 217.025 36.8994 217.402 36.3592C217.814 35.8134 218.623 35.6258 219.275 35.9556C219.933 36.3024 220.16 36.9733 219.776 37.4963Z" fill="#D4A00E"/>
<path d="M225.29 21.8783C224.892 22.4184 224.062 22.6174 223.397 22.2819C222.759 21.9351 222.546 21.2642 222.917 20.7412C223.301 20.201 224.131 19.9907 224.803 20.3204C225.448 20.6502 225.653 21.3495 225.29 21.8783Z" fill="#D4A00E"/>
<path d="M228.088 26.0115C227.697 26.5289 226.833 26.7222 226.182 26.4152C225.551 26.0968 225.338 25.3918 225.715 24.8631C226.086 24.3116 226.916 24.141 227.581 24.4764C228.239 24.7892 228.445 25.4771 228.088 26.0115Z" fill="#D4A00E"/>
<path d="M227.91 31.0146C227.498 31.5832 226.696 31.7367 226.03 31.4012C225.365 31.0942 225.153 30.4063 225.55 29.8718C225.934 29.3146 226.778 29.1441 227.409 29.4738C228.088 29.7581 228.287 30.4802 227.91 31.0146Z" fill="#D4A00E"/>
<path d="M225.022 35.1312C224.652 35.6713 223.808 35.8418 223.164 35.5121C222.498 35.188 222.286 34.5001 222.691 33.9656C223.061 33.4198 223.905 33.255 224.57 33.5677C225.187 33.8804 225.42 34.574 225.022 35.1312Z" fill="#D4A00E"/>
<path d="M231.154 44.3188C230.743 44.8419 229.92 45.0238 229.268 44.7111C228.624 44.3927 228.411 43.6763 228.774 43.176C229.186 42.6188 229.988 42.4426 230.654 42.7553C231.305 43.0737 231.525 43.79 231.154 44.3188Z" fill="#D4A00E"/>
<path d="M225.811 46.735C225.42 47.2296 224.631 47.4343 223.973 47.1273C223.301 46.8146 223.088 46.0925 223.465 45.5524C223.842 45.0237 224.665 44.8417 225.344 45.1715C225.989 45.4956 226.202 46.1778 225.811 46.735Z" fill="#D4A00E"/>
<path d="M220.105 55.1668C219.734 55.6956 218.87 55.906 218.232 55.5648C217.553 55.2635 217.402 54.5812 217.759 54.0297C218.136 53.4839 218.973 53.3134 219.645 53.6431C220.276 53.9501 220.495 54.621 220.105 55.1668Z" fill="#D4A00E"/>
<path d="M213.219 55.1781C212.821 55.7296 211.984 55.9059 211.346 55.5989C210.702 55.2805 210.462 54.5811 210.859 54.0524C211.23 53.5123 212.073 53.319 212.711 53.643C213.37 53.9501 213.603 54.6721 213.219 55.1781Z" fill="#D4A00E"/>
<path d="M207.828 46.5704C207.423 47.1446 206.593 47.3323 205.942 46.9911C205.317 46.6784 205.084 45.9905 205.448 45.439C205.866 44.8989 206.662 44.7112 207.341 45.0524C207.992 45.3537 208.198 46.0473 207.828 46.5704Z" fill="#D4A00E"/>
<path d="M202.567 44.0344C202.21 44.5916 201.36 44.7678 200.722 44.4267C200.084 44.1367 199.837 43.4545 200.242 42.8916C200.598 42.3458 201.435 42.1809 202.1 42.4879C202.766 42.8063 202.971 43.5 202.567 44.0344Z" fill="#D4A00E"/>
<path d="M187.464 39.3269C187.087 39.8614 186.236 40.0376 185.605 39.7192C184.968 39.4008 184.721 38.7299 185.132 38.1841C185.482 37.6326 186.339 37.4393 186.97 37.752C187.636 38.0988 187.855 38.7925 187.464 39.3269Z" fill="#D4A00E"/>
<path d="M193.63 31.066C193.246 31.6061 192.375 31.7937 191.723 31.4924C191.085 31.1683 190.859 30.4804 191.25 29.9118C191.655 29.3831 192.471 29.1955 193.129 29.5139C193.76 29.8322 194.014 30.5429 193.63 31.066Z" fill="#D4A00E"/>
<path d="M193.547 26.0627C193.143 26.5972 192.313 26.7848 191.654 26.4664C191.01 26.1423 190.797 25.4373 191.195 24.9199C191.545 24.3628 192.409 24.1922 193.06 24.4992C193.705 24.8347 193.945 25.5283 193.547 26.0627Z" fill="#D4A00E"/>
<path d="M187.286 17.8416C186.922 18.3931 186.079 18.5466 185.414 18.2282C184.803 17.9212 184.577 17.2219 184.968 16.6818C185.318 16.1416 186.175 15.9825 186.82 16.2724C187.464 16.6192 187.691 17.3072 187.286 17.8416Z" fill="#D4A00E"/>
<path d="M190.955 12.7131C190.564 13.2191 189.728 13.4181 189.083 13.094C188.431 12.787 188.226 12.0649 188.582 11.5418C188.98 11.0131 189.803 10.8312 190.448 11.1552C191.127 11.4679 191.333 12.1331 190.955 12.7131Z" fill="#D4A00E"/>
<path d="M202.663 12.8724C202.252 13.4125 201.429 13.5774 200.784 13.2533C200.139 12.9463 199.92 12.2697 200.304 11.7182C200.674 11.1724 201.497 10.9905 202.183 11.2975C202.793 11.6102 203.006 12.338 202.663 12.8724Z" fill="#D4A00E"/>
<path d="M207.848 10.3196C207.478 10.8768 206.627 11.053 205.976 10.7176C205.331 10.4162 205.084 9.71692 205.482 9.1768C205.887 8.64237 206.696 8.44906 207.368 8.77313C208.02 9.08584 208.246 9.79084 207.848 10.3196Z" fill="#D4A00E"/>
<path d="M190.893 44.3188C190.502 44.8418 189.686 45.0238 189.034 44.7111C188.383 44.3927 188.156 43.699 188.527 43.176C188.904 42.6188 189.747 42.4425 190.406 42.7837C191.085 43.0736 191.27 43.79 190.893 44.3188Z" fill="#D4A00E"/>
<path d="M23.3853 186.712H7V185.887C9.53083 185.887 9.74345 185.74 9.74345 183.789V169.934C9.74345 167.995 9.53083 167.847 7 167.847V167.063H15.1481V167.847C12.5281 167.847 12.3566 167.995 12.3566 169.934V184.369C12.3566 185.512 12.5555 185.654 13.5363 185.654H19.9697C21.9793 185.654 22.3702 185.455 23.3578 182.391H24.6198L23.3853 186.712Z" fill="#D4A00E"/>
<path d="M45.71 186.672C44.9624 186.672 44.2765 186.672 43.6455 186.712C42.9391 186.74 42.2463 186.826 41.5331 186.99L41.3067 186.905L41.1558 185.228H41.0529C39.983 186.143 38.2683 186.99 36.0187 186.99C34.5647 186.99 33.385 186.763 32.5482 186.206C31.5469 185.552 31.005 184.449 31.005 182.812V177.803C31.005 176.342 30.9159 176.245 29.0366 176.245V175.722C30.4701 175.546 31.7938 175.239 33.0626 174.647L33.4604 174.767V182.624C33.4604 183.841 33.6593 184.722 34.2698 185.302C34.8253 185.802 35.6964 186.052 36.6909 186.052C38.3644 186.052 39.8115 185.302 41.101 184.062V177.803C41.101 176.342 40.9912 176.245 39.1668 176.245V175.722C40.5866 175.546 41.8828 175.239 43.138 174.647L43.5152 174.767V184.421C43.5152 185.944 43.6661 186.121 45.71 186.121V186.672Z" fill="#D4A00E"/>
<path d="M56.4236 181.601L53.1657 185.177C52.5279 185.825 52.7268 186.081 54.2357 186.081V186.712H49.4209V186.081C50.2028 186.081 50.7583 185.831 51.5745 185.023L55.6965 180.748L52.329 176.785C51.3276 175.602 50.8475 175.546 49.9833 175.546V174.937H56.0189V175.546C54.4208 175.546 54.2768 175.796 55.1204 176.74L57.3495 179.531H57.4524L60.2301 176.58C60.9297 175.864 60.8474 175.546 59.4002 175.546V174.937H64.0435V175.546C63.193 175.546 62.7815 175.796 61.9653 176.58L58.1382 180.395L61.931 184.836C62.9736 186.024 63.5703 186.064 64.3659 186.081V186.712H58.2617V186.081C59.7912 186.081 59.9146 185.859 59.1533 184.915L56.4784 181.601H56.4236Z" fill="#D4A00E"/>
<path d="M84.7972 186.672C84.077 186.672 83.3706 186.672 82.7465 186.712C82.04 186.74 81.3747 186.826 80.6409 186.99L80.4283 186.905L80.2499 185.228H80.1745C79.0908 186.143 77.383 186.99 75.1265 186.99C73.6999 186.99 72.4997 186.763 71.6629 186.206C70.6273 185.552 70.1266 184.449 70.1266 182.812V177.803C70.1266 176.342 70.01 176.245 68.1719 176.245V175.722C69.5779 175.546 70.881 175.239 72.191 174.647L72.5614 174.767V182.624C72.5614 183.841 72.7672 184.722 73.405 185.302C73.9537 185.802 74.8179 186.052 75.785 186.052C77.4516 186.052 78.9056 185.302 80.2088 184.062V177.803C80.2088 176.342 80.0853 176.245 78.2541 176.245V175.722C79.715 175.546 80.9769 175.239 82.2732 174.647L82.6299 174.767V184.421C82.6299 185.944 82.7876 186.121 84.7972 186.121V186.672Z" fill="#D4A00E"/>
<path d="M93.5903 176.529C94.962 175.204 95.9154 174.647 97.3351 174.647C98.1101 174.647 98.6657 174.835 99.0978 175.136C99.5573 175.426 99.8454 175.807 99.8454 176.245C99.8454 176.825 99.427 177.143 98.7617 177.143C98.2542 177.143 97.8564 176.961 97.5683 176.455C97.2871 175.767 97.0813 175.58 96.6081 175.58C95.7439 175.58 94.8523 176.342 93.604 177.7V184.369C93.604 185.899 93.8098 186.081 95.9634 186.081V186.712H89.1733V186.081C91.0183 186.081 91.1898 185.927 91.1898 184.352V177.865C91.1898 176.376 90.984 176.245 89.1733 176.245V175.722C90.5931 175.54 91.8002 175.256 93.069 174.647L93.412 174.801L93.5491 176.529H93.5903Z" fill="#D4A00E"/>
<path d="M105.257 177.2C104.441 175.671 104.221 175.546 103.007 175.546V174.937H108.864V175.546C107.198 175.546 107.04 175.767 107.637 176.899L111.443 184.273H111.539L115.174 176.484C115.538 175.762 115.387 175.546 113.857 175.546V174.937H118.405V175.546C117.259 175.546 116.999 175.671 116.512 176.694L110.318 189.805C109.879 190.652 109.344 191.431 108.597 192.051C107.87 192.659 106.937 193 105.764 193C104.777 193 103.995 192.807 103.446 192.505C102.904 192.221 102.63 191.846 102.63 191.476C102.63 191.073 103.007 190.811 103.48 190.811C104.221 190.811 104.598 191.141 104.948 191.476C105.243 191.88 105.531 192.193 106.128 192.193C107.541 192.21 108.446 190.72 108.906 189.845L110.428 186.439L105.257 177.2Z" fill="#D4A00E"/>
<path d="M169.351 183.841C169.351 185.751 169.564 185.887 172.218 185.887V186.712H164.056V185.887C166.553 185.887 166.724 185.751 166.724 183.846V176.978H151.587V183.846C151.587 185.751 151.766 185.887 154.29 185.887V186.712H146.135V185.887C148.796 185.887 148.995 185.751 148.995 183.841V169.888C148.995 167.995 148.796 167.847 146.135 167.847V167.063H154.29V167.847C151.766 167.847 151.587 167.972 151.587 169.888V175.938H166.724V169.888C166.724 167.972 166.553 167.847 164.056 167.847V167.063H172.218V167.847C169.564 167.847 169.351 167.995 169.351 169.888V183.841Z" fill="#D4A00E"/>
<path d="M184.912 186.99C182.862 186.99 181.222 186.615 179.871 185.751C178.431 184.807 177.594 183.221 177.594 180.748C177.594 178.656 178.356 177.041 179.803 176C181.099 175.091 182.676 174.647 184.967 174.647C187.21 174.647 188.829 175.091 190.146 176.023C191.538 177.058 192.313 178.667 192.313 180.748C192.313 183.221 191.462 184.79 190.111 185.728C188.705 186.615 187.066 186.99 184.94 186.99H184.912ZM184.851 175.426C183.527 175.426 182.402 175.762 181.6 176.461C180.626 177.331 180.118 178.667 180.118 180.793C180.118 182.982 180.722 184.352 181.634 185.177C182.402 185.831 183.513 186.195 184.94 186.195C186.339 186.195 187.416 185.831 188.17 185.177C189.089 184.352 189.686 182.982 189.686 180.793C189.686 178.667 189.172 177.331 188.225 176.461C187.416 175.762 186.284 175.426 184.94 175.426H184.851Z" fill="#D4A00E"/>
<path d="M197.094 175.148C199.591 175.017 200.366 174.045 200.997 171.651H201.875V174.937H206.251V175.756H201.875V184.17C201.875 185.467 202.499 186.121 203.932 186.121C204.899 186.121 205.688 185.887 206.532 185.455L207.101 186.001C206.065 186.672 204.817 186.99 203.281 186.99C201.36 186.99 199.447 186.393 199.447 184.307V175.756H197.094V175.148Z" fill="#D4A00E"/>
<path d="M213.719 180.486C213.719 182.192 213.952 183.545 214.768 184.654C215.468 185.552 216.634 186.16 217.923 186.16C218.904 186.16 219.83 185.944 220.619 185.45C221.181 185.074 221.737 184.551 222.093 183.846L223.088 184.159C222.697 184.79 222.128 185.467 221.263 186.024C220.365 186.587 219.185 186.99 217.615 186.99C215.674 186.99 214 186.524 212.82 185.364C211.764 184.307 211.154 182.743 211.154 180.395C211.154 178.667 211.86 177.052 213.17 175.961C214.199 175.148 215.619 174.647 217.313 174.647C218.986 174.647 220.303 175.062 221.353 175.961C222.471 177.035 223.054 178.684 223.054 180.486H213.719ZM220.536 179.685C220.536 178.457 220.276 177.24 219.645 176.415C219.082 175.824 218.403 175.426 217.265 175.426C216.428 175.426 215.571 175.767 214.871 176.455C214.233 177.143 213.774 178.223 213.719 179.685H220.536Z" fill="#D4A00E"/>
<path d="M230.159 171.697C230.159 170.36 230.036 170.184 227.766 170.184V169.638C229.679 169.462 230.818 169.178 232.251 168.587L232.594 168.717V184.369C232.594 185.899 232.711 186.081 234.892 186.081V186.712H227.766V186.081C230.077 186.081 230.159 185.899 230.159 184.352V171.697Z" fill="#D4A00E"/>
<path d="M247.313 177.655C246.826 175.909 246.085 175.426 244.405 175.426C243.609 175.426 242.944 175.585 242.471 175.909C241.956 176.234 241.723 176.609 241.723 177.12C241.723 177.729 242.176 178.28 242.868 178.752C243.671 179.23 244.85 179.685 245.598 180.162C246.531 180.685 247.416 181.174 247.957 181.72C248.54 182.249 249 182.92 249 183.767C249 184.79 248.451 185.603 247.491 186.132C246.531 186.712 245.221 186.99 243.671 186.99C241.977 186.99 240.749 186.78 239.652 186.393C239.473 185.364 239.247 184.551 238.986 183.812L239.892 183.63C240.687 185.603 241.689 186.195 243.492 186.195C244.412 186.195 245.173 185.99 245.694 185.598C246.167 185.211 246.442 184.682 246.442 184.011C246.442 183.511 246.222 183.096 245.9 182.721C245.42 182.237 244.645 181.93 243.163 181.083C241.805 180.253 240.852 179.81 240.214 179.23C239.741 178.724 239.357 178.115 239.357 177.348C239.357 176.58 239.837 175.875 240.728 175.398C241.531 174.937 242.759 174.647 244.24 174.647C245.797 174.647 246.874 174.852 247.69 175.085C247.779 175.693 247.957 176.609 248.239 177.518L247.313 177.655Z" fill="#D4A00E"/>
<path d="M61.0255 122.164C61.0255 133.968 61.3341 135.548 69.7222 136.225L74.3518 136.572C75.2434 137.032 74.921 139.045 74.0911 139.386C65.8196 139.17 60.8471 139.045 55.0859 139.045C49.3178 139.045 44.2287 139.17 34.9489 139.386C34.1053 139.045 33.8173 137.112 34.9489 136.572L40.1752 136.225C48.4193 135.65 49.1669 133.968 49.1669 122.164V71.9161C49.1669 68.4252 49.1669 68.3115 44.8185 68.3115H36.8282C30.6554 68.3115 22.6514 68.5389 19.0232 71.1486C15.5459 73.6275 14.1124 76.0779 12.5075 78.8865C11.3484 79.546 9.32508 79.0059 8.76953 78.1133C11.0672 73.0475 12.9739 68.8232 14.0027 64.3146L18.0218 62.4441C18.9134 66.0714 22.6514 64.8377 29.3249 64.8377H87.9387C95.785 64.8377 95.1814 65.0651 97.8632 63.5869C98.5353 63.2173 99.8179 66.4808 100.099 66.9356C98.5353 71.5522 99.2555 75.7254 99.7081 79.1083C99.0977 80.0179 96.6492 80.0179 95.9359 79.3243C95.4764 76.5498 94.4887 72.3653 92.2871 71.1486C88.9744 69.2155 83.4669 68.3115 75.5109 68.3115H65.2367C60.8951 68.3115 61.0255 68.4252 61.0255 72.1435V122.164Z" fill="#D4A00E"/>
<path d="M145.263 61.7731L146.004 61.017H147.526C147.917 61.341 148.281 61.6196 148.48 62.0404L182.958 131.096C184.851 134.917 185.413 135.349 187.492 136.964C189.234 137.561 190.187 137.561 191.305 137.561C192.251 137.561 193.205 137.561 194.172 137.43V138.885C193.609 138.885 192.848 139.045 192.066 139.045C191.696 139.045 180.674 138.459 178.431 138.459C176.518 138.459 168.198 139.045 166.477 139.045C164.2 139.045 164.021 139.045 162.506 138.885V137.288C165.331 137.561 165.901 137.561 169.11 137.43C171.401 136.401 172.163 135.81 172.163 134.03C172.163 133.592 172.163 131.966 171.401 130.363L158.514 104.744H127.808L117.78 124.621C116.999 126.093 115.304 130.198 115.304 132.563C115.304 135.07 116.621 136.236 117.78 137.112C119.276 137.561 120.592 137.561 121.717 137.561H125.14V138.885C124.022 139.045 123.83 139.045 121.553 139.045C120.037 139.045 113.219 138.459 111.313 138.459C108.096 138.459 103.364 139.045 101.443 139.045C99.3787 139.045 99.173 139.045 98.2471 138.885V137.288C99.9412 137.561 100.332 137.561 103.727 137.43C105.641 136.401 109.221 134.184 111.882 128.89L145.263 61.7731ZM157.396 102.089L143.171 74.2755L129.118 102.089H157.396Z" fill="#D4A00E"/>
<path d="M195.9 164.988C210.887 161.406 212.21 147.289 212.21 138.755V73.2465C212.21 69.4315 212.21 63.6892 203.129 63.6892C201.991 63.6892 200.667 63.6892 199.522 63.8256V62.3701C201.422 62.0404 203.129 61.9153 205.578 61.9153C207.478 61.9153 215.255 62.4952 216.95 62.4952C219.233 62.4952 229.096 62.0404 230.962 62.0404C233.081 62.0404 233.65 62.2166 234.96 62.4952V64.1269C233.822 63.8256 232.498 63.6892 231.346 63.6892C223.568 63.6892 222.656 68.2546 222.656 72.3652L222.43 137.726C222.43 146.578 216.771 160.684 195.9 166.295V164.988Z" fill="#D4A00E"/>
</g>
<defs>
<clipPath id="clip0_7_160">
<rect width="277.8" height="192.59" fill="white"/>
</clipPath>
</defs>
</svg>
