<svg width="476" height="428" viewBox="0 0 476 428" fill="none" xmlns="http://www.w3.org/2000/svg">
<path fill-rule="evenodd" clip-rule="evenodd" d="M209.528 321V291.985H205.877V304.589H192.59V291.985H188.94V321H192.59V307.28H205.877V321H209.528Z" fill="#74BE44"/>
<path fill-rule="evenodd" clip-rule="evenodd" d="M249.827 306.427C249.827 310.956 249.097 318.702 242.38 318.702C235.591 318.702 234.861 310.956 234.861 306.427C234.861 301.898 235.591 294.283 242.38 294.283C249.097 294.283 249.827 301.898 249.827 306.427ZM253.842 306.427C253.842 299.469 251.871 291.526 242.38 291.526C232.89 291.526 230.918 299.469 230.918 306.427C230.918 313.385 232.963 321.394 242.38 321.394C251.798 321.459 253.842 313.32 253.842 306.427Z" fill="#74BE44"/>
<path fill-rule="evenodd" clip-rule="evenodd" d="M290.272 294.742V292.051H271.218V294.742H278.883V321H282.534V294.742H290.272Z" fill="#74BE44"/>
<path fill-rule="evenodd" clip-rule="evenodd" d="M325.169 321V318.243H312.831V307.149H324.22V304.458H312.831V294.742H324.804V291.985H309.181V321H325.169Z" fill="#74BE44"/>
<path fill-rule="evenodd" clip-rule="evenodd" d="M360.942 321V318.243H349.48V291.985H345.757V321H360.942Z" fill="#74BE44"/>
<path fill-rule="evenodd" clip-rule="evenodd" d="M396.788 313.32C396.788 308.987 393.722 307.215 389.999 305.377L387.006 303.933C384.742 302.882 381.603 301.438 381.603 298.812C381.603 295.727 384.596 294.414 387.663 294.414C389.999 294.414 392.554 294.874 394.671 295.661V292.379C392.408 291.985 390.218 291.591 387.955 291.591C382.698 291.591 377.588 293.626 377.588 299.075C377.588 303.276 381.019 304.786 384.523 306.558L387.371 308.002C390.145 309.381 392.7 310.628 392.7 313.845C392.7 317.39 389.196 318.768 385.765 318.768C383.063 318.768 380.435 318.177 377.953 317.258V320.606C380.362 321.131 382.844 321.525 385.327 321.525C391.386 321.46 396.788 319.425 396.788 313.32Z" fill="#74BE44"/>
<path d="M265.158 199.493C270.707 199.493 276.109 197.917 280.417 194.701C286.403 190.171 289.177 183.278 288.666 176.123C282.826 175.139 276.547 176.386 271.656 180.062C265.158 184.854 262.895 192.534 265.158 199.493ZM227.925 159.581C227.925 148.093 231.576 137.459 237.854 128.466C239.679 130.96 242.088 133.192 245.009 134.833C251.652 138.575 259.829 138.837 267.276 136.146C266.546 130.829 263.26 125.84 257.858 122.82C253.915 120.588 249.389 119.735 245.009 120.129C256.909 108.51 273.919 101.158 292.901 101.158C314.219 101.158 333.127 110.413 344.954 124.658C344.005 125.38 343.056 126.102 342.18 126.956C336.266 132.667 334.222 140.61 335.901 148.487C342.545 148.881 349.261 146.715 354.08 142.054L354.664 141.463C356.708 147.174 357.803 153.213 357.803 159.581V160.959C355.54 159.384 352.912 158.268 349.992 157.546C340.939 155.38 331.74 158.399 326.192 164.636C329.696 169.231 334.733 172.579 340.793 174.023C345.903 175.27 351.087 174.942 355.978 173.432C352.036 187.874 342.18 200.215 328.82 208.223C327.944 206.057 326.703 204.022 325.023 202.184C320.132 196.736 312.466 194.11 304.509 194.438C303.268 199.69 304.582 205.401 308.597 209.864C310.422 211.834 312.612 213.475 315.022 214.525C308.962 216.494 302.611 217.676 295.894 217.939L283.191 217.348C264.574 214.853 248.586 205.204 238.657 191.747C241.504 191.353 244.279 190.565 246.834 189.318C254.573 185.642 259.318 178.749 260.559 170.806C254.427 168.509 247.272 168.574 241.066 171.594C237.051 173.498 233.912 176.386 231.868 179.734C229.385 173.366 227.925 166.605 227.925 159.581ZM275.525 105.95C272.021 109.823 269.977 114.549 270.123 119.604C270.269 126.628 274.43 132.929 281.001 137.065C285.6 133.586 288.447 128.4 288.301 122.689C288.155 115.14 282.972 108.707 275.525 105.95Z" fill="#74BE44"/>
<path d="M293.631 141.988C293.631 133.52 301.223 126.693 310.641 126.693C320.059 126.693 327.652 133.52 327.652 141.988C327.652 150.456 320.059 157.283 310.641 157.283C301.223 157.283 293.631 150.391 293.631 141.988Z" fill="#F9ED20"/>
<path d="M261.654 152.754C261.508 145.927 267.567 140.347 275.16 140.216C282.753 140.085 288.958 145.533 289.104 152.294C289.25 159.121 283.191 164.701 275.671 164.833C268.005 164.964 261.8 159.581 261.654 152.754Z" fill="#FBB62F"/>
<path d="M300.42 177.239C300.347 171.134 305.75 166.08 312.612 165.948C319.475 165.883 325.096 170.74 325.169 176.911C325.315 183.016 319.84 188.071 312.977 188.202C306.188 188.268 300.493 183.41 300.42 177.239Z" fill="#F9ED20"/>
<path d="M312.977 243.277H299.033V267.434C299.033 272.555 300.42 276.231 307.064 276.231C308.743 276.231 310.568 276.034 312.101 275.574V282.27C309.692 282.729 307.137 282.926 304.582 282.926C295.821 282.926 289.469 280.563 289.469 271.898V243.343H280.49V236.713H289.469V199.296L298.96 193.979V236.713H312.904V243.277H312.977Z" fill="#74BE44"/>
<path d="M24.0919 196.21H14.6011V281.154H24.0919V196.21Z" fill="#74BE44"/>
<path fill-rule="evenodd" clip-rule="evenodd" d="M66.3624 249.514H47.1617C47.1617 248.594 47.4538 247.61 47.8918 246.756C49.5709 243.343 53.0752 241.571 57.1636 241.571C62.493 241.571 66.3624 244.721 66.3624 249.514ZM75.9262 255.225V253.058C75.9262 242.621 70.0857 234.94 57.7476 234.94C43.2924 234.94 37.2329 244.196 37.2329 256.406C37.2329 271.307 44.3145 282.204 62.128 282.204C66.4354 282.204 70.4507 281.548 74.6851 280.694V273.933C71.5458 274.983 68.5525 275.574 65.1943 275.574C52.6372 275.574 46.7237 265.334 46.7237 255.225H75.9262V255.225Z" fill="#74BE44"/>
<path fill-rule="evenodd" clip-rule="evenodd" d="M152.437 281.154V249.842C152.437 241.833 148.932 234.94 138.784 234.94C131.922 234.94 126.957 239.076 124.548 244.525H124.329C123.307 238.42 118.416 234.94 111.553 234.94C104.253 234.94 99.7992 239.207 97.536 244.984H97.317V235.991H87.8262V281.154H97.317V261.986C97.317 256.406 100.383 243.474 108.779 243.474C114.473 243.474 115.13 247.085 115.349 251.286C115.422 253.058 115.422 254.765 115.422 256.472V281.154H124.913V259.491C124.913 254.306 128.71 243.474 136.01 243.474C141.851 243.474 142.654 246.822 142.873 251.286C143.019 252.993 143.019 254.765 143.019 256.472V281.154H152.437V281.154Z" fill="#74BE44"/>
<path fill-rule="evenodd" clip-rule="evenodd" d="M198.139 258.572C198.139 265.728 196.751 275.574 186.531 275.574C176.091 275.574 174.777 265.793 174.777 258.572C174.777 251.286 176.018 241.571 186.531 241.571C196.824 241.571 198.139 251.417 198.139 258.572ZM208.724 258.572C208.724 245.378 202.738 234.94 186.531 234.94C170.396 234.94 164.264 245.312 164.264 258.572C164.264 271.767 170.396 282.204 186.531 282.204C202.592 282.204 208.724 271.636 208.724 258.572Z" fill="#74BE44"/>
<path fill-rule="evenodd" clip-rule="evenodd" d="M259.756 281.154V249.842C259.756 241.964 256.325 234.94 246.25 234.94C238.219 234.94 233.182 239.207 230.262 245.706H230.116V235.991H220.552V281.154H230.116V261.986C230.116 255.356 234.131 243.474 243.403 243.474C248.878 243.474 249.9 246.625 250.192 250.892C250.265 252.796 250.265 254.699 250.265 256.472V281.154H259.756V281.154Z" fill="#74BE44"/>
<path fill-rule="evenodd" clip-rule="evenodd" d="M347.582 244.262V234.94C340.209 234.94 334.368 238.879 332.032 245.115H331.813V235.991H322.322V281.154H331.813V261.986C331.886 252.205 335.463 244.262 347.582 244.262Z" fill="#74BE44"/>
<path fill-rule="evenodd" clip-rule="evenodd" d="M382.99 249.514H363.789C363.789 248.594 364.081 247.61 364.519 246.756C366.199 243.343 369.63 241.571 373.791 241.571C379.121 241.571 382.99 244.721 382.99 249.514ZM392.554 255.225V253.058C392.554 242.621 386.713 234.94 374.375 234.94C359.92 234.94 353.934 244.196 353.934 256.406C353.934 271.307 361.015 282.204 378.829 282.204C383.136 282.204 387.151 281.548 391.386 280.694V273.933C388.173 274.983 385.253 275.574 381.895 275.574C369.338 275.574 363.424 265.334 363.424 255.225H392.554V255.225Z" fill="#74BE44"/>
<path fill-rule="evenodd" clip-rule="evenodd" d="M429.86 249.514H410.659C410.659 248.594 410.951 247.61 411.389 246.756C413.068 243.343 416.573 241.571 420.661 241.571C425.991 241.571 429.86 244.721 429.86 249.514ZM439.424 255.225V253.058C439.424 242.621 433.583 234.94 421.245 234.94C406.79 234.94 400.73 244.196 400.73 256.406C400.73 271.307 407.812 282.204 425.699 282.204C430.006 282.204 434.021 281.548 438.256 280.694V273.933C435.043 274.983 432.123 275.574 428.765 275.574C416.208 275.574 410.294 265.334 410.294 255.225H439.424V255.225Z" fill="#74BE44"/>
<path d="M446.068 230.477C442.928 230.542 440.373 232.84 440.446 235.728C440.519 238.551 443.074 240.848 446.214 240.783C449.353 240.717 451.908 238.42 451.835 235.531C451.762 232.709 449.207 230.477 446.068 230.477ZM446.068 229.755C449.645 229.689 452.638 232.249 452.638 235.531C452.711 238.748 449.864 241.439 446.214 241.439C442.636 241.505 439.643 238.879 439.643 235.663C439.57 232.512 442.417 229.82 446.068 229.755Z" fill="#74BE44"/>
<path fill-rule="evenodd" clip-rule="evenodd" d="M447.893 232.643L448.55 233.037L448.915 233.562L448.988 234.218L448.769 235.072L447.966 235.663L448.623 236.122L448.842 237.041V237.435L448.915 238.026L449.134 238.354V238.551H447.601L447.528 238.223L447.455 237.698V237.107L447.235 236.319L446.359 236.122H444.899V238.551H443.512V232.446H446.797L447.893 232.643ZM444.899 233.562V235.203H446.505L447.235 235.137L447.674 234.481L447.235 233.693L446.505 233.628H444.899V233.562Z" fill="#74BE44"/>
</svg>
