<svg width="507" height="495" viewBox="0 0 507 495" fill="none" xmlns="http://www.w3.org/2000/svg">
<g clip-path="url(#clip0_7_312)">
<path fill-rule="evenodd" clip-rule="evenodd" d="M0 0.621094H506.364V495H0V0.621094Z" fill="white"/>
<path fill-rule="evenodd" clip-rule="evenodd" d="M183.711 109.934H312.883V236.059H183.711V109.934Z" fill="#0B5A95"/>
<path fill-rule="evenodd" clip-rule="evenodd" d="M234.044 170.787C225.784 170.787 216.466 179.483 216.466 191.576C216.466 200.112 220.684 209.619 223.126 213.437C220.335 216.152 220.13 217.825 220.13 220.43H248.667C247.836 220.43 246.173 218.306 246.173 216.352C246.173 215.06 246.922 213.677 246.922 213.186C245.178 210.912 242.182 209.209 239.349 209.209C238.436 209.209 236.353 209.459 236.353 209.459C236.353 209.459 235.45 208.187 235.45 206.073C235.45 203.348 237.441 201.324 240.437 198.409C240.437 197.046 240.324 195.834 240.119 194.782L240.129 194.812C240.129 194.812 245.178 192.798 248.667 192.798C252.166 192.798 256.63 192.878 256.63 192.878L256.619 192.858C256.773 194.291 256.825 195.904 256.825 197.918C264.151 205.071 268.636 213.927 268.636 220.43H281.596V220.4C281.791 221.612 281.996 222.453 281.996 222.453C284.459 222.453 286.624 220.43 286.624 220.43C286.624 213.927 282.786 208.728 277.317 208.728C272.658 204.179 273.325 192.588 273.325 187.639C277.183 183.862 279.851 178.131 279.851 170.707C279.851 163.283 276.188 156.851 276.188 156.851L279.318 153.786C279.318 153.786 272.381 144.148 272.381 136.854C272.381 136.854 274.782 134.52 274.782 131.514C274.782 128.529 272.381 125.794 272.381 125.794L269.18 128.92C269.18 128.92 263.454 127.096 260.509 127.096C257.574 127.096 255.583 128.789 255.583 130.092C255.583 130.092 252.915 129.3 251.448 129.3C248.513 129.3 246.245 131.514 246.245 135.682L249.293 136.353L249.231 136.343C249.231 136.343 248.995 137.666 248.995 139.098C248.995 141.964 251.263 144.178 255.521 144.178C255.521 147.534 255.521 149.979 253.079 152.974L253.089 152.984L248.061 149.408C248.061 137.465 240.047 133.438 236.928 133.438C230.945 133.438 222.182 134.149 215.717 134.149C209.252 134.149 204.45 132.837 201.177 131.384C201.177 131.384 200.079 133.288 200.079 135.041C200.079 137.485 201.238 139.068 202.89 140.03V139.97C202.89 141.603 203.444 144.599 206.472 146.152L206.348 146.091C206.348 148.997 208.349 152.543 213.265 152.543H213.018C213.018 154.457 215.758 158.154 223.003 158.154C223.044 158.154 223.095 158.154 223.146 158.154H223.003C223.003 160.428 224.573 163.844 229.775 163.844C229.816 163.844 229.857 163.844 229.899 163.844H229.775C229.775 165.978 230.463 168.744 233.839 169.305L233.695 169.285C233.695 169.675 233.818 170.216 234.065 170.817L234.044 170.787Z" fill="#BE9334"/>
<path fill-rule="evenodd" clip-rule="evenodd" d="M269.139 128.899L270.206 130.793L271.581 128.519L272.381 125.794L269.139 128.899Z" fill="#846926"/>
<path fill-rule="evenodd" clip-rule="evenodd" d="M271.581 128.519C271.581 128.519 273.458 129.961 273.458 133.408C273.458 136.864 270.944 137.495 270.944 137.495L272.381 136.854C272.381 136.854 274.782 134.47 274.782 131.514C274.782 128.579 272.381 125.794 272.381 125.794L271.581 128.519Z" fill="#F3DFBD"/>
<path fill-rule="evenodd" clip-rule="evenodd" d="M270.944 137.495C270.944 142.835 272.083 148.396 275.778 154.617L279.318 153.786C279.318 153.786 272.381 144.168 272.381 136.854L270.944 137.495Z" fill="#846926"/>
<path fill-rule="evenodd" clip-rule="evenodd" d="M275.778 154.617L272.812 157.703L276.188 156.851L279.318 153.786L275.778 154.617Z" fill="#F3DFBD"/>
<path fill-rule="evenodd" clip-rule="evenodd" d="M272.812 157.703C272.812 157.703 277.204 163.314 277.204 171.268C277.204 178.021 273.325 181.237 273.325 181.237V187.639C273.325 187.639 279.851 182.139 279.851 170.707C279.851 163.243 276.188 156.852 276.188 156.852L272.812 157.703Z" fill="#846926"/>
<path fill-rule="evenodd" clip-rule="evenodd" d="M273.325 187.639C273.325 191.576 271.714 206.975 276.496 211.653L277.317 208.728C275.901 207.355 272.843 203.879 273.325 187.639Z" fill="#F3DFBD"/>
<path fill-rule="evenodd" clip-rule="evenodd" d="M276.496 211.653C279.154 211.653 284.387 210.742 284.387 219.608L286.624 220.309C286.624 215.38 283.73 208.728 277.317 208.728L276.496 211.653Z" fill="#F3DFBD"/>
<path fill-rule="evenodd" clip-rule="evenodd" d="M284.387 219.608L281.996 222.453C281.996 222.453 284.264 222.604 286.624 220.309L284.387 219.608Z" fill="#846926"/>
<path fill-rule="evenodd" clip-rule="evenodd" d="M284.387 219.608C283.32 217.464 282.304 214.609 278.415 214.609L281.216 216.202C281.216 216.202 281.504 221.472 281.996 222.453L284.387 219.608Z" fill="#F3DFBD"/>
<path fill-rule="evenodd" clip-rule="evenodd" d="M278.415 214.609L281.381 218.506L281.216 216.202L278.415 214.609Z" fill="#846926"/>
<path fill-rule="evenodd" clip-rule="evenodd" d="M281.38 218.506H271.263L268.667 220.38H281.575L281.38 218.506Z" fill="#846926"/>
<path fill-rule="evenodd" clip-rule="evenodd" d="M268.543 218.506H246.789C247.312 219.478 248.369 220.38 248.369 220.38H268.667L268.543 218.506Z" fill="#846926"/>
<path fill-rule="evenodd" clip-rule="evenodd" d="M268.666 220.379C268.666 210.481 259.4 200.432 256.825 197.918L259.308 197.908C266.901 203.127 271.263 212.655 271.263 218.506L268.666 220.379Z" fill="#846926"/>
<path fill-rule="evenodd" clip-rule="evenodd" d="M259.308 197.908C259.308 190.875 257.04 187.078 253.911 184.032C253.911 184.032 256.825 188.28 256.825 197.918L259.308 197.908Z" fill="#F3DFBD"/>
<path fill-rule="evenodd" clip-rule="evenodd" d="M255.778 188.771C251.735 188.771 242.305 191.185 239.821 193.61L240.088 194.822C240.088 194.822 242.479 192.858 256.537 192.858C256.537 192.858 256.158 190.003 255.778 188.771Z" fill="#846926"/>
<path fill-rule="evenodd" clip-rule="evenodd" d="M223.793 190.444H224.614C226.102 189.773 229.365 188.901 232.095 188.901C234.824 188.901 237.554 190.815 237.554 197.527L240.437 198.409C240.437 198.409 240.642 187.689 233.582 187.689C226.512 187.689 223.793 190.444 223.793 190.444Z" fill="#F3DFBD"/>
<path fill-rule="evenodd" clip-rule="evenodd" d="M237.553 197.527C237.553 197.527 233.993 200.833 233.993 204.781C233.993 207.035 235.183 208.948 235.183 208.948L236.353 209.459C236.353 209.459 235.45 208.197 235.45 205.812C235.45 202.807 239.79 199.03 240.437 198.409L237.553 197.527Z" fill="#846926"/>
<path fill-rule="evenodd" clip-rule="evenodd" d="M236.353 209.459C236.353 209.459 242.243 210.391 245.034 213.877L246.922 213.186C246.922 213.186 243.936 209.209 239.349 209.209C238.149 209.209 236.353 209.459 236.353 209.459Z" fill="#F3DFBD"/>
<path fill-rule="evenodd" clip-rule="evenodd" d="M245.034 213.877C245.034 213.877 243.782 216.652 244.614 218.165L248.369 220.379C248.369 220.379 246.173 218.506 246.173 216.602C246.173 214.679 246.922 213.186 246.922 213.186L245.034 213.877Z" fill="#846926"/>
<path fill-rule="evenodd" clip-rule="evenodd" d="M244.613 218.166L243.762 220.38H248.369L244.613 218.166Z" fill="#F3DFBD"/>
<path fill-rule="evenodd" clip-rule="evenodd" d="M241.073 212.294C241.073 212.294 243.218 214.038 243.598 214.418L241.997 215.09C241.997 215.09 241.812 213.557 241.073 212.294Z" fill="#F3DFBD"/>
<path fill-rule="evenodd" clip-rule="evenodd" d="M241.997 215.09C241.997 215.09 240.755 217.123 241.053 218.506L243.762 220.38C243.762 220.38 242.849 219.087 242.849 217.584C242.849 216.072 243.598 214.418 243.598 214.418L241.997 215.09Z" fill="#846926"/>
<path fill-rule="evenodd" clip-rule="evenodd" d="M241.053 218.506L240.273 220.38H243.762L241.053 218.506Z" fill="#F3DFBD"/>
<path fill-rule="evenodd" clip-rule="evenodd" d="M238.559 213.897L240.581 215.641L239.093 216.072L238.559 213.897Z" fill="#F3DFBD"/>
<path fill-rule="evenodd" clip-rule="evenodd" d="M239.093 216.071C239.093 216.071 238.087 217.464 238.087 218.686L240.273 220.379C240.273 220.379 239.832 219.808 239.832 218.817C239.832 217.815 240.581 215.641 240.581 215.641L239.093 216.071Z" fill="#846926"/>
<path fill-rule="evenodd" clip-rule="evenodd" d="M238.087 218.687H221.823L220.129 220.38H240.273L238.087 218.687Z" fill="#846926"/>
<path fill-rule="evenodd" clip-rule="evenodd" d="M221.823 218.686C221.823 218.686 223.167 215.721 225.989 214.619L223.126 213.437C223.126 213.437 220.129 215.05 220.129 220.379L221.823 218.686Z" fill="#F3DFBD"/>
<path fill-rule="evenodd" clip-rule="evenodd" d="M236.394 173.623C232.146 173.623 218.498 177.039 218.498 191.496C218.498 205.963 225.989 214.619 225.989 214.619L223.126 213.437C218.498 206.123 216.466 195.964 216.466 191.576C216.466 181.187 224.398 170.787 234.044 170.787C234.044 170.787 235.029 172.671 236.394 173.623Z" fill="#F3DFBD"/>
<path fill-rule="evenodd" clip-rule="evenodd" d="M255.583 130.092L255.85 130.973C255.85 130.973 256.353 128.238 260.632 128.238C264.911 128.238 270.206 130.793 270.206 130.793L269.138 128.9C269.138 128.9 263.433 127.096 260.509 127.096C257.584 127.096 255.583 128.709 255.583 130.092Z" fill="#F3DFBD"/>
<path fill-rule="evenodd" clip-rule="evenodd" d="M255.85 130.973C255.85 130.973 254.608 130.683 253.88 130.683C253.141 130.683 249.837 131.434 249.231 136.343L246.245 135.682C246.245 133.618 247.138 129.31 251.263 129.31C253.141 129.31 255.583 130.092 255.583 130.092L255.85 130.973Z" fill="#F3DFBD"/>
<path fill-rule="evenodd" clip-rule="evenodd" d="M260.457 132.717L258.959 133.588L266.378 133.999L260.457 132.717Z" fill="#F3DFBD"/>
<path fill-rule="evenodd" clip-rule="evenodd" d="M258.959 133.588C258.959 132.737 259.01 130.743 261.873 130.743C264.736 130.743 266.378 133.999 266.378 133.999C266.378 133.999 264.038 131.464 261.832 131.464C260.857 131.464 260.457 132.366 260.457 132.717L258.959 133.588Z" fill="#846926"/>
<path fill-rule="evenodd" clip-rule="evenodd" d="M249.231 136.343L251.684 138.688L260.509 138.808L249.231 136.343Z" fill="#846926"/>
<path fill-rule="evenodd" clip-rule="evenodd" d="M251.684 138.688C251.684 139.79 251.509 144.118 258.087 144.118H255.521C255.521 144.118 248.995 144.418 248.995 139.299C248.995 138.277 249.344 137.646 249.344 137.646L251.684 138.688Z" fill="#F3DFBD"/>
<path fill-rule="evenodd" clip-rule="evenodd" d="M258.087 144.118C258.087 146.051 257.03 151.231 254.033 153.665L253.079 152.974L253.141 152.894C253.962 151.762 255.521 150.259 255.521 144.118H258.087Z" fill="#846926"/>
<path fill-rule="evenodd" clip-rule="evenodd" d="M259.585 157.623L261.196 160.628C261.196 160.628 263.115 157.643 267.291 157.643C267.291 157.643 265.372 156.551 262.53 156.551C260.929 156.551 259.585 157.623 259.585 157.623Z" fill="#F3DFBD"/>
<path fill-rule="evenodd" clip-rule="evenodd" d="M261.196 160.629L246.666 150.159L248.062 149.408L259.585 157.623L261.196 160.629Z" fill="#F3DFBD"/>
<path fill-rule="evenodd" clip-rule="evenodd" d="M261.073 166.239L241.945 152.533L243.392 151.782L260.231 163.664L261.073 166.239Z" fill="#F3DFBD"/>
<path fill-rule="evenodd" clip-rule="evenodd" d="M246.666 150.159C246.666 145.33 244.255 136.013 233.829 136.013L204.122 136.073L201.177 131.384C203.681 132.356 209.509 134.149 216.374 134.149C226.297 134.149 229.468 133.458 236.569 133.458C241.504 133.458 248.062 138.848 248.062 149.408L246.666 150.159Z" fill="#F3DFBD"/>
<path fill-rule="evenodd" clip-rule="evenodd" d="M204.122 136.073C204.122 137.956 206.81 139.118 212.669 139.118C218.539 139.118 230.709 139.118 232.392 139.118C234.886 139.118 243.392 139.028 243.392 151.782L241.946 152.533C241.946 147.043 240.334 140.641 232.125 140.641C223.906 140.641 212.977 141.363 208.585 141.363C204.183 141.363 200.089 139.519 200.089 135.351C200.089 133.338 201.177 131.384 201.177 131.384L204.122 136.073Z" fill="#846926"/>
<path fill-rule="evenodd" clip-rule="evenodd" d="M202.89 140.03C202.89 143.266 204.871 147.113 210.361 147.113C215.85 147.113 231.037 146.582 232.454 146.582C233.89 146.582 241.945 147.544 241.945 152.534C241.945 152.534 241.874 144.849 232.577 144.849C223.28 144.849 207.282 146.412 207.282 141.303C206.728 141.303 204.132 140.852 202.89 140.03Z" fill="#846926"/>
<path fill-rule="evenodd" clip-rule="evenodd" d="M206.472 146.272C206 148.446 208.247 152.543 213.265 152.543C218.293 152.543 241.946 152.533 241.946 152.533C241.946 152.533 225.897 151.852 222.469 151.552C219.032 151.251 211.264 150.84 211.264 147.143C211.264 147.143 208.175 147.213 206.472 146.272Z" fill="#846926"/>
<path fill-rule="evenodd" clip-rule="evenodd" d="M213.049 152.543C213.049 155.208 216.692 158.154 223.147 158.154C234.64 158.154 246.84 156.03 246.84 156.03L244.234 154.176C244.234 154.176 240.129 157.222 227.713 157.222C218.847 157.222 217.164 154.457 217.164 152.543H213.049Z" fill="#846926"/>
<path fill-rule="evenodd" clip-rule="evenodd" d="M222.972 158.154C222.972 161.6 225.979 163.844 229.899 163.844C239.196 163.844 251.202 159.166 251.202 159.166L248.862 157.463C248.862 157.463 243.126 162.582 233.511 162.582C230.145 162.582 226.954 161.25 226.954 158.074L222.972 158.154Z" fill="#846926"/>
<path fill-rule="evenodd" clip-rule="evenodd" d="M229.775 163.834C229.775 163.834 229.129 169.405 235.132 169.405C243.372 169.405 254.998 161.871 254.998 161.871L252.894 160.358C252.894 160.358 244.069 168.182 238.631 168.182C234.762 168.182 233.203 166.95 233.203 163.664L229.775 163.834Z" fill="#846926"/>
<path fill-rule="evenodd" clip-rule="evenodd" d="M235.132 169.405C234.619 169.405 233.747 169.285 233.747 169.285C233.747 169.685 233.767 170.246 234.054 170.777C235.019 172.591 236.63 174.815 240.673 174.815C250.052 174.815 258.59 164.456 258.59 164.456L256.804 163.173C256.804 163.173 251.427 173.853 241.751 173.853C239.503 173.853 236.692 172.4 236.692 169.325C236.692 169.325 235.635 169.405 235.132 169.405Z" fill="#846926"/>
<path fill-rule="evenodd" clip-rule="evenodd" d="M241.053 174.805C241.053 174.805 242.961 177.73 249.005 177.73C255.039 177.73 261.073 170.747 261.073 166.239L259.564 165.157C259.564 165.157 259.287 176.167 249.18 176.167C246.625 176.167 245.106 174.094 245.106 174.094C245.106 174.094 242.674 174.805 241.053 174.805Z" fill="#846926"/>
<path fill-rule="evenodd" clip-rule="evenodd" d="M304.141 118.4L304.736 117.819H191.89V228.174L192.485 227.583V118.4H304.141Z" fill="#F3DFBD"/>
<path fill-rule="evenodd" clip-rule="evenodd" d="M304.141 118.4H192.485V227.583L304.141 227.623V118.4ZM303.279 226.771C302.591 226.771 194.64 226.751 193.942 226.751C193.942 226.721 193.942 226.521 193.942 226.17C193.594 226.17 193.388 226.17 193.347 226.17C193.347 225.499 193.347 119.913 193.347 119.241C194.035 119.241 301.986 119.241 302.684 119.241C302.684 119.272 302.684 119.472 302.684 119.823C303.032 119.823 303.238 119.823 303.279 119.823C303.279 120.494 303.279 226.1 303.279 226.771Z" fill="#DBB23D"/>
<path fill-rule="evenodd" clip-rule="evenodd" d="M302.683 226.2C302.016 226.2 200.91 226.17 193.942 226.17C193.942 226.17 193.347 226.721 193.347 226.751C194.035 226.751 302.591 226.771 303.279 226.771C303.279 226.1 303.279 119.913 303.279 119.241C303.238 119.241 302.683 119.823 302.683 119.823C302.683 126.585 302.683 225.549 302.683 226.2Z" fill="#F3DFBD"/>
<path fill-rule="evenodd" clip-rule="evenodd" d="M304.141 118.4V227.623L192.485 227.583L191.89 228.174L304.736 228.194V117.819L304.141 118.4Z" fill="#AA8D33"/>
<path fill-rule="evenodd" clip-rule="evenodd" d="M302.683 119.823C302.683 119.823 303.279 119.272 303.279 119.241C302.591 119.241 194.035 119.241 193.347 119.241C193.347 119.913 193.347 226.07 193.347 226.751C193.388 226.751 193.942 226.17 193.942 226.17C193.942 219.408 193.942 120.474 193.942 119.823C194.609 119.823 295.716 119.823 302.683 119.823Z" fill="#AA8D33"/>
<path fill-rule="evenodd" clip-rule="evenodd" d="M311.57 111.207L312.893 109.934H183.711V236.089L185.025 234.796V111.207H311.57Z" fill="#F3DFBD"/>
<path fill-rule="evenodd" clip-rule="evenodd" d="M311.57 111.207H185.025V234.796L311.57 234.836V111.207ZM310.595 233.875C309.815 233.875 187.467 233.844 186.677 233.844C186.677 233.814 186.677 233.584 186.677 233.193C186.277 233.193 186.051 233.193 186.01 233.193C186.01 232.432 186.01 112.92 186.01 112.158C186.79 112.158 309.138 112.158 309.918 112.158C309.918 112.198 309.918 112.429 309.918 112.82C310.318 112.82 310.554 112.82 310.595 112.82C310.595 113.581 310.595 233.113 310.595 233.875Z" fill="#DBB23D"/>
<path fill-rule="evenodd" clip-rule="evenodd" d="M309.918 233.223C309.179 233.223 194.568 233.193 186.677 233.193C186.677 233.193 186.01 233.815 186.01 233.845C186.79 233.845 309.815 233.875 310.595 233.875C310.595 233.113 310.595 112.92 310.595 112.158C310.554 112.158 309.918 112.82 309.918 112.82C309.918 120.484 309.918 232.492 309.918 233.223Z" fill="#F3DFBD"/>
<path fill-rule="evenodd" clip-rule="evenodd" d="M311.57 111.207V234.836L185.025 234.796L183.711 236.089L312.883 236.109V109.934L311.57 111.207Z" fill="#AA8D33"/>
<path fill-rule="evenodd" clip-rule="evenodd" d="M309.918 112.82C309.918 112.82 310.595 112.199 310.595 112.158C309.815 112.158 186.79 112.158 186.01 112.158C186.01 112.92 186.01 233.083 186.01 233.845C186.051 233.845 186.677 233.193 186.677 233.193C186.677 225.529 186.677 113.551 186.677 112.82C187.426 112.82 302.027 112.82 309.918 112.82Z" fill="#AA8D33"/>
<path fill-rule="evenodd" clip-rule="evenodd" d="M43.6627 268.649C41.0461 268.809 36.5515 269.05 34.8584 269.05L24.9253 268.649C24.9253 268.649 24.8739 268.649 24.8637 268.659C24.7098 268.679 24.6687 268.82 24.6071 268.95C24.5866 268.99 24.5045 268.99 24.5045 269.04C24.5045 269.05 24.5045 269.06 24.5045 269.06C24.5045 269.08 24.5045 269.1 24.5148 269.13L24.7919 270.753L25.1613 270.723C26.1772 270.663 29.1222 270.693 30.4665 271.645C31.8928 272.687 32.3956 274.63 32.3956 292.283V305.137C32.3956 320.025 30.056 322.239 28.6707 322.239L27.7882 321.948L26.7723 321.638C26.1156 321.638 22.3394 323.391 22.3394 324.583C22.3394 325.415 23.7144 326.376 24.9253 326.376C29.9226 326.376 35.2791 319.073 37.5674 315.957L37.6495 315.857L37.7213 315.647L37.8547 311.308L37.7213 293.195V288.236L37.8547 278.758C37.9163 271.344 38.4191 271.094 43.7859 270.723L44.1963 270.693L44.0835 268.629L43.6627 268.649Z" fill="#0B5A95"/>
<path fill-rule="evenodd" clip-rule="evenodd" d="M98.5205 268.98H94.4364L94.9084 270.853L95.442 270.873C98.4384 270.964 101.209 271.495 101.209 274.56C101.209 277.155 96.6631 290.41 91.5632 302.733C88.8747 296.361 81.0554 275.522 81.0554 273.168C81.0554 273.158 81.0554 273.148 81.0554 273.138C81.0554 272.256 81.1272 271.324 85.7859 270.793L86.1759 270.753L86.063 268.81L85.6423 268.85C82.4407 269.06 78.7979 269.18 74.7959 269.18L70.5579 269.06L69.7062 269.02L69.9217 271.174L70.2911 271.194C71.3993 271.254 72.6718 271.444 73.7184 272.817C74.252 273.528 75.155 275.552 77.546 280.962C77.546 280.962 77.8949 281.734 78.0077 281.994C77.8641 282.315 72.3023 294.427 72.3023 294.427L71.2864 296.802L69.8704 300.048C69.8601 300.078 69.2547 301.601 68.8545 302.612C66.833 297.914 58.2338 275.452 58.2338 273.238C58.2338 271.885 61.2404 271.204 63.2825 271.054L63.7135 271.024L63.4877 268.98H60.7376C60.7068 268.98 54.9604 269.11 54.9604 269.11L50.2709 269.01L49.3268 268.98L46.1766 268.85C46.0534 268.85 46.0432 268.98 45.9713 269.06C45.8995 269.13 45.7764 269.13 45.7764 269.24L45.8585 270.994H46.2587C47.921 270.994 50.1888 270.994 51.9435 274.16C54.0369 277.977 58.3364 290.35 60.9223 297.743L62.441 302.091L66.4122 313.312H67.9002L68.6595 311.018C69.9832 307.051 71.4712 302.562 73.8929 297.222L77.4228 289.458C77.4228 289.448 78.9826 286.162 78.9826 286.162C78.9826 286.162 79.1468 285.831 79.3007 285.511C79.9061 287.144 84.5238 299.517 84.5238 299.517L87.2841 307.632L89.1517 313.232L89.439 313.242L90.7833 313.332L92.1481 309.375L94.2825 303.564C95.9243 299.376 96.2116 298.595 96.2629 298.395C96.2629 298.415 96.2629 298.445 96.2629 298.445L102.851 280.601C105.857 272.547 107.448 271.154 111.05 270.793L111.409 270.763L111.522 268.83L108.413 268.92C103.856 269.05 101.25 269.04 98.5205 268.98Z" fill="#0B5A95"/>
<path fill-rule="evenodd" clip-rule="evenodd" d="M181.187 301.15L180.818 291.602L180.787 290.47L180.582 281.453C180.551 280.341 180.541 279.349 180.541 278.477C180.541 271.585 181.433 271.474 186.256 270.933L186.605 270.883L186.718 268.92H176.364L176.241 269.15C175.081 271.695 170.577 279.89 167.293 285.861L163.548 292.754C160.982 297.593 160.141 299.106 159.053 300.919C145.805 276.784 145.262 275.792 142.85 269.381L142.758 269.11H139.525L134.743 268.92C134.723 268.92 130.362 268.679 130.362 268.679L129.582 268.629L129.541 269.02L129.356 270.703L129.797 270.723C134.969 271.004 137.278 272.186 137.278 278.477L137.206 280.401L137.134 281.573L136.129 298.485C135.585 307.201 135.493 308.774 129.479 309.846L129.151 309.906L129.028 311.599L136.139 311.389C136.149 311.389 140.151 311.318 140.151 311.318L142.224 311.389L145.21 311.619L145.251 311.198L145.354 309.746L144.943 309.705C139.433 309.124 139.207 307.962 139.207 305.137C139.207 299.517 139.474 290.269 140.726 277.977C141.711 279.86 151.459 298.374 151.459 298.374C154.394 303.855 155.923 308.473 156.662 310.697L156.826 311.188H158.458L158.56 310.898C159.453 307.942 160.921 304.846 162.47 301.58L162.675 301.14C164.994 296.411 169.951 287.384 173.245 281.403C173.245 281.403 174.404 279.279 175.04 278.117C175.461 281.924 175.543 283.807 175.666 287.314L175.933 296.06C175.933 296.07 175.995 300.038 175.995 300.038C175.995 307.802 174.671 308.453 170.074 309.515L169.745 309.595L169.848 311.579L170.628 311.479C171.623 311.349 172.865 311.188 176.559 311.188H187.108V309.185L186.687 309.175C181.987 309.124 181.526 308.443 181.187 301.15Z" fill="#0B5A95"/>
<path fill-rule="evenodd" clip-rule="evenodd" d="M226.43 308.093C225.004 306.229 222.51 299.817 220.499 294.668L220.027 293.445C220.027 293.445 213.029 275.221 213.029 275.211L212.844 274.7C212.238 273.057 211.715 271.645 210.792 268.349L210.71 268.058H208.986L208.903 268.349C207.6 272.937 205.456 277.766 203.557 282.024L203.342 282.485C203.342 282.495 198.047 294.908 198.047 294.908C196.98 297.753 192.947 306.98 191.438 308.203C191.315 308.333 190.34 309.215 188.555 309.655L188.237 309.726V311.419L188.688 311.389C190.063 311.278 192.177 311.128 194.702 311.128C197.585 311.128 199.247 311.339 200.715 311.519L201.71 311.639V309.756L201.351 309.706C196.405 309.004 196.405 307.792 196.405 307.001C196.405 306.229 196.733 305.398 198.016 302.452C198.016 302.442 199.935 297.743 200.366 296.701C202.326 296.381 205.189 296.271 206.985 296.331H209.642C211.5 296.331 213.747 296.341 215.594 296.581C215.768 297.032 217.944 302.823 217.944 302.823C218.241 303.464 219.411 306.65 219.411 307.862C219.411 308.934 217.934 309.295 216.425 309.585L216.087 309.645V311.489L217.246 311.399C218.58 311.309 221.084 311.128 224.378 311.128C227.128 311.128 228.205 311.188 229.58 311.319L230.032 311.369V309.415L229.662 309.375C228.37 309.245 227.077 309.004 226.43 308.093ZM207.097 280.301C207.097 280.301 207.652 278.998 208.042 278.107C208.862 279.9 210.412 283.337 210.74 284.258C210.751 284.268 213.121 290.229 213.121 290.229C213.141 290.269 214.363 293.435 214.363 293.435C214.363 293.435 214.393 293.545 214.414 293.606C213.542 293.626 210.053 293.716 210.053 293.716C210.043 293.716 206.995 293.786 206.995 293.786C206.872 293.786 204.163 293.766 201.813 293.455C202.049 292.864 202.459 291.892 202.459 291.892L202.634 291.412L206.369 282.004L206.359 282.034L207.097 280.301Z" fill="#0B5A95"/>
<path fill-rule="evenodd" clip-rule="evenodd" d="M274.516 311.238C267.948 310.778 261.627 301.46 255.511 292.444C255.511 292.444 254.721 291.291 254.3 290.67C259.944 288.476 263.331 284.429 263.331 279.74C263.331 274.029 258.118 268.249 248.174 268.249C247.169 268.249 244.439 268.459 241.792 268.659L236.076 269.05L231.233 268.97L231.171 269.311L231.089 269.932L230.986 270.803L231.397 270.863C235.686 271.424 235.85 271.444 235.789 283.918V298.244C235.727 308.744 234.875 308.974 232.628 309.595C231.458 309.906 230.956 310.036 230.956 310.838C230.956 311.268 231.253 311.719 232.064 311.719L234.804 311.519C234.824 311.519 239.267 311.319 239.267 311.319L242.684 311.589L243.988 311.709L245.517 311.85C245.937 311.85 246.409 311.569 246.409 310.768C246.409 310.257 246.03 310.136 245.609 309.996L245.383 309.926C242.387 309.135 242.274 309.034 241.812 308.083C241.104 306.419 241.043 300.278 241.043 298.435C241.043 298.435 241.094 292.744 241.114 291.131C243.31 291.402 245.393 291.482 247.743 291.482C247.969 291.802 251.417 296.621 251.417 296.621C257.44 305.067 264.1 313.312 273.366 313.312C274.803 313.312 275.49 313.162 275.49 312.31C275.49 311.489 274.936 311.309 274.516 311.238ZM257.461 280.541C257.461 284.368 255.511 288.947 246.266 288.947C243.485 288.947 242.11 288.677 241.32 288.496C241.32 282.996 241.33 273.228 242.028 271.745C242.366 270.913 245.219 270.473 247.076 270.473C254.855 270.473 257.461 277.386 257.461 280.541Z" fill="#0B5A95"/>
<path fill-rule="evenodd" clip-rule="evenodd" d="M319.84 311.238C313.252 310.778 306.931 301.46 300.826 292.444C300.826 292.444 300.036 291.291 299.605 290.67C305.259 288.476 308.635 284.429 308.635 279.74C308.635 274.029 303.422 268.249 293.479 268.249C292.483 268.249 289.743 268.459 287.096 268.659L281.39 269.05L276.547 268.97L276.496 269.311L276.403 269.932L276.301 270.803L276.711 270.863C281.001 271.424 281.165 271.444 281.103 283.918V298.244C281.031 308.744 280.19 308.974 277.943 309.595C276.763 309.906 276.28 310.036 276.28 310.838C276.28 311.268 276.557 311.719 277.378 311.719L280.118 311.519C280.139 311.519 284.582 311.319 284.582 311.319L288.009 311.589L289.302 311.709L290.831 311.85C291.262 311.85 291.724 311.569 291.724 310.768C291.724 310.257 291.344 310.136 290.913 309.996L290.687 309.926C287.691 309.135 287.588 309.034 287.137 308.083C286.644 306.97 286.357 303.354 286.357 298.435C286.357 298.435 286.408 292.744 286.419 291.131C288.625 291.402 290.708 291.482 293.048 291.482C293.284 291.802 296.742 296.621 296.742 296.621C302.765 305.067 309.415 313.312 318.681 313.312C320.117 313.312 320.805 313.162 320.805 312.31C320.805 311.489 320.251 311.309 319.84 311.238ZM302.765 280.541C302.765 284.368 300.836 288.947 291.57 288.947C288.799 288.947 287.424 288.677 286.624 288.496C286.624 282.996 286.644 273.228 287.332 271.745C287.671 270.913 290.544 270.473 292.381 270.473C300.159 270.473 302.765 277.386 302.765 280.541Z" fill="#0B5A95"/>
<path fill-rule="evenodd" clip-rule="evenodd" d="M334.586 304.726C334.586 304.666 334.453 293.405 334.453 293.405C334.453 293.576 334.35 293.716 334.196 293.776C334.35 293.706 334.453 293.566 334.453 293.405V287.624C334.453 276.524 335.028 273.128 335.5 272.236C336.044 271.274 336.905 270.933 340.692 270.933H341.113V268.629L337.152 268.759L336.331 268.779C336.31 268.779 331.518 268.98 331.518 268.98L326.983 268.85C326.993 268.85 322.283 268.649 322.283 268.649L321.852 268.629L321.862 269.06V270.793L322.273 270.803C328.327 270.923 328.594 271.945 328.727 276.233C328.727 276.243 328.819 278.748 328.819 278.748L329.055 290.159C329.055 293.616 329.055 304.145 328.07 306.93C327.598 308.273 326.921 309.185 321.852 309.445L321.421 309.465L321.554 311.469L325.443 311.379L331.518 311.258L340.671 311.469L340.702 311.088L340.887 309.385L340.425 309.375C334.751 309.255 334.73 308.563 334.586 304.726ZM334.032 293.816C334.084 293.816 334.114 293.796 334.155 293.786C334.114 293.796 334.094 293.806 334.032 293.816Z" fill="#0B5A95"/>
<path fill-rule="evenodd" clip-rule="evenodd" d="M363.852 267.918C351.179 267.918 340.477 278.037 340.477 290.019C340.477 298.936 347.536 312.12 362.703 312.12C375.848 312.12 386.15 302.352 386.15 289.879C386.15 276.314 374.586 267.918 363.852 267.918ZM365.556 308.974C355.274 308.974 346.274 298.976 346.274 287.564C346.274 276.694 354.053 270.994 361.749 270.994C371.969 270.994 380.281 280.632 380.281 292.474C380.281 303.815 372.646 308.974 365.556 308.974Z" fill="#0B5A95"/>
<path fill-rule="evenodd" clip-rule="evenodd" d="M428.223 268.94L427.196 267.998L426.827 268.289C426.283 268.87 426.129 269.05 424.323 269.05L416.371 269.18H399.593C394.093 269.18 391.497 269.11 389.999 268.92C388.685 268.75 388.367 268.469 387.731 267.898L387.105 267.337L386.9 267.938L384.119 275.612C384.108 275.622 384.108 275.632 384.108 275.662H384.098C384.088 275.692 384.088 275.733 384.088 275.763C384.088 275.793 384.139 275.803 384.149 275.833C384.191 275.963 384.232 276.103 384.355 276.143C384.375 276.153 384.396 276.153 384.416 276.153V276.163L385.914 276.494L386.058 276.183C387.341 273.138 387.844 271.986 397.007 271.986C399.973 271.986 401.635 272.106 402.949 272.236C403.646 274.24 403.646 277.576 403.646 288.957L403.482 301.15L403.451 302.683L403.185 306.349C403.185 308.533 403.185 308.814 398.608 309.856L397.91 310.026L396.094 310.507L396.268 310.918C396.535 311.619 396.771 312.25 397.828 312.25L399.018 312.11L400.198 311.91C404.036 311.319 405.791 311.319 407.207 311.319L410.758 311.519C410.778 311.519 413.015 311.649 413.015 311.649L414.329 311.719L416.052 311.619L416.001 311.409L416.104 310.447C416.104 309.826 415.683 309.776 414.421 309.656L414.246 309.646C409.311 309.024 409.311 309.024 409.311 298.244L409.454 282.806L409.731 275.893L409.854 272.777C409.906 271.966 409.906 271.915 414.544 271.915C421.388 271.915 423.513 272.637 424.631 273.438C424.621 273.548 424.621 273.669 424.621 273.669L424.333 276.614L424.857 276.564L426.581 276.324L426.632 276.023C426.919 274.54 427.72 271.344 428.448 269.461L428.551 269.22L428.223 268.94Z" fill="#0B5A95"/>
<path fill-rule="evenodd" clip-rule="evenodd" d="M476.021 268.719L475.005 267.778L474.625 268.078C474.092 268.659 473.917 268.84 472.101 268.84L464.066 268.97H447.114C441.573 268.97 438.946 268.91 437.438 268.709C436.093 268.539 435.785 268.249 435.129 267.677L434.513 267.116L434.298 267.718L431.486 275.462C431.486 275.482 431.486 275.502 431.486 275.512C431.486 275.522 431.476 275.522 431.465 275.522C431.465 275.552 431.465 275.592 431.465 275.622C431.465 275.662 431.527 275.662 431.527 275.692C431.558 275.823 431.609 275.963 431.753 276.003C431.753 276.013 431.773 276.013 431.783 276.013L433.312 276.374L433.446 276.043C434.759 272.967 435.252 271.815 444.508 271.815C447.514 271.815 449.187 271.935 450.511 272.056C451.219 274.079 451.219 277.456 451.219 288.947L451.044 301.26L451.013 302.823L450.747 306.51C450.747 308.724 450.747 309.014 446.129 310.046L445.431 310.237L443.594 310.718L443.769 311.138C444.036 311.85 444.272 312.471 445.329 312.471L446.529 312.331L447.74 312.14C451.609 311.539 453.384 311.539 454.81 311.539L458.412 311.729C458.422 311.739 460.68 311.88 460.68 311.88L462.014 311.94L463.738 311.85L463.686 311.649L463.81 310.657C463.81 310.026 463.379 309.976 462.106 309.866L461.921 309.846C456.945 309.225 456.945 309.225 456.945 298.334L457.078 282.735L457.355 275.833L457.488 272.617C457.54 271.795 457.55 271.735 462.209 271.735C469.135 271.735 471.28 272.466 472.419 273.268C472.409 273.398 472.398 273.518 472.398 273.518L472.111 276.484L472.634 276.434L474.379 276.183L474.43 275.893C474.718 274.38 475.538 271.154 476.267 269.26L476.37 269.01L476.021 268.719Z" fill="#0B5A95"/>
<path fill-rule="evenodd" clip-rule="evenodd" d="M45.9922 361.712C48.7115 361.291 48.8346 360.71 48.9578 359.869C49.4606 356.573 49.6248 348.588 49.6248 344.781C49.6248 337.928 49.2553 337.437 46.7002 337.437L46.7926 336.425C47.2441 336.305 47.5725 336.215 48.2908 336.215C48.7115 336.215 50.261 336.265 51.8002 336.305C53.3907 336.345 54.9813 336.425 55.5662 336.425H57.444V337.437C57.0643 337.517 55.443 337.808 55.1044 337.928C54.6529 338.098 54.4374 338.349 54.2322 339.902C53.8525 342.737 53.7704 344.32 53.8114 348.087C56.6949 348.167 63.5496 348.247 66.4741 348.247C67.9415 348.247 68.3622 348.217 69.2447 348.087C69.2447 347.005 69.2858 345.833 69.2858 344.661C69.2858 338.098 69.0703 337.848 66.5665 337.347C66.351 337.307 66.0226 337.217 65.9303 337.217L66.1458 336.265C67.2745 336.345 68.7317 336.515 71.5023 336.515C74.2523 336.515 75.4324 336.345 76.3867 336.265V337.217C75.3811 337.347 74.4678 337.517 74.0882 338.689C73.5443 340.353 73.5033 352.766 73.5033 355.441C73.5033 360.75 73.8008 361.462 76.3867 361.712L76.3046 362.674C75.258 362.544 73.5853 362.464 71.0405 362.464C69.4089 362.464 67.9005 362.544 66.1458 362.674V361.712C67.8184 361.582 68.4443 361.081 68.7317 360.119C69.2447 358.406 69.2447 353.978 69.2447 350.221C66.0226 350.051 54.3964 350.01 53.8114 350.01C53.7704 351.684 53.7294 354.559 53.7294 354.98C53.7294 355.942 53.7294 359.618 53.9756 360.209C54.3964 361.161 55.6893 361.462 56.8591 361.712V362.674C55.7714 362.634 50.5483 362.464 50.0044 362.464C48.9167 362.464 47.5725 362.544 46.3719 362.674L45.9922 361.712Z" fill="#D3B035"/>
<path fill-rule="evenodd" clip-rule="evenodd" d="M108.885 349.55C108.885 356.573 103.364 363.175 94.8263 363.175C86.0117 363.175 80.7783 356.653 80.7783 349.339C80.7783 341.194 87.8074 336.004 95.0828 336.004C102.728 336.004 108.885 341.945 108.885 349.55ZM85.6731 347.085C85.6731 353.978 88.967 361.672 95.7498 361.672C98.4281 361.672 104.031 360.039 104.031 352.305C104.031 346.875 101.394 337.637 93.913 337.637C91.9018 337.637 85.6731 338.559 85.6731 347.085Z" fill="#D3B035"/>
<path fill-rule="evenodd" clip-rule="evenodd" d="M117.248 362.043C117.915 361.883 121.014 361.081 121.352 360.54C121.855 359.789 121.896 351.343 121.896 350.011C121.896 346.203 121.896 340.272 121.476 338.599C120.296 338.519 119.762 338.479 117.586 338.479C112.271 338.479 111.943 339.231 111.265 340.944L110.229 340.693C111.265 338.098 111.655 336.716 111.902 335.884H112.61C112.948 336.215 114.026 336.345 114.282 336.385C115.955 336.596 122.184 336.596 124.359 336.596C127.417 336.596 133.512 336.556 136.109 336.425C136.693 336.385 136.817 336.345 137.073 336.175L137.699 336.556C137.36 337.467 136.693 339.14 136.519 340.944L135.277 341.154C135.277 340.904 135.442 339.812 135.442 339.561C134.025 338.479 130.926 338.479 129.254 338.479C127.663 338.479 127.366 338.479 126.617 338.599C126.452 342.236 126.278 349.339 126.278 356.533C126.278 360.921 126.658 361.001 128.546 361.372C130.044 361.582 130.218 361.582 130.588 361.672L130.465 362.714C129.798 362.714 126.832 362.464 126.37 362.464C122.307 362.464 121.855 362.464 117.628 363.125L117.248 362.043Z" fill="#D3B035"/>
<path fill-rule="evenodd" clip-rule="evenodd" d="M141.219 361.792C142.727 361.502 143.569 361.291 143.815 359.909C144.236 357.574 144.318 350.341 144.318 347.586C144.318 346.544 144.02 341.404 144.02 340.232C143.856 337.928 143.476 337.718 141.937 337.347C141.763 337.307 141.516 337.257 141.475 337.217V336.465L142.974 336.515L154.692 336.555C157.606 336.555 159.074 336.515 161.793 336.305C161.916 339.19 161.29 341.865 160.746 341.865C160.541 341.865 160.162 341.775 159.874 341.735C159.997 341.224 160.121 340.643 160.121 340.102C160.121 338.519 158.366 337.808 154.22 337.808C152.506 337.808 150.752 338.018 148.956 338.269C148.658 340.773 148.546 342.316 148.546 344.741C148.546 345.662 148.546 346.414 148.587 348.377C149.541 348.417 150.926 348.508 152.383 348.508C155.318 348.508 157.494 348.217 157.822 348.047C158.53 347.756 158.899 345.702 158.899 345.662H159.874V353.647H158.899C158.407 350.05 158.407 349.88 151.798 349.88C150.085 349.88 149.541 349.96 148.587 350.141C148.587 350.722 148.453 355.521 148.453 355.651C148.453 357.945 148.751 359.498 148.956 360.63C150.331 360.881 152.342 361.211 154.733 361.211C160.993 361.211 162.132 357.995 162.676 356.482H163.589C163.384 358.867 163.004 360.079 161.793 362.924C156.231 362.544 154.733 362.464 150.844 362.464C146.986 362.464 145.19 362.594 141.096 362.924L141.219 361.792Z" fill="#D3B035"/>
<path fill-rule="evenodd" clip-rule="evenodd" d="M167.396 361.331C168.114 361.251 169.192 361.001 169.746 360.33C170.444 359.448 170.444 359.037 170.495 348.838C170.495 341.104 170.495 340.392 170.362 339.351C170.156 337.597 168.945 337.467 167.735 337.387V336.385C169.325 336.425 169.828 336.465 172.835 336.465C176.016 336.465 176.806 336.425 178.396 336.345V337.437C177.052 337.597 175.882 337.808 175.472 338.559C174.877 339.641 174.795 347.255 174.795 349.129L174.764 355.571C174.764 358.156 174.795 359.448 175.174 360.079C175.513 360.71 176.518 360.71 178.437 360.71C186.554 360.71 187.56 358.867 188.217 356.903L189.222 357.023C189.058 358.366 189.027 358.656 187.601 362.874C185.713 362.544 184.789 362.383 179.104 362.383H167.478L167.396 361.331Z" fill="#D3B035"/>
<path fill-rule="evenodd" clip-rule="evenodd" d="M193.408 355.36C193.86 357.404 194.445 358.737 197.503 360.159C199.299 360.951 201.556 361.502 203.27 361.502C204.275 361.502 207.415 361.211 207.415 357.194C207.415 353.767 204.491 352.515 200.725 351.223C196.959 349.88 193.788 348.167 193.788 343.699C193.788 339.351 197.38 336.265 202.521 336.265C203.444 336.265 207.621 336.766 208.288 336.766C208.708 336.766 209.17 336.676 209.457 336.465L210.176 336.636C210.135 336.926 210.001 338.98 210.001 339.06C210.001 339.431 210.094 341.404 210.094 341.485V342.737H209.211C208.247 337.387 202.603 337.387 202.059 337.387C198.221 337.387 197.298 340.102 197.298 341.945C197.298 344.079 198.129 345.572 203.147 347.335C206.533 348.588 211.13 350.301 211.13 355.571C211.13 358.326 209.632 362.874 201.607 362.874C199.514 362.874 197.626 362.634 195.625 362.213C195.543 362.213 195.245 362.133 195.122 362.133C194.742 362.133 194.701 362.333 194.701 362.504H193.573C193.439 360.249 193.193 358.907 192.403 355.611L193.408 355.36Z" fill="#D3B035"/>
<path fill-rule="evenodd" clip-rule="evenodd" d="M253.243 358.246C252.659 359.658 251.407 362.714 248.051 362.714C245.67 362.714 243.957 361.161 242.951 359.077C241.699 360.58 239.821 362.874 235.635 362.874C229.868 362.874 228.441 359.198 228.441 356.402C228.441 351.593 232.084 349.47 233.5 348.628C230.781 346.915 230.781 344.661 230.781 344.24C230.781 341.655 233.049 340.142 233.716 339.771C234.424 339.351 236.517 338.389 236.897 338.389C236.969 338.389 241.576 339.23 241.576 343.028C241.576 344.37 241.237 344.701 238.395 347.546C241.576 349.049 242.284 349.8 244.419 353.938C246.091 350.381 247.6 347.125 247.6 345.662C247.6 345.031 246.974 344.701 245.629 344.16L246.05 343.368C249.519 344.37 250.811 344.41 252.115 344.45V345.332C250.945 345.502 250.483 345.572 250.186 345.833C249.775 346.123 249.098 347.586 248.769 348.297L247.22 351.593C246.184 353.858 245.804 354.649 245.219 355.651C245.383 355.982 245.424 356.032 245.465 356.112L246.337 358.035C246.594 358.576 247.682 360.75 249.231 360.75C250.77 360.75 251.694 358.957 252.32 357.785L253.243 358.246ZM241.073 355.521C239.103 351.473 238.015 350.842 234.886 349.47C233.5 350.431 231.828 351.593 231.828 354.108C231.828 357.234 234.26 360.58 237.687 360.58C239.575 360.58 241.114 359.238 242.161 357.735L241.073 355.521ZM238.816 344.32C238.816 342.697 236.815 340.523 235.142 340.523C233.849 340.523 232.669 342.066 232.669 342.907C232.669 345.242 235.85 346.494 236.897 346.875C237.523 346.544 238.816 345.783 238.816 344.32Z" fill="#D3B035"/>
<path fill-rule="evenodd" clip-rule="evenodd" d="M269.549 361.833C271.355 361.292 272.022 361.001 272.309 359.659C272.607 358.536 272.689 348.959 272.689 346.835C272.689 341.405 272.648 340.523 272.514 339.561C272.268 337.678 270.596 337.638 269.723 337.598L269.887 336.516C270.472 336.516 272.935 336.596 273.438 336.596C273.982 336.596 275.449 336.465 276.865 336.345C278.333 336.215 279.749 336.095 280.252 336.095C287.116 336.095 289.754 339.932 289.754 343.068C289.754 346.163 287.322 348.708 284.018 349.8C288.707 358.737 291.919 362.544 296.147 362.874V363.967C292.093 364.047 286.398 364.177 279.379 350.301C278.251 350.261 277.912 350.261 276.865 350.141C276.824 351.053 276.783 351.804 276.783 354.148C276.783 355.521 276.783 359.709 277.327 360.58C277.871 361.372 279.544 361.752 280.128 361.833L279.964 362.874C278.63 362.714 277.871 362.634 277.204 362.594C276.496 362.544 275.87 362.544 274.69 362.544C272.976 362.544 272.648 362.594 269.549 362.874V361.833ZM278.918 348.838C280.919 348.838 285.228 348.838 285.228 343.488C285.228 341.986 284.479 337.347 279.42 337.347C277.245 337.347 277.245 337.888 277.122 340.563C276.958 344.53 276.958 345.031 276.988 348.668C277.625 348.798 277.789 348.838 278.918 348.838Z" fill="#D3B035"/>
<path fill-rule="evenodd" clip-rule="evenodd" d="M297.655 361.792C299.164 361.502 299.995 361.291 300.252 359.909C300.662 357.574 300.744 350.341 300.744 347.586C300.744 346.544 300.457 341.404 300.457 340.232C300.293 337.928 299.903 337.718 298.363 337.347C298.199 337.307 297.953 337.257 297.902 337.217V336.465L299.41 336.515L311.118 336.555C314.053 336.555 315.51 336.515 318.23 336.305C318.353 339.19 317.727 341.865 317.183 341.865C316.978 341.865 316.598 341.775 316.3 341.735C316.424 341.224 316.557 340.643 316.557 340.102C316.557 338.519 314.802 337.808 310.657 337.808C308.943 337.808 307.188 338.018 305.393 338.269C305.095 340.773 304.972 342.316 304.972 344.741C304.972 345.662 304.972 346.414 305.013 348.377C305.977 348.417 307.352 348.508 308.82 348.508C311.744 348.508 313.92 348.217 314.258 348.047C314.967 347.756 315.346 345.702 315.346 345.662H316.3V353.647H315.346C314.843 350.05 314.843 349.88 308.235 349.88C306.511 349.88 305.977 349.96 305.013 350.141C305.013 350.722 304.89 355.521 304.89 355.651C304.89 357.945 305.177 359.498 305.393 360.63C306.768 360.881 308.779 361.211 311.159 361.211C317.44 361.211 318.558 357.995 319.102 356.482H320.025C319.82 358.867 319.441 360.079 318.23 362.924C312.668 362.544 311.159 362.464 307.281 362.464C303.422 362.464 301.627 362.594 297.532 362.924L297.655 361.792Z" fill="#D3B035"/>
<path fill-rule="evenodd" clip-rule="evenodd" d="M325.289 355.36C325.751 357.404 326.326 358.737 329.394 360.159C331.179 360.951 333.447 361.502 335.161 361.502C336.166 361.502 339.296 361.211 339.296 357.194C339.296 353.767 336.372 352.515 332.606 351.223C328.85 349.88 325.669 348.167 325.669 343.699C325.669 339.351 329.261 336.265 334.402 336.265C335.325 336.265 339.501 336.766 340.179 336.766C340.589 336.766 341.051 336.676 341.349 336.465L342.057 336.636C342.016 336.926 341.882 338.98 341.882 339.06C341.882 339.431 341.975 341.404 341.975 341.485V342.737H341.092C340.127 337.387 334.494 337.387 333.94 337.387C330.102 337.387 329.178 340.102 329.178 341.945C329.178 344.079 330.02 345.572 335.027 347.335C338.424 348.588 343.021 350.301 343.021 355.571C343.021 358.326 341.513 362.874 333.488 362.874C331.395 362.874 329.507 362.634 327.506 362.213C327.424 362.213 327.126 362.133 327.003 362.133C326.634 362.133 326.582 362.333 326.582 362.504H325.454C325.33 360.249 325.084 358.907 324.284 355.611L325.289 355.36Z" fill="#D3B035"/>
<path fill-rule="evenodd" clip-rule="evenodd" d="M375.55 349.55C375.55 356.573 370.029 363.175 361.502 363.175C352.677 363.175 347.454 356.653 347.454 349.339C347.454 341.194 354.473 336.004 361.748 336.004C369.403 336.004 375.55 341.945 375.55 349.55ZM352.349 347.085C352.349 353.978 355.643 361.672 362.426 361.672C365.094 361.672 370.696 360.039 370.696 352.305C370.696 346.875 368.059 337.637 360.579 337.637C358.578 337.637 352.349 338.559 352.349 347.085Z" fill="#D3B035"/>
<path fill-rule="evenodd" clip-rule="evenodd" d="M379.901 361.833C381.697 361.292 382.364 361.001 382.651 359.659C382.949 358.536 383.031 348.959 383.031 346.835C383.031 341.405 383 340.523 382.867 339.561C382.621 337.678 380.948 337.638 380.066 337.598L380.23 336.516C380.825 336.516 383.288 336.596 383.79 336.596C384.334 336.596 385.791 336.465 387.218 336.345C388.685 336.215 390.101 336.095 390.604 336.095C397.459 336.095 400.096 339.932 400.096 343.068C400.096 346.163 397.674 348.708 394.37 349.8C399.049 358.737 402.271 362.544 406.499 362.874V363.967C402.436 364.047 396.751 364.177 389.732 350.301C388.593 350.261 388.264 350.261 387.218 350.141C387.177 351.053 387.136 351.804 387.136 354.148C387.136 355.521 387.136 359.709 387.68 360.58C388.223 361.372 389.896 361.752 390.481 361.833L390.317 362.874C388.973 362.714 388.223 362.634 387.546 362.594C386.838 362.544 386.212 362.544 385.042 362.544C383.329 362.544 383 362.594 379.901 362.874V361.833ZM389.26 348.838C391.271 348.838 395.581 348.838 395.581 343.488C395.581 341.986 394.832 337.347 389.773 337.347C387.597 337.347 387.597 337.888 387.464 340.563C387.3 344.53 387.3 345.031 387.341 348.668C387.967 348.798 388.141 348.838 389.26 348.838Z" fill="#D3B035"/>
<path fill-rule="evenodd" clip-rule="evenodd" d="M410.091 362.043C410.768 361.883 413.857 361.081 414.195 360.54C414.698 359.789 414.739 351.343 414.739 350.011C414.739 346.203 414.739 340.272 414.318 338.599C413.138 338.519 412.605 338.479 410.429 338.479C405.124 338.479 404.785 339.231 404.118 340.944L403.072 340.693C404.118 338.098 404.488 336.716 404.744 335.884H405.452C405.791 336.215 406.879 336.345 407.125 336.385C408.798 336.596 415.026 336.596 417.202 336.596C420.26 336.596 426.355 336.556 428.951 336.425C429.536 336.385 429.659 336.345 429.916 336.175L430.542 336.556C430.203 337.467 429.536 339.14 429.372 340.944L428.12 341.154C428.12 340.904 428.284 339.812 428.284 339.561C426.868 338.479 423.769 338.479 422.097 338.479C420.506 338.479 420.219 338.479 419.459 338.599C419.295 342.236 419.131 349.339 419.131 356.533C419.131 360.921 419.5 361.001 421.389 361.372C422.887 361.582 423.061 361.582 423.431 361.672L423.307 362.714C422.64 362.714 419.675 362.464 419.213 362.464C415.15 362.464 414.698 362.464 410.47 363.125L410.091 362.043Z" fill="#D3B035"/>
<path fill-rule="evenodd" clip-rule="evenodd" d="M432.296 355.36C432.758 357.404 433.353 358.737 436.39 360.159C438.197 360.951 440.444 361.502 442.168 361.502C443.173 361.502 446.313 361.211 446.313 357.194C446.313 353.767 443.379 352.515 439.623 351.223C435.857 349.88 432.676 348.167 432.676 343.699C432.676 339.351 436.267 336.265 441.419 336.265C442.332 336.265 446.519 336.766 447.186 336.766C447.606 336.766 448.058 336.676 448.355 336.465L449.063 336.636C449.033 336.926 448.899 338.98 448.899 339.06C448.899 339.431 448.981 341.404 448.981 341.485V342.737H448.099C447.145 337.387 441.49 337.387 440.957 337.387C437.109 337.387 436.185 340.102 436.185 341.945C436.185 344.079 437.027 345.572 442.045 347.335C445.431 348.588 450.028 350.301 450.028 355.571C450.028 358.326 448.52 362.874 440.505 362.874C438.402 362.874 436.524 362.634 434.513 362.213C434.431 362.213 434.143 362.133 434.01 362.133C433.64 362.133 433.599 362.333 433.599 362.504H432.471C432.337 360.249 432.091 358.907 431.291 355.611L432.296 355.36Z" fill="#D3B035"/>
<path fill-rule="evenodd" clip-rule="evenodd" d="M45.9922 361.712C48.7115 361.291 48.8346 360.71 48.9578 359.869C49.4606 356.573 49.6248 348.588 49.6248 344.781C49.6248 337.928 49.2553 337.437 46.7002 337.437L46.7926 336.425C47.2441 336.305 47.5725 336.215 48.2908 336.215C48.7115 336.215 50.261 336.265 51.8002 336.305C53.3907 336.345 54.9813 336.425 55.5662 336.425H57.444V337.437C57.0643 337.517 55.443 337.808 55.1044 337.928C54.6529 338.098 54.4374 338.349 54.2322 339.902C53.8525 342.737 53.7704 344.32 53.8114 348.087C56.6949 348.167 63.5496 348.247 66.4741 348.247C67.9415 348.247 68.3622 348.217 69.2447 348.087C69.2447 347.005 69.2858 345.833 69.2858 344.661C69.2858 338.098 69.0703 337.848 66.5665 337.347C66.351 337.307 66.0226 337.217 65.9303 337.217L66.1458 336.265C67.2745 336.345 68.7317 336.515 71.5023 336.515C74.2523 336.515 75.4324 336.345 76.3867 336.265V337.217C75.3811 337.347 74.4678 337.517 74.0882 338.689C73.5443 340.353 73.5033 352.766 73.5033 355.441C73.5033 360.75 73.8008 361.462 76.3867 361.712L76.3046 362.674C75.258 362.544 73.5853 362.464 71.0405 362.464C69.4089 362.464 67.9005 362.544 66.1458 362.674V361.712C67.8184 361.582 68.4443 361.081 68.7317 360.119C69.2447 358.406 69.2447 353.978 69.2447 350.221C66.0226 350.051 54.3964 350.01 53.8114 350.01C53.7704 351.684 53.7294 354.559 53.7294 354.98C53.7294 355.942 53.7294 359.618 53.9756 360.209C54.3964 361.161 55.6893 361.462 56.8591 361.712V362.674C55.7714 362.634 50.5483 362.464 50.0044 362.464C48.9167 362.464 47.5725 362.544 46.3719 362.674L45.9922 361.712Z" fill="#0B5A95"/>
<path fill-rule="evenodd" clip-rule="evenodd" d="M108.885 349.55C108.885 356.573 103.364 363.175 94.8263 363.175C86.0117 363.175 80.7783 356.653 80.7783 349.339C80.7783 341.194 87.8074 336.004 95.0828 336.004C102.728 336.004 108.885 341.945 108.885 349.55ZM85.6731 347.085C85.6731 353.978 88.967 361.672 95.7498 361.672C98.4281 361.672 104.031 360.039 104.031 352.305C104.031 346.875 101.394 337.637 93.913 337.637C91.9018 337.637 85.6731 338.559 85.6731 347.085Z" fill="#0B5A95"/>
<path fill-rule="evenodd" clip-rule="evenodd" d="M117.248 362.043C117.915 361.883 121.014 361.081 121.352 360.54C121.855 359.789 121.896 351.343 121.896 350.011C121.896 346.203 121.896 340.272 121.476 338.599C120.296 338.519 119.762 338.479 117.586 338.479C112.271 338.479 111.943 339.231 111.265 340.944L110.229 340.693C111.265 338.098 111.655 336.716 111.902 335.884H112.61C112.948 336.215 114.026 336.345 114.282 336.385C115.955 336.596 122.184 336.596 124.359 336.596C127.417 336.596 133.512 336.556 136.109 336.425C136.693 336.385 136.817 336.345 137.073 336.175L137.699 336.556C137.36 337.467 136.693 339.14 136.519 340.944L135.277 341.154C135.277 340.904 135.442 339.812 135.442 339.561C134.025 338.479 130.926 338.479 129.254 338.479C127.663 338.479 127.366 338.479 126.617 338.599C126.452 342.236 126.278 349.339 126.278 356.533C126.278 360.921 126.658 361.001 128.546 361.372C130.044 361.582 130.218 361.582 130.588 361.672L130.465 362.714C129.798 362.714 126.832 362.464 126.37 362.464C122.307 362.464 121.855 362.464 117.628 363.125L117.248 362.043Z" fill="#0B5A95"/>
<path fill-rule="evenodd" clip-rule="evenodd" d="M141.219 361.792C142.727 361.502 143.569 361.291 143.815 359.909C144.236 357.574 144.318 350.341 144.318 347.586C144.318 346.544 144.02 341.404 144.02 340.232C143.856 337.928 143.476 337.718 141.937 337.347C141.763 337.307 141.516 337.257 141.475 337.217V336.465L142.974 336.515L154.692 336.555C157.606 336.555 159.074 336.515 161.793 336.305C161.916 339.19 161.29 341.865 160.746 341.865C160.541 341.865 160.162 341.775 159.874 341.735C159.997 341.224 160.121 340.643 160.121 340.102C160.121 338.519 158.366 337.808 154.22 337.808C152.506 337.808 150.752 338.018 148.956 338.269C148.658 340.773 148.546 342.316 148.546 344.741C148.546 345.662 148.546 346.414 148.587 348.377C149.541 348.417 150.926 348.508 152.383 348.508C155.318 348.508 157.494 348.217 157.822 348.047C158.53 347.756 158.899 345.702 158.899 345.662H159.874V353.647H158.899C158.407 350.05 158.407 349.88 151.798 349.88C150.085 349.88 149.541 349.96 148.587 350.141C148.587 350.722 148.453 355.521 148.453 355.651C148.453 357.945 148.751 359.498 148.956 360.63C150.331 360.881 152.342 361.211 154.733 361.211C160.993 361.211 162.132 357.995 162.676 356.482H163.589C163.384 358.867 163.004 360.079 161.793 362.924C156.231 362.544 154.733 362.464 150.844 362.464C146.986 362.464 145.19 362.594 141.096 362.924L141.219 361.792Z" fill="#0B5A95"/>
<path fill-rule="evenodd" clip-rule="evenodd" d="M167.396 361.331C168.114 361.251 169.192 361.001 169.746 360.33C170.444 359.448 170.444 359.037 170.495 348.838C170.495 341.104 170.495 340.392 170.362 339.351C170.156 337.597 168.945 337.467 167.735 337.387V336.385C169.325 336.425 169.828 336.465 172.835 336.465C176.016 336.465 176.806 336.425 178.396 336.345V337.437C177.052 337.597 175.882 337.808 175.472 338.559C174.877 339.641 174.795 347.255 174.795 349.129L174.764 355.571C174.764 358.156 174.795 359.448 175.174 360.079C175.513 360.71 176.518 360.71 178.437 360.71C186.554 360.71 187.56 358.867 188.217 356.903L189.222 357.023C189.058 358.366 189.027 358.656 187.601 362.874C185.713 362.544 184.789 362.383 179.104 362.383H167.478L167.396 361.331Z" fill="#0B5A95"/>
<path fill-rule="evenodd" clip-rule="evenodd" d="M193.408 355.36C193.86 357.404 194.445 358.737 197.503 360.159C199.299 360.951 201.556 361.502 203.27 361.502C204.275 361.502 207.415 361.211 207.415 357.194C207.415 353.767 204.491 352.515 200.725 351.223C196.959 349.88 193.788 348.167 193.788 343.699C193.788 339.351 197.38 336.265 202.521 336.265C203.444 336.265 207.621 336.766 208.288 336.766C208.708 336.766 209.17 336.676 209.457 336.465L210.176 336.636C210.135 336.926 210.001 338.98 210.001 339.06C210.001 339.431 210.094 341.404 210.094 341.485V342.737H209.211C208.247 337.387 202.603 337.387 202.059 337.387C198.221 337.387 197.298 340.102 197.298 341.945C197.298 344.079 198.129 345.572 203.147 347.335C206.533 348.588 211.13 350.301 211.13 355.571C211.13 358.326 209.632 362.874 201.607 362.874C199.514 362.874 197.626 362.634 195.625 362.213C195.543 362.213 195.245 362.133 195.122 362.133C194.742 362.133 194.701 362.333 194.701 362.504H193.573C193.439 360.249 193.193 358.907 192.403 355.611L193.408 355.36Z" fill="#0B5A95"/>
<path fill-rule="evenodd" clip-rule="evenodd" d="M253.243 358.246C252.659 359.658 251.407 362.714 248.051 362.714C245.67 362.714 243.957 361.161 242.951 359.077C241.699 360.58 239.821 362.874 235.635 362.874C229.868 362.874 228.441 359.198 228.441 356.402C228.441 351.593 232.084 349.47 233.5 348.628C230.781 346.915 230.781 344.661 230.781 344.24C230.781 341.655 233.049 340.142 233.716 339.771C234.424 339.351 236.517 338.389 236.897 338.389C236.969 338.389 241.576 339.23 241.576 343.028C241.576 344.37 241.237 344.701 238.395 347.546C241.576 349.049 242.284 349.8 244.419 353.938C246.091 350.381 247.6 347.125 247.6 345.662C247.6 345.031 246.974 344.701 245.629 344.16L246.05 343.368C249.519 344.37 250.811 344.41 252.115 344.45V345.332C250.945 345.502 250.483 345.572 250.186 345.833C249.775 346.123 249.098 347.586 248.769 348.297L247.22 351.593C246.184 353.858 245.804 354.649 245.219 355.651C245.383 355.982 245.424 356.032 245.465 356.112L246.337 358.035C246.594 358.576 247.682 360.75 249.231 360.75C250.77 360.75 251.694 358.957 252.32 357.785L253.243 358.246ZM241.073 355.521C239.103 351.473 238.015 350.842 234.886 349.47C233.5 350.431 231.828 351.593 231.828 354.108C231.828 357.234 234.26 360.58 237.687 360.58C239.575 360.58 241.114 359.238 242.161 357.735L241.073 355.521ZM238.816 344.32C238.816 342.697 236.815 340.523 235.142 340.523C233.849 340.523 232.669 342.066 232.669 342.907C232.669 345.242 235.85 346.494 236.897 346.875C237.523 346.544 238.816 345.783 238.816 344.32Z" fill="#0B5A95"/>
<path fill-rule="evenodd" clip-rule="evenodd" d="M269.549 361.833C271.355 361.292 272.022 361.001 272.309 359.659C272.607 358.536 272.689 348.959 272.689 346.835C272.689 341.405 272.648 340.523 272.514 339.561C272.268 337.678 270.596 337.638 269.723 337.598L269.887 336.516C270.472 336.516 272.935 336.596 273.438 336.596C273.982 336.596 275.449 336.465 276.865 336.345C278.333 336.215 279.749 336.095 280.252 336.095C287.116 336.095 289.754 339.932 289.754 343.068C289.754 346.163 287.322 348.708 284.018 349.8C288.707 358.737 291.919 362.544 296.147 362.874V363.967C292.093 364.047 286.398 364.177 279.379 350.301C278.251 350.261 277.912 350.261 276.865 350.141C276.824 351.053 276.783 351.804 276.783 354.148C276.783 355.521 276.783 359.709 277.327 360.58C277.871 361.372 279.544 361.752 280.128 361.833L279.964 362.874C278.63 362.714 277.871 362.634 277.204 362.594C276.496 362.544 275.87 362.544 274.69 362.544C272.976 362.544 272.648 362.594 269.549 362.874V361.833ZM278.918 348.838C280.919 348.838 285.228 348.838 285.228 343.488C285.228 341.986 284.479 337.347 279.42 337.347C277.245 337.347 277.245 337.888 277.122 340.563C276.958 344.53 276.958 345.031 276.988 348.668C277.625 348.798 277.789 348.838 278.918 348.838Z" fill="#0B5A95"/>
<path fill-rule="evenodd" clip-rule="evenodd" d="M297.655 361.792C299.164 361.502 299.995 361.291 300.252 359.909C300.662 357.574 300.744 350.341 300.744 347.586C300.744 346.544 300.457 341.404 300.457 340.232C300.293 337.928 299.903 337.718 298.363 337.347C298.199 337.307 297.953 337.257 297.902 337.217V336.465L299.41 336.515L311.118 336.555C314.053 336.555 315.51 336.515 318.23 336.305C318.353 339.19 317.727 341.865 317.183 341.865C316.978 341.865 316.598 341.775 316.3 341.735C316.424 341.224 316.557 340.643 316.557 340.102C316.557 338.519 314.802 337.808 310.657 337.808C308.943 337.808 307.188 338.018 305.393 338.269C305.095 340.773 304.972 342.316 304.972 344.741C304.972 345.662 304.972 346.414 305.013 348.377C305.977 348.417 307.352 348.508 308.82 348.508C311.744 348.508 313.92 348.217 314.258 348.047C314.967 347.756 315.346 345.702 315.346 345.662H316.3V353.647H315.346C314.843 350.05 314.843 349.88 308.235 349.88C306.511 349.88 305.977 349.96 305.013 350.141C305.013 350.722 304.89 355.521 304.89 355.651C304.89 357.945 305.177 359.498 305.393 360.63C306.768 360.881 308.779 361.211 311.159 361.211C317.44 361.211 318.558 357.995 319.102 356.482H320.025C319.82 358.867 319.441 360.079 318.23 362.924C312.668 362.544 311.159 362.464 307.281 362.464C303.422 362.464 301.627 362.594 297.532 362.924L297.655 361.792Z" fill="#0B5A95"/>
<path fill-rule="evenodd" clip-rule="evenodd" d="M325.289 355.36C325.751 357.404 326.326 358.737 329.394 360.159C331.179 360.951 333.447 361.502 335.161 361.502C336.166 361.502 339.296 361.211 339.296 357.194C339.296 353.767 336.372 352.515 332.606 351.223C328.85 349.88 325.669 348.167 325.669 343.699C325.669 339.351 329.261 336.265 334.402 336.265C335.325 336.265 339.501 336.766 340.179 336.766C340.589 336.766 341.051 336.676 341.349 336.465L342.057 336.636C342.016 336.926 341.882 338.98 341.882 339.06C341.882 339.431 341.975 341.404 341.975 341.485V342.737H341.092C340.127 337.387 334.494 337.387 333.94 337.387C330.102 337.387 329.178 340.102 329.178 341.945C329.178 344.079 330.02 345.572 335.027 347.335C338.424 348.588 343.021 350.301 343.021 355.571C343.021 358.326 341.513 362.874 333.488 362.874C331.395 362.874 329.507 362.634 327.506 362.213C327.424 362.213 327.126 362.133 327.003 362.133C326.634 362.133 326.582 362.333 326.582 362.504H325.454C325.33 360.249 325.084 358.907 324.284 355.611L325.289 355.36Z" fill="#0B5A95"/>
<path fill-rule="evenodd" clip-rule="evenodd" d="M375.55 349.55C375.55 356.573 370.029 363.175 361.502 363.175C352.677 363.175 347.454 356.653 347.454 349.339C347.454 341.194 354.473 336.004 361.748 336.004C369.403 336.004 375.55 341.945 375.55 349.55ZM352.349 347.085C352.349 353.978 355.643 361.672 362.426 361.672C365.094 361.672 370.696 360.039 370.696 352.305C370.696 346.875 368.059 337.637 360.579 337.637C358.578 337.637 352.349 338.559 352.349 347.085Z" fill="#0B5A95"/>
<path fill-rule="evenodd" clip-rule="evenodd" d="M379.901 361.833C381.697 361.292 382.364 361.001 382.651 359.659C382.949 358.536 383.031 348.959 383.031 346.835C383.031 341.405 383 340.523 382.867 339.561C382.621 337.678 380.948 337.638 380.066 337.598L380.23 336.516C380.825 336.516 383.288 336.596 383.79 336.596C384.334 336.596 385.791 336.465 387.218 336.345C388.685 336.215 390.101 336.095 390.604 336.095C397.459 336.095 400.096 339.932 400.096 343.068C400.096 346.163 397.674 348.708 394.37 349.8C399.049 358.737 402.271 362.544 406.499 362.874V363.967C402.436 364.047 396.751 364.177 389.732 350.301C388.593 350.261 388.264 350.261 387.218 350.141C387.177 351.053 387.136 351.804 387.136 354.148C387.136 355.521 387.136 359.709 387.68 360.58C388.223 361.372 389.896 361.752 390.481 361.833L390.317 362.874C388.973 362.714 388.223 362.634 387.546 362.594C386.838 362.544 386.212 362.544 385.042 362.544C383.329 362.544 383 362.594 379.901 362.874V361.833ZM389.26 348.838C391.271 348.838 395.581 348.838 395.581 343.488C395.581 341.986 394.832 337.347 389.773 337.347C387.597 337.347 387.597 337.888 387.464 340.563C387.3 344.53 387.3 345.031 387.341 348.668C387.967 348.798 388.141 348.838 389.26 348.838Z" fill="#0B5A95"/>
<path fill-rule="evenodd" clip-rule="evenodd" d="M410.091 362.043C410.768 361.883 413.857 361.081 414.195 360.54C414.698 359.789 414.739 351.343 414.739 350.011C414.739 346.203 414.739 340.272 414.318 338.599C413.138 338.519 412.605 338.479 410.429 338.479C405.124 338.479 404.785 339.231 404.118 340.944L403.072 340.693C404.118 338.098 404.488 336.716 404.744 335.884H405.452C405.791 336.215 406.879 336.345 407.125 336.385C408.798 336.596 415.026 336.596 417.202 336.596C420.26 336.596 426.355 336.556 428.951 336.425C429.536 336.385 429.659 336.345 429.916 336.175L430.542 336.556C430.203 337.467 429.536 339.14 429.372 340.944L428.12 341.154C428.12 340.904 428.284 339.812 428.284 339.561C426.868 338.479 423.769 338.479 422.097 338.479C420.506 338.479 420.219 338.479 419.459 338.599C419.295 342.236 419.131 349.339 419.131 356.533C419.131 360.921 419.5 361.001 421.389 361.372C422.887 361.582 423.061 361.582 423.431 361.672L423.307 362.714C422.64 362.714 419.675 362.464 419.213 362.464C415.15 362.464 414.698 362.464 410.47 363.125L410.091 362.043Z" fill="#0B5A95"/>
<path fill-rule="evenodd" clip-rule="evenodd" d="M432.296 355.36C432.758 357.404 433.353 358.737 436.39 360.159C438.197 360.951 440.444 361.502 442.168 361.502C443.173 361.502 446.313 361.211 446.313 357.194C446.313 353.767 443.379 352.515 439.623 351.223C435.857 349.88 432.676 348.167 432.676 343.699C432.676 339.351 436.267 336.265 441.419 336.265C442.332 336.265 446.519 336.766 447.186 336.766C447.606 336.766 448.058 336.676 448.355 336.465L449.063 336.636C449.033 336.926 448.899 338.98 448.899 339.06C448.899 339.431 448.981 341.404 448.981 341.485V342.737H448.099C447.145 337.387 441.49 337.387 440.957 337.387C437.109 337.387 436.185 340.102 436.185 341.945C436.185 344.079 437.027 345.572 442.045 347.335C445.431 348.588 450.028 350.301 450.028 355.571C450.028 358.326 448.52 362.874 440.505 362.874C438.402 362.874 436.524 362.634 434.513 362.213C434.431 362.213 434.143 362.133 434.01 362.133C433.64 362.133 433.599 362.333 433.599 362.504H432.471C432.337 360.249 432.091 358.907 431.291 355.611L432.296 355.36Z" fill="#0B5A95"/>
<path fill-rule="evenodd" clip-rule="evenodd" d="M480.156 304.396C482.198 304.396 484.024 305.828 484.024 308.063C484.024 310.307 482.198 311.749 480.156 311.749C478.114 311.749 476.287 310.307 476.287 308.063C476.287 305.828 478.114 304.396 480.156 304.396ZM480.156 310.958C481.726 310.958 482.998 309.746 482.998 308.063C482.998 306.389 481.726 305.187 480.156 305.187C478.575 305.187 477.313 306.389 477.313 308.063C477.313 309.746 478.575 310.958 480.156 310.958ZM478.658 305.989H480.238C481.305 305.989 481.89 306.319 481.89 307.221C481.89 307.972 481.408 308.263 480.792 308.313L481.91 310.116H481.038L480.012 308.353H479.489V310.116H478.658V305.989ZM479.489 307.722H480.228C480.71 307.722 481.059 307.662 481.059 307.151C481.059 306.7 480.587 306.64 480.197 306.64H479.489V307.722Z" fill="#0B5A95"/>
</g>
<defs>
<clipPath id="clip0_7_312">
<rect width="507" height="495" fill="white"/>
</clipPath>
</defs>
</svg>
