<svg width="481" height="482" viewBox="0 0 481 482" fill="none" xmlns="http://www.w3.org/2000/svg">
<path fill-rule="evenodd" clip-rule="evenodd" d="M260.249 88.835C260.435 88.8987 260.619 88.965 260.804 89.0287L260.645 88.9117L298.151 51.8914L292.152 112.471L291.903 112.286C292.075 112.505 292.246 112.728 292.417 112.949L292.287 112.659L339.06 104.89L310.478 153.467L310.381 153.25C310.429 153.485 310.48 153.719 310.529 153.956V153.763L379.117 177.323L310.529 200.883V200.616C310.488 200.818 310.445 201.019 310.402 201.221L310.464 201.083L339.046 249.662L292.272 241.89L292.358 241.7L292.008 242.155L292.128 242.065L298.127 302.644L260.621 265.625L260.668 265.59C260.529 265.638 260.39 265.689 260.251 265.737H260.397L242.208 354.571L224.016 265.737H224.222C224.1 265.695 223.977 265.65 223.856 265.607L186.349 302.626L192.349 242.047L192.422 242.102L192.185 241.795L192.214 241.859L145.442 249.629L174.024 201.052L174.045 201.099L173.944 200.615V200.809L105.354 177.249L173.944 153.688V153.957C173.983 153.762 174.025 153.567 174.066 153.372L174.037 153.436L145.456 104.857L192.228 112.628L192.127 112.855L192.527 112.338L192.374 112.453L186.375 51.8745L223.88 88.8935L223.723 89.0105C223.89 88.952 224.056 88.8922 224.223 88.835H224.073L242.265 -0.000189842L260.455 88.835H260.249ZM213.869 106.13C215.647 110.118 210.951 113.629 209.173 109.641C207.396 105.654 212.091 102.142 213.869 106.13V106.13ZM276.274 109.641C274.495 113.629 269.801 110.117 271.578 106.13C273.356 102.142 278.051 105.653 276.274 109.641ZM305.128 181.394C301.573 181.394 301.573 174.37 305.128 174.37C308.684 174.37 308.684 181.394 305.128 181.394ZM271.578 249.634C269.801 245.646 274.496 242.134 276.274 246.122C278.051 250.11 273.356 253.621 271.578 249.634ZM209.173 246.122C210.952 242.134 215.647 245.648 213.869 249.634C212.091 253.621 207.396 250.11 209.173 246.122ZM180.319 174.37C183.875 174.37 183.875 181.394 180.319 181.394C176.764 181.394 176.764 174.37 180.319 174.37ZM211.721 216.525C213.267 230.732 227.81 230.928 234.584 227.243C243.546 222.367 243.425 206.737 233.343 203.922C231.039 203.279 222.086 202.114 222.087 198.087C222.09 193.877 229.793 194.245 230.49 197.44L230.788 198.809H239.971C239.08 187.2 229.609 185.478 222.272 186.848C209.562 189.222 210.583 203.455 215.287 207.617C220.416 212.154 231.114 210.981 231.115 216.368C231.115 221.936 222.602 221.79 221.541 217.365L221.339 216.525H211.721ZM274.078 202.444C271.746 185.277 255.49 181.702 248.355 192.695C240.75 204.414 243.828 229.155 259.056 229.202C266.511 229.225 272.266 222.813 274.37 212.167H264.225C263.442 220.391 257.141 221.076 254.827 215.758C252.933 211.402 252.122 196.587 259.485 196.61C261.825 196.618 263.877 199.066 263.956 202.444H274.078ZM210.584 127.291H224.194V134.483C228.043 128.599 231.459 126.166 237.353 126.166C242.926 126.166 244.981 128.421 248.252 133.663C252.558 127.609 256.029 126.166 262.142 126.166C269.334 126.166 275.141 136.899 275.141 145.617V177.259C277.698 178.045 280.642 179.091 284.739 176.96L287.627 182.728C277.023 187.911 274.703 180.987 265.266 180.987C256.677 180.987 251.166 186.199 243.202 186.199C231.957 186.199 227.286 177.002 212.615 183.017C208.711 184.618 205.13 185.832 198.776 182.728L201.664 176.96C205.391 178.896 208.206 178.038 210.584 177.448V127.291ZM260.527 174.306V148.5C260.527 140.647 254.711 138.796 251.71 143.384C250.657 144.993 250.145 147.586 250.145 151.144V177.804C253.611 176.475 256.581 174.955 260.527 174.306V174.306ZM235.518 177.514C235.518 173.401 235.8 147.272 235.237 145.015C234.036 140.183 229.225 139.66 226.811 143.336C225.734 144.977 225.197 147.681 225.197 151.414V174.208C229.176 174.733 232.141 176.164 235.518 177.514V177.514ZM267.935 92.0779C271.267 93.7644 274.474 95.7694 277.536 98.0644L289.845 70.4529L267.935 92.0779ZM297.354 120.126C299.577 123.714 301.596 127.522 303.385 131.523L324.7 115.583L297.354 120.126ZM312.018 163.207C312.567 167.796 312.852 172.498 312.852 177.285H353.004L312.018 163.207ZM308.032 210.546C306.732 214.858 305.186 219.011 303.417 222.976L324.715 238.902L308.032 210.546ZM286.367 248.676C283.6 251.55 280.665 254.161 277.58 256.475L289.87 284.046L286.367 248.676ZM253.105 267.665C249.563 268.376 245.932 268.744 242.236 268.744V320.748L253.105 267.665ZM216.52 262.486C213.197 260.801 209.995 258.801 206.939 256.511L194.657 284.066L216.52 262.486ZM187.09 234.4C184.876 230.819 182.862 227.018 181.078 223.024L159.801 238.936L187.09 234.4ZM172.454 191.363C171.905 186.776 171.621 182.073 171.621 177.285H131.469L172.454 191.363ZM176.461 143.955C177.762 139.649 179.311 135.501 181.081 131.54L159.786 115.617L176.461 143.955ZM198.137 105.863C200.906 102.991 203.844 100.379 206.932 98.0657L194.632 70.4724L198.137 105.863ZM231.366 86.9054C234.909 86.1941 238.539 85.8261 242.236 85.8261V33.8227L231.366 86.9054ZM180.319 172.637C185.63 172.637 185.63 183.126 180.319 183.126C175.009 183.126 175.009 172.637 180.319 172.637ZM208.014 245.256C210.67 239.3 217.683 244.544 215.029 250.5C212.374 256.457 205.359 251.213 208.014 245.256ZM270.419 250.5C267.763 244.544 274.779 239.3 277.433 245.256C280.088 251.213 273.074 256.457 270.419 250.5ZM305.128 183.126C299.818 183.126 299.818 172.637 305.128 172.637C310.438 172.637 310.438 183.126 305.128 183.126V183.126ZM277.433 110.508C274.778 116.465 267.763 111.219 270.419 105.263C273.074 99.3062 280.088 104.551 277.433 110.508ZM215.029 105.263C217.683 111.219 210.669 116.465 208.014 110.508C205.359 104.551 212.373 99.3062 215.029 105.263ZM242.236 106.798C272.288 106.798 296.659 138.364 296.659 177.285C296.659 216.208 272.288 247.772 242.236 247.772C212.185 247.772 187.813 216.208 187.813 177.285C187.813 138.364 212.185 106.798 242.236 106.798" fill="#23366C"/>
<path d="M19.6863 404.516L38.0714 456.561C38.8676 458.842 39.5412 459.972 40.0924 459.933C40.6285 459.894 41.1796 459.101 41.7459 457.553L58.6924 410.921C60.2686 406.499 61.4161 403.744 62.1058 402.614C62.7945 401.483 63.683 400.927 64.8003 400.927C65.213 400.927 65.8716 400.987 66.7741 401.086C67.6315 401.206 68.535 401.266 69.4536 401.266C70.6935 401.266 72.1934 401.126 74.0005 400.869C74.9181 400.751 75.6078 400.691 76.0515 400.691C77.1077 400.691 77.6277 401.225 77.6277 402.316C77.6277 403.229 77.2301 403.704 76.4189 403.783C73.6019 404.06 71.6422 405.27 70.5258 407.431C69.4074 409.612 68.8412 413.261 68.8412 418.415L68.8874 422.361L69.9586 458.466L70.0048 460.844C70.0048 466.199 70.7236 470.144 72.1783 472.721C73.632 475.3 76.0053 476.825 79.3274 477.281C80.1697 477.44 80.5823 477.995 80.5823 478.966C80.5823 480.017 79.5723 480.553 77.5363 480.553C76.939 480.553 75.9742 480.453 74.658 480.255C71.0147 479.76 68.4276 479.502 66.8966 479.502C63.7583 479.502 61.141 479.7 59.0448 480.077C57.069 480.473 55.7227 480.671 55.0029 480.671C54.253 480.671 53.8845 480.177 53.8845 479.203C53.8845 478.471 54.3142 477.955 55.1866 477.638C56.8853 477.024 58.095 476.032 58.7988 474.685C59.5036 473.315 59.8549 471.313 59.8549 468.637C59.8549 467.347 59.8399 466.456 59.8098 465.901L58.4464 427.337C58.4163 426.287 58.2165 425.772 57.8651 425.772C57.4214 425.772 56.7939 426.842 56.0279 428.964L39.1436 475.318L38.5152 477.063C37.6428 479.481 36.939 480.692 36.3718 480.731C35.7142 480.771 34.5968 478.63 33.0507 474.347L30.7698 468.3L16.3803 426.803L16.058 425.949C15.9355 425.673 15.7528 425.533 15.5229 425.533C15.0481 425.533 14.8031 426.326 14.8031 427.912L14.7569 429.777L14.1756 459.119L14.1295 461.439L14.528 466.912C15.3693 472.602 17.7115 476.092 21.5687 477.361C22.9159 477.796 23.5906 478.45 23.5906 479.344C23.5906 480.354 23.0696 480.849 22.0134 480.849C21.2173 480.849 20.2525 480.752 19.1502 480.553L15.9667 479.978C15.1555 479.819 13.9919 479.74 12.4609 479.74C9.75127 479.74 7.62392 479.938 6.09291 480.315C5.11307 480.593 4.36312 480.731 3.85714 480.731C2.92448 480.731 2.46467 480.216 2.46467 479.203C2.46467 478.51 2.81706 478.015 3.53588 477.697C5.84795 476.687 7.53156 474.902 8.58771 472.323C9.64486 469.747 10.18 466.178 10.18 461.618L11.3887 423.452L11.5272 419.566C11.5272 414.906 10.6548 411.258 8.89391 408.621C7.14906 405.963 4.74563 404.636 1.69967 404.636C0.567225 404.636 0 404.081 0 402.99C0 401.86 0.643525 401.305 1.92857 401.305C2.20465 401.305 2.54097 401.324 2.9546 401.364L5.55681 401.602C6.03167 401.643 6.64408 401.662 7.39402 401.662C8.80255 401.662 10.18 401.543 11.5272 401.305C13.5632 401.008 14.8643 400.849 15.4767 400.849C17.4364 400.849 18.845 402.078 19.6863 404.516ZM101.142 399.579C103.943 399.579 106.699 400.273 109.392 401.662L112.393 403.288C113.74 403.982 114.689 404.338 115.255 404.338C115.685 404.338 116.114 404.2 116.558 403.922L118.271 402.832C118.501 402.672 118.746 402.593 118.975 402.593C119.602 402.593 119.925 403.229 119.925 404.516L119.833 409.215C119.833 409.95 119.863 410.643 119.925 411.317L120.507 417.007L120.951 422.282C121.012 422.757 121.042 423.134 121.042 423.452C121.042 425.117 120.675 425.949 119.925 425.949C119.39 425.949 119.007 425.215 118.761 423.749C117.889 418.336 115.715 413.656 112.209 409.711C108.72 405.766 105 403.783 101.081 403.783C98.4012 403.783 96.044 404.953 94.0391 407.312C92.0332 409.672 91.0383 412.467 91.0383 415.679C91.0383 418.653 91.9258 421.23 93.6867 423.392C94.8192 424.78 98.3711 427.061 104.31 430.193C111.398 433.94 116.098 437.628 118.394 441.217C121.118 445.558 122.482 450.793 122.482 456.899C122.482 463.641 120.598 469.51 116.833 474.505C113.067 479.502 108.659 482 103.607 482C101.54 482 98.2637 481.089 93.7781 479.263C91.6969 478.372 90.1509 477.796 89.171 477.521C87.7926 477.182 86.9814 476.825 86.7666 476.508C86.5377 476.171 86.3539 475.18 86.2003 473.514C86.0477 471.69 85.604 469.053 84.8541 465.603C83.7206 460.349 83.1544 456.979 83.1544 455.512C83.1544 453.647 83.6142 452.715 84.5469 452.715C84.9615 452.715 85.2516 453.171 85.4353 454.104C86.9051 460.765 89.4461 466.376 93.0593 470.897C96.6865 475.437 100.438 477.697 104.326 477.697C107.341 477.697 110.051 476.19 112.424 473.196C114.797 470.204 115.99 466.774 115.99 462.888C115.99 459.834 115.363 457.315 114.123 455.353C112.883 453.369 110.74 451.507 107.694 449.782L100.866 445.817C94.4367 442.109 90.0735 438.599 87.7775 435.289C85.4655 431.977 84.318 427.556 84.318 422.064C84.318 415.679 85.9253 410.326 89.1399 406.023C92.3545 401.722 96.3502 399.579 101.142 399.579V399.579ZM160.186 399.579C165.773 399.579 170.641 401.126 174.805 404.219L177.759 406.439C178.356 406.896 178.892 407.135 179.382 407.135C179.978 407.135 180.423 406.818 180.713 406.203L181.663 404.398C181.816 404.1 182.076 403.943 182.474 403.943C183.408 403.943 183.867 405.191 183.867 407.708L183.913 411.953V417.246L184.265 421.667L184.679 424.284C184.848 425.554 184.939 426.703 184.939 427.715C184.939 429.181 184.525 429.915 183.684 429.915C183.209 429.915 182.903 429.46 182.749 428.527C182.504 427.04 181.678 424.801 180.255 421.746C178.846 418.713 177.484 416.314 176.198 414.528C170.993 407.252 165.206 403.605 158.838 403.605C153.189 403.605 148.597 406.618 145.075 412.626C141.54 418.653 139.78 426.465 139.78 436.061C139.78 448.611 142.657 458.604 148.429 466.079C152.776 471.651 157.491 474.447 162.603 474.447C165.62 474.447 168.819 473.514 172.202 471.63C175.585 469.747 178.249 467.407 180.193 464.631L183.102 460.509C183.515 459.894 183.929 459.556 184.311 459.516C184.877 459.478 185.169 459.913 185.169 460.785C185.169 462.392 183.99 464.93 181.632 468.399C175.433 477.461 167.794 482 158.716 482C149.913 482 142.78 478.351 137.3 471.075C131.803 463.8 129.064 454.34 129.064 442.685C129.064 436.28 130.09 430.034 132.156 423.907C134.223 417.801 136.978 412.825 140.407 408.997C146.056 402.713 152.654 399.579 160.186 399.579V399.579ZM244.901 399.579C250.488 399.579 255.356 401.126 259.521 404.219L262.475 406.439C263.073 406.896 263.608 407.135 264.098 407.135C264.695 407.135 265.138 406.818 265.429 406.203L266.379 404.398C266.531 404.1 266.792 403.943 267.19 403.943C268.123 403.943 268.583 405.191 268.583 407.708L268.628 411.953V417.246L268.981 421.667L269.394 424.284C269.563 425.554 269.654 426.703 269.654 427.715C269.654 429.181 269.241 429.915 268.398 429.915C267.925 429.915 267.618 429.46 267.466 428.527C267.221 427.04 266.393 424.801 264.97 421.746C263.562 418.713 262.2 416.314 260.913 414.528C255.709 407.252 249.922 403.605 243.553 403.605C237.905 403.605 233.313 406.618 229.792 412.626C226.256 418.653 224.495 426.465 224.495 436.061C224.495 448.611 227.373 458.604 233.144 466.079C237.492 471.651 242.206 474.447 247.32 474.447C250.336 474.447 253.535 473.514 256.918 471.63C260.301 469.747 262.964 467.407 264.909 464.631L267.817 460.509C268.23 459.894 268.643 459.556 269.026 459.516C269.593 459.478 269.884 459.913 269.884 460.785C269.884 462.392 268.706 464.93 266.347 468.399C260.148 477.461 252.509 482 243.43 482C234.63 482 227.496 478.351 222.015 471.075C216.52 463.8 213.779 454.34 213.779 442.685C213.779 436.28 214.805 430.034 216.871 423.907C218.938 417.801 221.693 412.825 225.123 408.997C230.771 402.713 237.37 399.579 244.901 399.579V399.579ZM289.892 451.229V467.547C289.892 473.653 292.097 477.103 296.52 477.877C297.455 478.035 297.913 478.492 297.913 479.284C297.913 480.255 297.577 480.731 296.887 480.731C296.55 480.731 296.137 480.671 295.632 480.553C292.632 479.978 289.556 479.682 286.386 479.682C284.718 479.682 283.202 479.76 281.855 479.918L279.084 480.255C278.563 480.334 278.043 480.375 277.508 480.375C276.666 480.375 276.252 479.879 276.252 478.868C276.252 478.154 276.62 477.697 277.37 477.461C279.742 476.726 280.922 473.851 280.922 468.815L280.875 466.376V445.599C280.875 442.802 280.6 440.958 280.049 440.046C279.497 439.154 278.304 438.599 276.466 438.402C275.777 438.321 275.441 437.924 275.441 437.172C275.441 436.32 275.839 435.823 276.65 435.664C280.753 434.852 284.244 433.366 287.151 431.184L288.897 429.855C289.141 429.657 289.372 429.558 289.57 429.558C290.029 429.558 290.244 429.974 290.244 430.826C290.244 431.104 290.228 431.66 290.213 432.513L290.076 435.763L289.892 439.373L289.937 440.007C290.061 440.563 290.274 440.84 290.611 440.879C290.902 440.919 291.56 439.987 292.57 438.083C293.382 436.618 294.621 435.049 296.306 433.366C298.006 431.68 299.153 430.826 299.781 430.826C300.807 430.826 302.322 431.838 304.343 433.841C306.364 435.862 307.389 437.37 307.42 438.381C307.42 438.737 306.946 440.085 305.981 442.445C304.756 445.44 303.685 446.926 302.75 446.926C302.368 446.926 302 446.729 301.679 446.352L300.424 444.885C298.893 443.08 297.148 442.168 295.174 442.168C291.652 442.168 289.892 445.181 289.892 451.229V451.229ZM350.207 431.998V468.002C350.207 471.71 350.452 474.01 350.925 474.882C351.4 475.755 352.686 476.19 354.783 476.19L355.809 476.131C356.177 476.131 356.437 476.171 356.62 476.25C357.125 476.488 357.386 476.904 357.386 477.521C357.386 478.887 356.375 479.562 354.34 479.562H352.18C350.957 479.562 349.992 479.601 349.303 479.682C347.481 479.84 345.354 480.295 342.934 481.068C342.629 481.187 342.353 481.247 342.124 481.247C341.465 481.247 341.128 480.533 341.128 479.106C341.128 478.312 341.159 477.658 341.219 477.123C341.282 476.349 341.312 475.755 341.312 475.378C341.312 474.209 341.113 473.614 340.73 473.573C340.578 473.573 340.347 473.812 340.011 474.269L338.403 476.428C335.648 480.137 332.342 482 328.499 482C324.075 482 320.738 480.414 318.503 477.242C316.252 474.07 315.135 469.35 315.135 463.124C315.135 454.876 315.257 447.739 315.487 441.693C315.517 440.622 315.534 439.69 315.534 438.915C315.534 436.28 314.66 434.873 312.885 434.672L311.094 434.496C310.252 434.415 309.869 433.9 309.93 432.929C309.961 432.195 310.42 431.699 311.293 431.441C312.18 431.184 313.879 431.065 316.39 431.065C318.717 431.065 320.799 430.668 322.62 429.895C323.433 429.578 324.06 429.439 324.504 429.439C325.025 429.439 325.269 429.876 325.269 430.768C325.269 431.818 325.239 432.869 325.176 433.96C324.916 438.064 324.78 445.241 324.78 455.512C324.78 463.402 325.33 468.696 326.432 471.334C327.55 473.99 329.754 475.318 333.075 475.318C335.679 475.318 337.683 474.308 339.077 472.284C340.485 470.282 341.189 467.389 341.189 463.641V441.989C341.189 438.698 340.96 436.676 340.501 435.922C340.026 435.169 338.725 434.633 336.567 434.277C335.632 434.159 335.174 433.701 335.174 432.869C335.174 431.66 336.076 431.065 337.868 431.065C343.073 431.065 346.67 430.608 348.675 429.678C349.073 429.479 349.379 429.379 349.624 429.379C350.038 429.34 350.252 429.737 350.252 430.549L350.207 431.998ZM370.842 402.137C371.469 402.137 372.602 403.446 374.21 406.083L376.092 409.215C376.536 409.968 376.781 410.643 376.812 411.258C376.842 412.189 376.016 413.955 374.348 416.552C372.678 419.148 371.515 420.438 370.888 420.438C370.474 420.438 370.077 420.2 369.678 419.744L367.581 416.432L365.606 413.518C365.102 412.705 364.841 412.051 364.841 411.555C364.841 410.782 365.73 409.018 367.489 406.261C369.249 403.506 370.367 402.137 370.842 402.137V402.137ZM375.694 433.86V466.774C375.694 470.719 376.153 473.474 377.057 475.021C377.976 476.567 379.674 477.44 382.154 477.638C383.15 477.718 383.639 478.154 383.639 478.986C383.639 479.998 382.461 480.494 380.087 480.494C379.797 480.494 379.154 480.434 378.158 480.315L374.807 479.858C372.939 479.622 371.714 479.502 371.118 479.502C369.54 479.502 367.398 479.78 364.704 480.315C364.045 480.473 363.54 480.553 363.188 480.553C362.56 480.553 362.239 480.177 362.239 479.442C362.239 478.927 362.438 478.552 362.82 478.273L364.351 477.281C365.01 476.865 365.561 475.854 366.035 474.269C366.494 472.682 366.724 471.017 366.724 469.272L366.678 466.832V447.164C366.678 444.15 366.433 442.049 365.942 440.898C365.438 439.729 364.55 439.154 363.264 439.154H362.239C361.673 439.154 361.274 438.996 361.075 438.698C360.983 438.539 360.937 438.262 360.937 437.865C360.937 436.914 361.856 436.16 363.677 435.664C368.224 434.415 371.79 432.553 374.393 430.034C374.715 429.756 374.976 429.618 375.159 429.618C375.571 429.657 375.786 430.013 375.786 430.727L375.74 431.244C375.71 431.601 375.694 432.472 375.694 433.86V433.86ZM400.616 431.284C402.652 431.284 404.872 431.719 407.306 432.61C408.531 433.087 409.189 433.842 409.279 434.891L409.358 437.448L409.587 441.097L409.679 443.08C409.739 443.357 409.77 443.596 409.77 443.773C409.77 444.508 409.448 444.885 408.821 444.885C408.347 444.885 407.566 443.614 406.478 441.058C404.366 436.101 401.688 433.623 398.458 433.623C396.851 433.623 395.457 434.277 394.295 435.586C393.131 436.914 392.548 438.46 392.548 440.245C392.548 443.497 394.295 446.054 397.799 447.957L400.892 449.583C403.525 451.012 405.316 452.121 406.28 452.915C407.228 453.707 408.148 454.858 409.004 456.325C410.474 458.842 411.209 461.935 411.209 465.623C411.209 470.183 410.031 474.07 407.673 477.242C405.301 480.414 402.422 482 399.009 482C397.156 482 394.89 481.584 392.227 480.771L389.134 479.799L387.114 479.383C386.456 479.224 386.135 478.689 386.135 477.757C386.135 477.44 386.15 476.964 386.18 476.31C386.242 475.656 386.272 474.902 386.272 474.05L386.135 467.705L386.088 464.87C386.088 463.977 386.15 463.423 386.287 463.204C386.426 462.987 386.777 462.888 387.344 462.888C387.819 462.888 388.141 463.402 388.323 464.454C388.676 466.892 389.671 469.827 391.278 473.217C393.221 477.242 395.795 479.263 398.963 479.263C400.753 479.263 402.253 478.531 403.449 477.084C404.642 475.635 405.239 473.812 405.239 471.591C405.239 469.173 404.657 467.229 403.509 465.801C402.361 464.355 400.172 462.808 396.942 461.143C393.085 459.219 390.405 457.157 388.921 454.957C387.421 452.775 386.671 449.822 386.671 446.094C386.671 441.573 387.926 437.966 390.437 435.289C392.947 432.61 396.346 431.284 400.616 431.284V431.284ZM434.646 431.244C439.284 431.244 443.28 433.602 446.633 438.321C449.434 442.327 450.843 446.312 450.843 450.297C450.843 451.804 450.03 452.556 448.424 452.556L446.357 452.438H445.332L442.591 452.498L434.126 452.676L429.687 452.736L428.172 452.676C427.298 452.676 426.747 452.815 426.503 453.073C426.181 453.468 426.012 454.182 426.012 455.234C426.012 460.349 427.298 464.87 429.885 468.796C432.473 472.721 435.458 474.685 438.841 474.685C442.637 474.685 445.669 473.276 447.933 470.441L449.373 468.637C449.618 468.339 449.863 468.181 450.138 468.181C450.796 468.181 451.118 468.577 451.118 469.391C451.118 470.52 449.97 472.404 447.658 475.041C443.602 479.682 439.224 482 434.57 482C429.395 482 425.171 479.7 421.91 475.081C418.648 470.48 417.026 464.532 417.026 457.257C417.026 450.217 418.772 444.111 422.246 438.976C425.736 433.821 429.869 431.244 434.646 431.244V431.244ZM433.406 434.159C431.37 434.159 429.595 435.446 428.063 438.044C426.548 440.641 425.783 443.695 425.783 447.204C425.783 448.315 425.997 449.008 426.427 449.226C426.87 449.463 428.033 449.583 429.946 449.583C430.942 449.583 431.983 449.544 433.085 449.463C435.778 449.306 437.326 449.226 437.738 449.226C440.371 449.226 441.689 448.195 441.689 446.094C441.689 442.96 440.846 440.205 439.162 437.787C437.463 435.368 435.549 434.159 433.406 434.159V434.159ZM470.406 431.284C472.442 431.284 474.662 431.719 477.096 432.61C478.32 433.087 478.979 433.842 479.07 434.891L479.147 437.448L479.378 441.097L479.469 443.08C479.53 443.357 479.56 443.596 479.56 443.773C479.56 444.508 479.239 444.885 478.612 444.885C478.137 444.885 477.357 443.614 476.269 441.058C474.157 436.101 471.478 433.623 468.248 433.623C466.64 433.623 465.248 434.277 464.084 435.586C462.92 436.914 462.339 438.46 462.339 440.245C462.339 443.497 464.084 446.054 467.59 447.957L470.683 449.583C473.315 451.012 475.106 452.121 476.071 452.915C477.019 453.707 477.938 454.858 478.795 456.325C480.265 458.842 481 461.935 481 465.623C481 470.183 479.821 474.07 477.463 477.242C475.091 480.414 472.213 482 468.799 482C466.947 482 464.681 481.584 462.017 480.771L458.925 479.799L456.904 479.383C456.247 479.224 455.925 478.689 455.925 477.757C455.925 477.44 455.941 476.964 455.971 476.31C456.032 475.656 456.063 474.902 456.063 474.05L455.925 467.705L455.878 464.87C455.878 463.977 455.941 463.423 456.078 463.204C456.215 462.987 456.568 462.888 457.133 462.888C457.609 462.888 457.929 463.402 458.114 464.454C458.467 466.892 459.461 469.827 461.068 473.217C463.012 477.242 465.583 479.263 468.754 479.263C470.544 479.263 472.044 478.531 473.238 477.084C474.432 475.635 475.03 473.812 475.03 471.591C475.03 469.173 474.448 467.229 473.3 465.801C472.151 464.355 469.963 462.808 466.732 461.143C462.875 459.219 460.195 457.157 458.712 454.957C457.211 452.775 456.461 449.822 456.461 446.094C456.461 441.573 457.716 437.966 460.227 435.289C462.737 432.61 466.135 431.284 470.406 431.284" fill="#23366C"/>
</svg>
