<svg width="649" height="431" viewBox="0 0 649 431" fill="none" xmlns="http://www.w3.org/2000/svg">
<path d="M137.871 241.421C137.874 241.421 137.871 176.861 137.871 176.861H41.3599V253.294C41.3599 253.294 49.9631 245.833 61.7823 245.106C78.6875 244.057 85.6737 251.809 101.715 254.38C121.33 257.514 134.143 246.198 137.139 242.923C137.871 242.08 137.754 241.859 137.838 241.667L137.871 241.421Z" fill="#508BBE"/>
<path d="M50.5081 239.399C53.7452 237.804 56.618 236.992 63.4295 236.622C79.8891 235.725 86.0321 241.461 101.6 243.729C113.841 245.511 120.743 242.945 125.949 239.815C128.714 238.154 127.982 238.59 129.43 237.453C130.713 236.449 131.023 235.745 130.837 235.046C130.782 234.837 130.542 234.837 130.075 235.128C129.707 235.352 129.003 235.79 129.003 235.79C116.75 243.819 100.688 239.102 86.6644 234.967C73.6136 231.121 57.5816 232.806 50.3275 237.657C50.3275 237.657 49.4662 238.18 48.8549 239.057C48.6532 239.345 48.1895 240.524 48.7616 240.273C49.4301 239.99 49.9661 239.631 50.5081 239.399Z" fill="white"/>
<path d="M69.5662 219.435L55.6903 202.321V219.435H49.46V192.51H55.2807L68.708 209.086V192.51H74.9323V219.435H69.5662Z" fill="white"/>
<path d="M93.6593 219.893C85.2248 219.893 78.9644 213.787 78.9644 206.054V205.972C78.9644 198.319 85.1043 192.052 93.9033 192.052C99.3085 192.052 102.543 193.746 105.208 196.204L101.194 200.556C98.9803 198.667 96.7308 197.513 93.8641 197.513C89.037 197.513 85.553 201.283 85.553 205.896V205.972C85.553 210.588 88.9527 214.434 93.8641 214.434C97.1374 214.434 99.1459 213.207 101.398 211.281L105.412 215.091C102.464 218.049 99.185 219.893 93.6593 219.893Z" fill="white"/>
<path d="M109.583 219.435V192.51H115.889V214.047H130.183V219.435H109.583Z" fill="white"/>
<path d="M184.988 217.41L164.033 191.576V217.41H154.641V176.773H163.415L183.693 201.795V176.773H193.089V217.41H184.988Z" fill="#231F20"/>
<path d="M243.78 197.091C243.78 190.123 238.339 184.319 230.675 184.319C223.012 184.319 217.697 190.015 217.697 196.975V197.091C217.697 204.06 223.132 209.864 230.802 209.864C238.462 209.864 243.78 204.173 243.78 197.207V197.091ZM230.675 218.108C217.323 218.108 207.748 208.761 207.748 197.207V197.091C207.748 185.535 217.447 176.078 230.802 176.078C244.151 176.078 253.73 185.428 253.73 196.975V197.091C253.73 208.645 244.03 218.108 230.675 218.108Z" fill="#231F20"/>
<path d="M293.653 190.643C293.653 186.814 290.81 184.84 286.176 184.84H276.714V196.515H286.359C290.997 196.515 293.653 194.19 293.653 190.765V190.643ZM293.466 217.41L284.194 204.408H276.714V217.41H267.199V176.773H286.977C297.176 176.773 303.301 181.825 303.301 190.188V190.298C303.301 196.86 299.531 200.98 294.023 202.901L304.596 217.41H293.466Z" fill="#231F20"/>
<path d="M364.689 217.703H356.411L346.642 191.112L336.871 217.703H328.593L313.819 176.773H324.015L332.977 204.292L342.682 176.657H350.84L360.548 204.292L369.51 176.773H379.462L364.689 217.703Z" fill="#231F20"/>
<path d="M390.863 217.41V176.773H423.505V184.724H400.324V192.968H420.72V200.921H400.324V209.459H423.815V217.41H390.863Z" fill="#231F20"/>
<path d="M457.46 218.108C443.994 218.108 434.716 209.23 434.716 197.205V197.094C434.716 185.538 444.298 176.078 457.406 176.078C465.19 176.078 469.887 178.049 474.404 181.646L468.406 188.443C465.069 185.832 462.1 184.322 457.09 184.322C450.17 184.322 444.668 190.069 444.668 196.978V197.094C444.668 204.527 450.112 209.98 457.776 209.98C461.233 209.98 464.326 209.171 466.741 207.542V201.735H457.156V194.017H475.949V211.668C471.498 215.206 465.377 218.108 457.46 218.108Z" fill="#231F20"/>
<path d="M490.801 176.773H500.316V217.41H490.801V176.773Z" fill="#231F20"/>
<path d="M534.831 187.221L529.086 200.4H540.58L534.831 187.221ZM547.936 217.409L543.064 208.3H525.686L521.729 217.409H512.021L530.564 176.485H539.339L557.886 217.409H547.936Z" fill="#231F20"/>
<path d="M599.543 217.41L578.588 191.576V217.41H569.193V176.773H577.971L598.243 201.795V176.773H607.641V217.41H599.543Z" fill="#231F20"/>
<path d="M165.424 252.593C159.055 252.593 154.322 247.977 154.322 242.145V242.086C154.322 236.308 158.965 231.568 165.611 231.568C169.691 231.568 172.133 232.852 174.142 234.71L171.113 237.988C169.447 236.571 167.746 235.697 165.578 235.697C161.931 235.697 159.305 238.542 159.305 242.03V242.086C159.305 245.57 161.871 248.475 165.578 248.475C168.056 248.475 169.568 247.547 171.266 246.094L174.299 248.964C172.073 251.204 169.601 252.593 165.424 252.593Z" fill="#231F20"/>
<path d="M194.42 238.862C194.42 236.944 192.998 235.957 190.68 235.957H185.949V241.8H190.773C193.092 241.8 194.42 240.635 194.42 238.918V238.862ZM194.329 252.248L189.689 245.746H185.949V252.248H181.185V231.927H191.08C196.181 231.927 199.244 234.447 199.244 238.63V238.683C199.244 241.967 197.356 244.034 194.603 244.988L199.894 252.248H194.329Z" fill="#231F20"/>
<path d="M215.658 252.57C209.837 252.57 206.287 249.518 206.287 243.539V231.927H211.045V243.421C211.045 246.733 212.813 248.444 215.718 248.444C218.624 248.444 220.383 246.789 220.383 243.568V231.927H225.147V243.39C225.147 249.544 221.464 252.57 215.658 252.57Z" fill="#231F20"/>
<path d="M233.301 231.924H238.065V252.248H233.301V231.924Z" fill="#231F20"/>
<path d="M254.263 252.536C250.986 252.536 247.677 251.464 245.075 249.284L247.894 246.116C249.842 247.632 251.881 248.591 254.35 248.591C256.304 248.591 257.479 247.864 257.479 246.673V246.614C257.479 245.485 256.738 244.903 253.121 244.029C248.758 242.985 245.942 241.851 245.942 237.818V237.753C245.942 234.068 249.098 231.627 253.519 231.627C256.675 231.627 259.361 232.557 261.559 234.215L259.087 237.58C257.168 236.333 255.28 235.578 253.462 235.578C251.631 235.578 250.676 236.364 250.676 237.351V237.411C250.676 238.746 251.607 239.181 255.341 240.078C259.734 241.152 262.212 242.637 262.212 246.181V246.238C262.212 250.276 258.93 252.536 254.263 252.536Z" fill="#231F20"/>
<path d="M269.437 252.248V231.927H285.761V235.898H274.164V240.021H284.369V244.001H274.164V248.271H285.917V252.248H269.437Z" fill="#231F20"/>
<path d="M305.599 252.248V231.927H310.362V248.181H321.155V252.248H305.599Z" fill="#231F20"/>
<path d="M328.039 231.924H332.802V252.248H328.039V231.924Z" fill="#231F20"/>
<path d="M356.483 252.248L345.998 239.328V252.248H341.3V231.927H345.697L355.833 244.439V231.927H360.533V252.248H356.483Z" fill="#231F20"/>
<path d="M368.811 252.248V231.927H385.138V235.898H373.542V240.021H383.75V244.001H373.542V248.271H385.292V252.248H368.811Z" fill="#231F20"/>
<path d="M397.078 235.68C396.765 235.513 396.265 235.428 395.575 235.428H394.518V237.832H395.642C396.163 237.832 396.557 237.779 396.831 237.688C397.31 237.507 397.557 237.153 397.557 236.647C397.557 236.172 397.388 235.841 397.078 235.68ZM395.744 234.634C396.617 234.634 397.259 234.718 397.665 234.877C398.397 235.162 398.758 235.72 398.758 236.551C398.758 237.145 398.529 237.575 398.075 237.858C397.828 238.008 397.491 238.118 397.051 238.18C397.611 238.259 398.005 238.48 398.261 238.833C398.523 239.184 398.641 239.524 398.641 239.857V240.341C398.641 240.494 398.653 240.658 398.659 240.83C398.674 241.008 398.692 241.121 398.725 241.175L398.77 241.263H397.611C397.602 241.24 397.59 241.215 397.587 241.195C397.578 241.172 397.575 241.15 397.575 241.116L397.548 240.907V240.38C397.548 239.62 397.322 239.116 396.876 238.867C396.617 238.726 396.147 238.655 395.494 238.655H394.518V241.263H393.269V234.634H395.744ZM391.959 234.3C390.89 235.307 390.354 236.534 390.354 237.974C390.354 239.419 390.884 240.652 391.956 241.67C393.022 242.688 394.329 243.203 395.858 243.203C397.388 243.203 398.743 242.555 399.776 241.67C400.905 240.706 401.387 239.419 401.387 237.974C401.387 236.534 400.848 235.307 399.776 234.3C398.692 233.279 397.388 232.77 395.858 232.77C394.341 232.77 393.04 233.279 391.959 234.3ZM400.414 242.247C399.159 243.426 397.644 244.023 395.858 244.023C394.088 244.023 392.573 243.426 391.323 242.247C390.08 241.071 389.459 239.642 389.459 237.962C389.459 236.308 390.089 234.885 391.342 233.709C392.585 232.529 394.097 231.944 395.858 231.944C397.644 231.944 399.159 232.529 400.414 233.709C401.667 234.882 402.297 236.299 402.297 237.962C402.297 239.642 401.667 241.062 400.414 242.247Z" fill="#231F20"/>
</svg>
