<svg width="460" height="138" viewBox="0 0 460 138" fill="none" xmlns="http://www.w3.org/2000/svg">
<g clip-path="url(#clip0_7_69)">
<path d="M227.734 4.6573C227.386 5.34395 227.86 6.07539 228.202 6.6053C226.768 7.78456 225.004 7.04566 223.421 7.0979C222.383 7.12029 221.675 8.21745 221.357 9.33699C220.968 10.7476 220.302 12.0463 219.384 13.0091C219.174 12.3075 218.736 11.5313 218.058 11.5761C216.865 11.7253 215.911 12.7777 214.759 13.121C215.095 14.4496 214.903 15.9124 215.329 17.2111C215.593 18.0246 216.409 17.9724 216.991 17.8828C217.081 20.0771 215.635 21.5773 214.903 23.3835C214.417 24.4807 214.885 25.7346 215.473 26.6078C216.253 27.705 216.799 29.0484 217.027 30.4889C216.451 30.4814 215.743 30.4963 215.413 31.2054C214.855 32.5638 215.119 34.161 214.807 35.6015C215.875 35.8851 216.775 36.7583 217.842 37.0196C218.598 37.2285 218.988 36.2807 219.216 35.5641C220.8 36.6091 221.111 38.9601 222.041 40.6693C222.581 41.6769 223.637 41.7739 224.519 41.6097C225.694 41.3485 226.93 41.3858 228.058 41.8933C227.656 42.4829 227.332 43.386 227.764 44.0876C228.477 45.2594 229.635 45.7893 230.463 46.8044C231.237 45.7445 232.388 45.2146 233.078 44.0577C233.45 43.3412 232.934 42.6098 232.622 42.0351C234.104 40.9006 235.861 41.6619 237.475 41.5649C238.447 41.5276 239.125 40.4901 239.436 39.4452C239.838 38.0271 240.45 36.6016 241.464 35.7209C241.668 36.4299 242.13 37.1987 242.808 37.0942C243.983 36.9375 244.919 35.9075 246.059 35.5716C245.723 34.2282 245.933 32.7429 245.477 31.4442C245.201 30.6531 244.397 30.6979 243.833 30.8247C243.827 29.7575 244.109 28.7125 244.601 27.8393C245.165 26.6601 246.095 25.6151 246.131 24.1523C246.041 23.0999 245.471 22.264 244.955 21.4728C244.385 20.4876 243.953 19.3606 243.809 18.1515C244.439 18.3008 245.261 18.0918 245.513 17.2559C245.903 15.9199 245.753 14.4645 246.011 13.0987C244.901 12.7777 243.959 11.8373 242.825 11.6358C242.148 11.5985 241.842 12.4642 241.614 13.1061C240.09 12.1508 239.73 9.93408 238.927 8.26223C238.459 7.20239 237.415 6.82175 236.503 7.02327C235.274 7.31435 233.966 7.32927 232.784 6.7695C233.096 6.17241 233.486 5.38127 233.114 4.67969C232.418 3.44819 231.207 2.91828 230.367 1.8659C229.581 2.9332 228.399 3.45566 227.734 4.6573ZM230.391 0H230.427C231.339 1.23896 232.37 2.39582 233.666 2.97052C234.2 3.28399 235.04 3.53776 235.052 4.44832C235.136 5.16483 234.776 5.75445 234.356 6.17241C235.418 6.06792 236.449 5.79177 237.493 5.5604C238.627 5.32902 239.67 6.36647 240.084 7.62036C240.48 8.88171 240.66 10.2252 241.116 11.4567C241.164 10.5909 241.44 9.50865 242.268 9.42655C243.053 9.46387 243.641 10.2326 244.277 10.7252C245.177 11.5462 246.263 11.9716 247.348 12.2179C246.922 13.7555 246.64 15.4049 246.862 17.032C246.91 17.7933 247.168 18.7113 246.7 19.3457C246.233 19.8682 245.573 19.8159 245.015 19.5845C245.615 20.5921 246.251 21.5624 246.928 22.4879C247.768 23.6447 247.528 25.4957 246.766 26.6153C246.089 27.5482 245.345 28.414 244.739 29.4291C245.405 29.0783 246.442 28.8618 246.814 29.8545C247.078 30.8845 246.802 31.9816 246.82 33.034C246.766 34.2431 247.012 35.4373 247.354 36.5643C246.029 36.8404 244.733 37.4599 243.677 38.5197C243.197 38.9377 242.706 39.602 242.064 39.4154C241.458 39.1915 241.164 38.46 241.032 37.7659C240.696 38.7287 240.372 39.6915 240.126 40.6991C239.946 41.6843 239.43 42.5949 238.639 42.9307C237.103 43.6547 235.579 42.4531 234.05 42.3411C234.38 42.7143 234.8 43.0427 234.926 43.6174C235.07 44.1548 234.908 44.8041 234.524 45.1176C233.744 45.7744 232.82 46.1028 232.046 46.782C231.411 47.2895 230.889 47.9836 230.409 48.7076C229.587 47.5731 228.663 46.4909 227.518 45.8863C226.96 45.543 226.294 45.3639 225.874 44.7593C225.514 43.9458 225.916 43.0352 226.396 42.4605C225.4 42.6322 224.411 42.8412 223.433 43.0875C222.209 43.4159 221.069 42.2516 220.68 40.8782C220.35 39.6691 220.116 38.4227 219.738 37.2285C219.6 37.9003 219.54 38.766 218.964 39.0944C218.238 39.5796 217.542 38.7959 216.967 38.3332C215.947 37.348 214.735 36.7135 213.464 36.4822C213.919 34.8775 214.183 33.1385 213.937 31.4442C213.883 30.7203 213.644 29.7425 214.231 29.2499C214.675 28.8096 215.257 28.9663 215.779 29.0633C215.185 28.0408 214.531 27.0855 213.859 26.1451C213.026 24.936 213.338 23.07 214.135 21.958C214.783 21.0773 215.491 20.2563 216.073 19.286C215.431 19.5621 214.561 19.8159 214.099 19.0024C213.71 18.1739 213.973 17.1589 213.979 16.2483C214.099 14.8451 213.865 13.442 213.476 12.1209C214.741 11.8373 216.001 11.2999 217.015 10.2849C217.464 9.8893 217.89 9.37431 218.448 9.2325C219.192 9.18772 219.636 10.1132 219.804 10.9043C220.2 9.76988 220.554 8.61302 220.86 7.44123C221.087 6.46349 221.831 5.78431 222.617 5.60518C224.039 5.28424 225.376 6.20227 226.774 6.359C226.306 5.88133 225.748 5.29171 225.844 4.44832C226 3.41834 226.918 3.14218 227.56 2.71676C228.669 2.13459 229.635 1.17179 230.391 0Z" fill="#010101"/>
<path d="M225.658 18.4949C224.458 19.8159 223.75 21.9431 224.176 23.9209C224.476 25.5704 225.49 26.8243 226.564 27.7721C226.57 27.1601 226.57 26.5481 226.576 25.9361C226.258 25.9361 225.94 25.9361 225.628 25.9361C225.628 25.4286 225.628 24.9136 225.628 24.4061C226.984 24.3911 228.339 24.3986 229.695 24.3986C229.695 24.9136 229.689 25.4286 229.689 25.9436C229.371 25.9361 229.059 25.9361 228.753 25.9361C228.729 26.9138 228.777 27.8916 228.807 28.8618C229.881 29.1753 230.996 29.1455 232.07 28.8544C232.064 27.8841 232.07 26.9064 232.07 25.9361C231.752 25.9361 231.44 25.9361 231.128 25.9361C231.128 25.4286 231.128 24.9136 231.128 24.3986C232.478 24.3986 233.834 24.3986 235.189 24.3986C235.183 24.9061 235.183 25.4211 235.189 25.9361C234.865 25.9361 234.547 25.9361 234.23 25.9436C234.272 26.5257 234.313 27.1004 234.367 27.6826C235.489 26.7496 236.437 25.3539 236.689 23.6672C237.025 21.7266 236.281 19.6965 235.105 18.4352C232.502 15.6139 228.231 15.6288 225.658 18.4949ZM227.379 15.1512C230.145 14.3376 233.174 14.6063 235.735 16.2035C237.169 17.1216 238.488 18.5247 239.124 20.413C239.778 22.2491 239.568 24.4882 238.644 26.1227C237.631 28.0334 235.975 29.2574 234.26 29.9814C234.224 30.8695 234.182 31.7652 234.14 32.6608C234.451 32.6534 234.763 32.6459 235.075 32.6384C235.081 33.0788 235.087 33.5117 235.093 33.952C233.81 33.952 232.526 33.9371 231.242 33.9595C231.23 33.5191 231.218 33.0862 231.218 32.6608C231.53 32.6534 231.848 32.6459 232.166 32.6459C232.166 31.9592 232.166 31.2726 232.172 30.5934C231.062 30.7576 229.947 30.8098 228.837 30.6158C228.771 31.2875 228.711 31.9667 228.645 32.6459C228.957 32.6459 229.275 32.6534 229.593 32.6534C229.593 33.0862 229.593 33.5117 229.593 33.9446C228.303 33.9371 227.007 33.9744 225.718 33.9222C225.724 33.4967 225.73 33.0713 225.736 32.6534C226.042 32.6534 226.36 32.6534 226.672 32.6534C226.672 31.7726 226.678 30.8919 226.66 30.0112C224.776 29.2499 222.947 27.8393 221.939 25.6599C221.051 23.794 221.117 21.3236 222.059 19.5099C223.223 17.1813 225.292 15.8154 227.379 15.1512Z" fill="#010101"/>
<path d="M9.77732 87.608C7.43196 88.8693 5.85439 91.5488 4.60074 94.2133C2.61528 98.5571 1.97346 103.789 2.74125 108.685C3.43106 113.089 4.82867 117.44 7.294 120.784C7.93582 121.605 8.48167 122.844 9.50739 122.918C10.5571 122.866 11.3309 121.732 11.7748 120.642C12.8665 117.918 12.4886 114.753 12.0807 111.872C11.061 104.819 9.59736 97.5719 10.755 90.3919C10.833 89.5485 11.2589 88.6678 10.971 87.8244C10.7311 87.2871 10.1612 87.399 9.77732 87.608ZM26.4647 71.4119C21.4141 72.2926 17.2153 76.9499 15.0319 82.5327C13.1904 87.2647 12.6085 92.6235 12.7585 97.8406C13.2804 104.304 14.2521 110.76 13.8982 117.283C13.7902 119.194 13.1544 121.097 12.0207 122.411C11.7268 122.792 11.3669 123.098 11.1329 123.545C10.815 124.254 11.4389 124.874 11.8827 125.187C15.1518 127.247 19.0268 127.725 22.5598 126.553C26.5367 125.247 30.0338 122.165 32.715 118.328C36.356 112.932 38.9413 106.431 40.225 99.5647C41.2027 94.1461 41.5146 88.3842 40.2669 82.988C39.8291 80.9579 38.9173 79.1592 37.8976 77.5022C36.7159 75.6214 35.2403 74.0018 33.5308 72.9047C31.3774 71.494 28.8701 70.9865 26.4647 71.4119ZM18.8768 74.2257C21.84 71.4269 25.565 69.7998 29.302 69.9192C32.1032 69.9192 34.8864 71.0238 37.2078 72.9718C40.3449 75.6139 42.6123 79.7563 43.566 84.3016C44.6217 89.459 44.1959 94.9074 43.2361 100.035C40.9687 110.111 35.7922 119.299 28.5642 124.769C24.0354 128.21 18.5829 130.188 13.2684 129.106C9.60336 128.389 6.31027 125.74 3.95291 122.232C1.66154 118.866 0.341906 114.582 0 110.2V106.073C0.485866 98.9825 3.43706 92.3698 7.6659 87.6602C9.02752 86.1451 10.839 85.4585 12.2126 83.9583C12.5785 83.5627 12.8305 83.0253 13.0524 82.4954C14.516 79.2935 16.5075 76.4573 18.8768 74.2257Z" fill="#010101"/>
<path d="M355.535 74.7556C359.056 72.3971 363.243 71.3223 367.184 72.4643C368.425 72.8673 369.709 73.4047 370.663 74.5242C371.334 75.2706 371.106 77.0022 370.153 77.1813C369.025 77.5769 368.065 76.5693 367.184 75.8752C365.786 74.681 364.136 73.8973 362.427 73.8749C360.651 73.8973 358.888 74.3675 357.274 75.2855C359.992 76.7857 362.499 79.1442 363.944 82.4282C365.102 85.0106 365.588 88.0035 365.51 90.9367C365.552 95.3776 364.082 99.7587 361.587 102.923C359.038 106.11 355.703 108.334 352.146 109.148C352.062 109.215 351.894 109.364 351.804 109.432C353.057 113.245 354.545 116.962 356.429 120.351C357.16 121.523 357.922 122.859 359.092 123.366C360.699 123.605 362.061 122.224 363.231 121.038C363.405 121.224 363.585 121.418 363.764 121.62C362.481 123.403 361.185 125.232 359.53 126.493C358.894 126.949 358.102 127.426 357.376 126.993C356.291 126.277 355.589 124.948 354.869 123.754C352.596 119.619 350.898 115.067 348.841 110.782C348.403 109.85 347.941 108.946 347.533 107.999C348.523 107.655 349.542 107.775 350.544 107.812C354.089 107.454 357.616 105.498 359.902 102.05C362.037 98.8332 362.877 94.5417 362.781 90.4367C362.667 86.6675 361.071 83.1373 358.774 80.7414C357.52 79.3905 356.069 78.3829 354.557 77.5619C351.564 80.2862 349.362 84.1971 347.947 88.4215C347.317 90.2053 346.939 92.1011 346.459 93.952C344.948 99.9155 343.28 105.819 341.403 111.618C340.281 115.014 339.141 118.44 337.468 121.485C336.268 123.642 334.708 125.605 332.717 126.568C331.343 127.24 329.826 127.456 328.374 127.18C327.222 126.896 326.041 126.18 325.435 124.874C325.177 124.329 325.243 123.381 325.813 123.187C326.209 123.157 326.713 123.015 327.031 123.426C327.612 124.023 328.08 124.829 328.818 125.135C330.228 125.725 331.835 125.583 333.149 124.725C334.385 123.948 335.356 122.665 336.13 121.269C337.42 118.985 338.241 116.365 338.979 113.753C341.121 105.946 343.16 98.0869 345.541 90.3844C347.005 85.3913 349.542 80.9131 352.734 77.3903C352.811 76.8678 352.428 76.7782 352.128 76.6588C348.487 75.2407 344.546 75.1064 340.827 76.0991C336.526 77.2783 332.495 80.2115 329.76 84.5404C327.462 88.1528 326.035 92.9668 326.869 97.5794C327.678 101.961 331.031 105.103 334.534 105.58C336.238 105.677 337.846 104.827 339.351 103.931C338.943 105.588 337.54 106.252 336.346 106.775C333.935 107.693 331.211 107.678 328.908 106.297C326.167 104.73 324.235 101.311 323.845 97.6017C323.252 93.0042 324.883 88.4588 327.031 84.824C329.454 80.7638 332.867 77.6963 336.634 75.8453C340.479 73.9495 344.654 73.2778 348.775 73.4569C351.054 73.5764 353.339 73.9421 355.535 74.7556Z" fill="#010101"/>
<path d="M151.206 113.469C148.843 115.843 147.038 119.179 146.45 122.918C145.94 125.881 146.102 129.136 147.433 131.748C150.732 129.725 153.264 126.187 155.159 122.329C157.325 117.992 158.704 113.141 160.216 108.417C156.947 109.178 153.792 110.85 151.206 113.469ZM142.905 83.9135C140.217 85.7794 137.938 88.6454 136.648 92.1533C135.521 95.2134 135.143 98.6914 135.581 102.005C135.953 104.752 137.11 107.431 139.03 108.969C141.225 110.738 144.182 111.126 146.57 109.708C148.597 108.514 150.211 106.446 151.428 104.14C153.258 100.61 154.32 96.3926 154.134 92.1757C153.906 87.9289 152.238 83.9359 149.851 80.9504C147.439 81.5027 145.046 82.3909 142.905 83.9135ZM184.461 80.8534C182.734 83.0328 181.72 85.8839 180.838 88.6977C179.609 92.631 178.529 96.6315 177.611 100.692C180.85 99.0497 184.071 96.9972 186.489 93.7729C188.744 90.8024 190.07 86.8392 190.376 82.7865C190.52 81.1519 189.632 79.495 188.342 79.092C186.903 78.6367 185.463 79.6294 184.461 80.8534ZM134.477 78.1142C136.678 75.6662 139.69 74.6511 142.599 74.666C145.61 74.5839 148.609 76.0543 150.828 78.5695C152.574 78.4277 154.314 78.1665 156.071 78.1739C158.878 78.0769 161.667 78.7561 164.361 79.704C167.066 80.734 169.831 82.0252 171.913 84.4956C171.151 85.1898 170.347 85.8465 169.729 86.7571C168.674 88.2797 167.942 90.1157 167.45 92.0264C166.25 96.4897 165.021 100.938 163.821 105.401C165.374 104.991 166.934 104.58 168.488 104.162C168.818 103.088 169.045 101.856 169.765 101.057C170.581 100.789 170.665 101.99 170.497 102.684C171.727 103.035 173.022 102.879 174.21 102.356C175.68 98.9601 176.621 95.2582 177.887 91.7353C178.889 88.9589 179.783 86.0705 181.312 83.6672C182.818 81.2564 184.671 79.0845 186.933 77.8455C188.132 77.1888 189.602 76.9499 190.771 77.8157C191.905 78.6068 192.403 80.2787 192.415 81.8237C192.511 84.4658 191.665 87.0034 190.55 89.1977C189.128 91.9667 187.262 94.3327 185.247 96.43C182.572 99.1766 179.609 101.505 176.375 103.088C174.39 109.678 172.369 116.253 170.497 122.896C170.197 123.695 170.479 124.956 171.301 124.956C172.423 124.896 173.316 123.918 174.258 123.262C173.754 124.389 172.914 125.172 172.129 125.956C171.097 126.896 169.975 127.792 168.71 128.128C168.2 128.262 167.486 128.277 167.228 127.598C166.82 126.561 167.282 125.463 167.546 124.471C169.471 117.948 171.541 111.499 173.592 105.036C172.249 105.065 170.911 105.14 169.573 105.23C168.997 106.707 168.434 108.193 167.696 109.558C167.69 108.558 167.84 107.566 167.996 106.595C166.46 106.745 164.931 106.909 163.395 107.028C161.709 113.454 159.358 119.709 155.867 124.934C153.72 128.188 151.062 130.987 147.973 132.733C148.759 134.823 150.019 136.771 151.794 137.622C153.672 138.555 155.771 137.823 157.529 136.801C156.839 137.711 155.969 138.368 155.015 138.741H151.218C149.173 137.95 147.307 136.323 146.174 134.039C144.116 134.248 142.065 134.696 139.995 134.517C138.37 134.397 136.714 134.024 135.275 133.039C134.417 132.442 133.619 131.613 133.193 130.494C132.941 129.852 133.289 128.949 133.877 128.889C134.699 128.762 135.197 129.703 135.689 130.345C136.486 131.546 137.464 132.606 138.664 133.121C140.757 134.047 143.055 133.845 145.184 133.241C145.04 130.718 144.566 128.203 144.794 125.665C145.058 121.993 146.438 118.575 148.303 115.761C151.59 110.902 156.191 107.528 161.098 105.909C162.447 102.281 163.461 98.4675 164.379 94.6462C164.997 92.2802 165.872 89.9366 167.294 88.1528C167.75 87.5632 168.374 87.19 168.77 86.5332C169.081 85.9361 168.638 85.2719 168.254 84.9285C167.384 84.2046 166.406 83.7269 165.458 83.197C161.566 81.1669 157.349 79.7115 153.09 80.1667C154.649 84.3837 155.933 88.929 155.759 93.6386C155.531 97.5644 154.35 101.356 152.574 104.588C150.78 107.827 148.207 110.529 145.124 111.596C143.001 112.32 140.661 112.499 138.586 111.462C136.492 110.424 134.963 108.073 134.249 105.461C133.547 102.886 133.325 100.042 133.931 97.4077C134.897 92.8997 136.954 88.7798 139.69 85.5928C142.059 82.8238 144.974 80.8459 148.069 79.6592C146.99 77.95 145.508 76.629 143.816 76.0394C141.045 75.0616 137.992 75.8677 135.605 77.8008C133.997 79.092 132.713 81.1594 132.444 83.5627C132.294 85.2495 132.414 87.0183 133.055 88.5484C132.863 88.7872 132.671 89.0261 132.486 89.2649C131.502 88.8171 130.962 87.5184 131.088 86.257C131.322 83.1373 132.617 80.1966 134.477 78.1142Z" fill="#010101"/>
<path d="M237.067 79.077C239.22 78.0247 241.392 77.0171 243.479 75.7557C243.353 78.0098 242.789 80.1817 242.207 82.3088C240.792 87.3617 238.962 92.213 237.313 97.1539C235.459 102.662 233.606 108.178 232.04 113.828C231.65 115.365 231.206 116.918 231.086 118.537C231.038 119.5 231.686 120.485 232.496 120.366C233.738 120.134 234.565 118.843 235.591 118.074C235.627 118.321 235.567 118.522 235.405 118.672C234.116 120.06 232.724 121.329 231.206 122.314C230.535 122.702 229.767 123.224 229.017 122.866C228.411 122.485 228.255 121.545 228.213 120.776C228.081 117.865 229.065 115.141 229.827 112.462C232.664 103.199 235.783 94.0789 238.734 84.8763C239.172 83.3238 239.772 81.7863 239.874 80.1294C239.778 79.0323 238.746 78.674 238.038 79.1293C237.846 79.7712 237.397 79.2338 237.067 79.077Z" fill="#010101"/>
<path d="M53.8769 99.7662C51.7175 101.871 49.96 104.528 48.3884 107.304C46.181 111.275 44.3515 115.589 42.9899 120.112C45.1133 120.478 47.2787 119.836 49.1622 118.604C52.3353 116.574 54.7947 113.156 56.6122 109.387C57.7039 107.088 58.6696 104.662 59.1675 102.058C59.3234 101.042 59.5333 99.9229 59.1734 98.9377C58.9215 98.1839 58.2617 97.7286 57.6199 97.766C56.2103 97.7734 54.9746 98.7735 53.8769 99.7662ZM50.6798 79.5547C52.5153 78.3904 54.3748 77.2858 56.2403 76.1886C55.8024 79.2562 54.9446 82.2043 54.1348 85.145C52.3473 91.4144 50.3679 97.6018 48.3284 103.744C50.8117 100.908 53.553 98.3481 56.6241 96.5643C58.1837 95.6985 59.8753 94.9372 61.6148 95.1462C62.3526 95.2507 63.0004 95.9448 63.1863 96.8405C63.5402 98.4004 63.1743 100.027 62.7785 101.52C61.6808 105.304 59.8873 108.767 57.6199 111.626C54.9206 115.111 51.7475 118.03 48.2924 120.246C45.4852 122.03 42.3781 123.217 39.2109 123.292C42.78 112.656 46.337 102.005 49.5941 91.2054C50.4638 88.2498 51.3816 85.3092 52.0414 82.264C52.2274 81.6072 52.1674 80.7564 51.6275 80.3906C50.8057 79.8234 49.906 80.4802 49.0902 80.7265C49.5701 80.2339 50.1339 79.9055 50.6798 79.5547Z" fill="#010101"/>
<path d="M280.074 99.2661C277.867 99.4005 275.672 99.7587 273.506 100.311C271.167 100.736 268.942 102.043 267.16 103.976C265.816 105.461 264.851 107.625 264.941 109.917C264.893 112.268 265.75 114.567 267.112 116.164C268.606 118.082 270.633 119.254 272.721 119.799C276.841 120.791 281.22 120.209 285.089 118.157C288.382 116.447 291.153 113.529 293.673 110.432C292.671 109.208 291.645 108.014 290.542 106.939C288.016 104.438 284.945 102.349 281.634 102.513C279.799 102.461 277.783 103.349 276.841 105.416C275.792 107.648 275.624 110.312 275.63 112.842C274.754 111.865 274.388 110.372 274.478 108.939C274.568 106.663 275.828 104.774 277.213 103.423C279.709 100.99 282.948 99.2064 286.169 100.087C289.84 101.028 292.701 104.252 295.478 107.163C296.804 104.73 298.028 102.102 298.459 99.1766C292.329 99.2288 286.187 98.4974 280.074 99.2661ZM285.287 78.2784C287.327 77.8082 289.426 77.7261 291.489 78.062C290.662 80.8907 289.822 83.7045 288.988 86.5257C288.76 86.4287 288.532 86.3242 288.31 86.2197C288.574 84.9808 288.934 83.6224 288.49 82.376C288.106 81.2639 287.057 80.8832 286.175 80.7489C283.919 80.5474 281.61 81.0251 279.547 82.2192C278.539 82.8313 277.555 83.6224 276.895 84.7793C275.768 86.6526 275.702 89.3321 276.523 91.3995C277.189 93.0788 278.533 94.1386 279.913 94.7507C281.646 95.5045 283.482 95.7881 285.293 96.0493C290.254 96.6912 295.244 96.721 300.223 96.7584C303.114 96.6912 306.071 96.5942 308.849 95.4746C310.462 94.8328 311.986 93.4744 312.61 91.4443C313.107 90.0411 313.023 88.4887 313.035 86.996C313.683 87.2348 314.367 87.7647 314.439 88.6902C314.631 91.0935 313.335 93.1609 312.004 94.7059C309.023 98.1242 305.094 100.595 300.967 100.483C299.905 103.662 298.675 106.827 296.72 109.327C299.431 112.469 302.172 115.567 304.896 118.686C305.394 119.194 305.885 119.873 306.575 119.933C307.739 119.627 308.549 118.463 309.382 117.507C307.937 119.896 306.383 122.179 304.902 124.538C301.441 120.537 297.986 116.529 294.537 112.514C291.519 115.35 288.526 118.283 285.119 120.373C281.43 122.739 277.267 123.986 273.116 123.896C270.999 123.948 268.84 123.501 266.938 122.299C265.127 121.105 263.573 119.172 262.841 116.761C261.744 113.074 262.445 108.767 264.413 105.737C266.416 102.468 269.511 100.52 272.685 99.6468C276.074 98.6989 279.571 98.5646 283.026 98.5646C283.68 98.4526 284.489 98.7064 284.999 98.057C285.293 97.4077 284.675 96.9599 284.225 96.9823C281.814 96.9524 279.355 96.6837 277.093 95.594C275.852 94.9895 274.592 94.1461 273.866 92.7056C273.2 91.407 273.212 89.7351 273.596 88.317C274.028 86.787 274.838 85.4734 275.768 84.3538C278.401 81.2788 281.73 79.092 285.287 78.2784Z" fill="#010101"/>
<path d="M119.337 85.1823C119.907 84.8986 120.687 85.1226 120.879 85.9286C121.377 87.5184 119.691 89.4962 118.516 88.3618C117.616 87.3915 118.324 85.548 119.337 85.1823Z" fill="#010101"/>
<path d="M440.165 88.0782C441.203 88.1677 442.24 88.0259 443.248 87.7199C442.552 89.8993 441.869 92.0936 441.137 94.258C442.426 94.258 443.716 94.3327 445.006 94.3924C444.898 94.6909 444.79 94.9969 444.7 95.3029C443.374 95.3253 442.054 95.2955 440.735 95.3179C439.463 99.0348 438.12 102.707 436.914 106.461C435.84 109.7 434.538 112.805 433.513 116.067C433.183 117.201 432.721 118.455 433.057 119.679C433.237 120.403 433.921 120.754 434.496 120.575C435.852 120.217 437.088 119.373 438.245 118.455C438.365 118.709 438.479 118.97 438.605 119.231C437.298 120.455 435.852 121.455 434.323 122.194C433.195 122.717 431.995 123.187 430.777 123C430.07 122.881 429.362 122.194 429.356 121.254C429.284 119.866 429.806 118.597 430.184 117.328C432.619 110.006 435.228 102.774 437.64 95.4298C436.446 95.4448 435.246 95.3477 434.059 95.2955C434.155 94.9895 434.269 94.6909 434.377 94.3849C435.66 94.3775 437.232 94.579 438.138 93.1907C439.085 91.6831 439.565 89.8247 440.165 88.0782Z" fill="#010101"/>
<path d="M211.004 88.0856C212.042 88.1677 213.073 88.0259 214.081 87.7423C213.403 89.9217 212.695 92.0936 211.994 94.2581C213.277 94.2506 214.567 94.3327 215.856 94.3999C215.749 94.6909 215.641 94.9895 215.539 95.288C214.219 95.3328 212.899 95.2955 211.586 95.3179C210.548 98.266 209.522 101.229 208.497 104.192C207.201 108.469 205.425 112.499 204.142 116.783C203.884 117.701 203.608 118.724 203.896 119.687C204.1 120.396 204.784 120.769 205.359 120.567C206.709 120.217 207.933 119.366 209.09 118.47C209.186 118.642 209.372 118.993 209.462 119.164C207.729 120.903 205.677 122.142 203.524 122.844C202.582 123.075 201.448 123.277 200.651 122.456C200.039 121.799 200.135 120.664 200.315 119.784C200.675 118.276 201.191 116.836 201.67 115.388C203.926 108.723 206.283 102.117 208.479 95.4298C207.285 95.4373 206.097 95.3552 204.904 95.2955C205.005 94.9895 205.107 94.6835 205.221 94.3849C206.463 94.37 207.963 94.579 208.886 93.3176C209.912 91.81 210.392 89.8769 211.004 88.0856Z" fill="#010101"/>
<path d="M416.148 99.1019C418.571 97.6316 420.887 95.8702 423.034 93.8475C423.262 95.3179 423.004 96.8031 422.722 98.2287C422.344 100.087 421.792 101.871 421.3 103.685C422.644 101.863 424.042 100.102 425.469 98.378C426.789 96.8703 428.133 95.3104 429.788 94.3849C430.574 93.9296 431.528 93.8475 432.289 94.4372C431.966 95.5791 431.672 96.736 431.354 97.8854C430.118 97.5346 428.786 97.4525 427.611 98.1242C425.487 99.3034 423.94 101.587 422.584 103.871C419.351 109.305 417.911 115.932 416.262 122.276C415.14 122.62 414.024 122.993 412.927 123.433C414.96 116.492 417.138 109.603 418.739 102.483C418.925 101.468 419.315 100.348 418.859 99.3482C418.049 98.7661 417.234 99.6468 416.496 100.027C416.37 99.7214 416.262 99.4079 416.148 99.1019Z" fill="#010101"/>
<path d="M227.379 94.4147C228.489 94.1311 229.767 93.7729 230.804 94.5416C231.578 95.1536 231.512 96.4747 231.182 97.4002C230.42 99.6393 229.011 101.453 227.451 102.878C225.88 104.207 224.11 105.17 222.299 105.864C221.501 106.11 220.649 106.476 219.839 106.125C219.305 105.879 219.023 105.215 218.795 104.618C221.657 105.17 224.746 104.17 226.857 101.64C227.607 100.699 228.273 99.4452 228.159 98.057C228.045 97.0345 227.115 96.5792 226.383 96.5941C224.878 96.6538 223.486 97.5569 222.317 98.669C219.833 101.08 218.088 104.461 216.744 107.961C215.664 110.894 214.867 114.052 214.795 117.298C214.795 118.492 215.028 119.851 215.88 120.56C216.804 121.329 217.992 121.06 218.975 120.634C220.463 119.948 221.717 118.664 222.808 117.261C224.8 114.619 226.221 111.409 227.349 108.096C227.679 108.961 227.763 109.954 227.535 110.879C227.007 113.268 225.718 115.253 224.338 116.985C222.7 118.918 220.955 120.761 218.987 122.164C217.674 123.075 216.216 123.889 214.681 123.836C213.583 123.814 212.533 123 212.089 121.754C211.429 119.97 211.699 117.948 211.957 116.089C212.923 110.394 215.124 104.938 218.574 100.953C221.075 98.0271 224.02 95.5044 227.379 94.4147Z" fill="#010101"/>
<path d="M375.707 97.1166C377.74 95.5417 380.014 94.2281 382.443 94.0789C383.205 94.064 384.135 94.3102 384.501 95.2581C384.824 96.2956 384.417 97.3927 384.033 98.3182C382.671 101.274 380.398 103.453 377.896 104.752C376.565 105.461 375.185 106.148 373.733 106.274C372.894 106.357 372.276 105.521 371.988 104.632C373.493 104.789 375.047 104.864 376.499 104.214C378.166 103.543 379.792 102.363 380.788 100.527C381.183 99.7512 381.513 98.7959 381.321 97.8629C381.093 96.9001 380.2 96.5568 379.474 96.6016C377.878 96.7061 376.433 97.7286 375.215 98.9601C373.044 101.177 371.472 104.162 370.218 107.252C368.983 110.387 368.071 113.79 367.993 117.298C368.017 118.336 368.143 119.493 368.779 120.246C369.331 120.955 370.188 121.149 370.95 121.008C372.648 120.731 374.111 119.493 375.341 118.082C377.698 115.335 379.27 111.753 380.572 108.118C380.925 109.073 380.931 110.17 380.668 111.163C380.038 113.626 378.658 115.656 377.176 117.41C375.455 119.381 373.625 121.276 371.526 122.605C370.314 123.344 368.983 123.978 367.615 123.814C366.589 123.695 365.666 122.859 365.258 121.687C364.658 120 364.88 118.097 365.12 116.328C365.714 112.566 366.883 108.939 368.557 105.707C370.404 102.244 372.894 99.3407 375.707 97.1166Z" fill="#010101"/>
<path d="M110.922 98.5198C113.219 96.9524 115.624 95.6612 118.012 94.3476C117.994 96.5344 117.334 98.5869 116.74 100.61C115.186 105.573 113.387 110.409 111.737 115.32C111.42 116.38 111.024 117.418 110.868 118.545C110.718 119.336 111.342 120.037 111.941 120.067C112.571 120.015 113.147 119.679 113.747 119.478C111.809 121.037 109.746 122.366 107.581 123.359C107.647 119.097 109.146 115.179 110.46 111.327C111.731 107.648 113.183 104.05 114.245 100.266C114.551 99.3706 114.647 97.96 113.729 97.5943C112.739 97.542 111.857 98.2137 110.922 98.5198Z" fill="#010101"/>
<path d="M250.222 94.7507C251.889 94.1536 253.665 94.1461 255.374 94.4148C254.289 96.8032 253.131 99.1393 251.985 101.483C251.769 101.296 251.547 101.102 251.337 100.916C251.631 99.923 252.237 98.9527 252.093 97.8481C251.871 96.945 250.971 96.8405 250.33 96.8405C247.798 96.7285 245.507 99.8558 245.969 102.998C246.605 106.125 248.44 108.797 248.464 112.126C248.536 113.671 248.29 115.253 247.648 116.597C246.665 118.687 245.153 120.299 243.587 121.694C242.148 122.933 240.45 123.993 238.651 123.732C237.571 123.62 236.395 122.874 236.066 121.5C235.784 120.164 236.173 118.806 236.557 117.567C237.229 118.866 237.985 120.239 239.185 120.843C242.04 122.336 245.675 119.612 246.023 115.806C246.185 114.141 245.447 112.663 244.967 111.186C244.379 109.387 243.479 107.685 243.384 105.7C243.174 103.311 244.211 101.11 245.369 99.311C246.677 97.3779 248.218 95.497 250.222 94.7507Z" fill="#010101"/>
<path d="M392.413 94.9894C394.224 94.1386 396.222 94.1162 398.129 94.4147C397.02 96.7956 395.874 99.1467 394.728 101.498C394.494 101.289 394.284 101.08 394.068 100.863C394.386 99.9751 394.854 99.087 394.866 98.0943C394.8 97.0568 393.81 96.818 393.139 96.8404C390.511 96.6538 388.082 100.042 388.76 103.274C389.282 105.304 390.121 107.185 390.751 109.163C391.375 111.447 391.441 114.089 390.523 116.268C389.642 118.358 388.184 119.948 386.696 121.358C385.239 122.694 383.529 123.881 381.664 123.769C380.47 123.709 379.121 122.956 378.785 121.403C378.575 120.112 378.869 118.776 379.306 117.597C379.966 118.836 380.668 120.157 381.808 120.776C384.729 122.441 388.55 119.56 388.778 115.596C388.856 113.828 388.028 112.29 387.53 110.7C386.984 109.073 386.199 107.506 386.121 105.692C385.917 103.147 387.074 100.833 388.34 98.9601C389.504 97.3778 390.763 95.7731 392.413 94.9894Z" fill="#010101"/>
<path d="M453.193 95.9224C455.263 94.1535 457.926 94.049 460.337 94.4148C459.228 96.7882 458.082 99.1392 456.936 101.483C456.714 101.304 456.498 101.117 456.288 100.945C456.534 100.072 456.966 99.281 457.068 98.3556C457.128 97.7585 456.81 97.1838 456.348 97.027C453.805 96.0269 450.896 98.7362 450.86 102.028C450.788 103.296 451.31 104.431 451.682 105.573C452.335 107.551 453.301 109.446 453.385 111.641C453.541 113.462 453.241 115.35 452.449 116.903C451.49 118.791 450.098 120.269 448.67 121.567C447.213 122.851 445.491 123.978 443.656 123.747C442.516 123.65 441.304 122.844 440.986 121.396C440.753 120.09 441.106 118.769 441.502 117.567C442.18 118.925 443.002 120.321 444.262 120.911C447.021 122.209 450.416 119.702 450.932 116.112C451.208 114.298 450.392 112.663 449.864 111.051C449.288 109.297 448.412 107.633 448.328 105.692C448.137 103.789 448.826 101.953 449.654 100.408C450.614 98.6839 451.808 97.139 453.193 95.9224Z" fill="#010101"/>
<path d="M81.188 100.065C83.2635 98.2287 85.4409 96.5643 87.4863 94.6835C87.5763 97.8704 86.5806 100.878 85.7528 103.834C88.0622 101.266 90.1856 98.3929 92.7349 96.1613C93.8266 95.2134 95.1882 94.2431 96.5498 94.8925C96.3159 95.9448 96.004 96.9673 95.7461 98.0048C94.1985 97.5271 92.507 97.7883 91.1693 98.893C88.638 100.908 86.9045 104.088 85.3869 107.245C83.2695 111.924 82.1118 117.134 80.7802 122.209C79.8264 122.515 78.8727 122.851 77.9189 123.187C79.9344 116.201 82.1598 109.297 83.6894 102.11C83.8813 101.229 84.1152 99.9304 83.3235 99.393C82.5737 99.0273 81.8779 99.7961 81.188 100.065Z" fill="#010101"/>
<path d="M195.432 96.0493C196.974 95.288 198.575 94.6611 200.243 94.5193C200.747 94.467 201.322 94.6014 201.616 95.1686C201.886 95.9373 201.568 96.7285 201.382 97.4599C198.095 96.9449 194.586 97.3554 191.719 99.5572C189.146 101.453 187.412 104.64 186.141 107.924C185.115 110.648 184.263 113.537 184.095 116.552C183.981 118.179 184.521 120.06 185.799 120.739C186.878 121.381 188.114 120.896 189.092 120.194C190.711 119.015 192.007 117.253 193.171 115.44C194.826 112.701 196.218 109.611 196.758 106.215C196.974 104.849 197.052 103.192 196.194 102.132C195.498 101.281 194.388 101.692 193.705 102.341C192.433 103.528 191.743 105.379 191.029 107.088C190.621 105.394 191.443 103.752 192.301 102.52C193.411 100.99 194.832 99.6468 196.488 99.2661C197.699 98.9526 198.989 99.7811 199.565 101.125C200.357 102.841 200.111 104.946 199.685 106.76C198.761 110.432 196.758 113.514 194.58 116.171C192.577 118.507 190.411 120.702 187.94 122.209C186.56 122.993 184.971 123.717 183.459 123.112C181.984 122.53 181.036 120.664 180.976 118.791C180.886 115.82 181.642 112.925 182.698 110.297C185.415 103.879 190.034 98.7661 195.432 96.0493Z" fill="#010101"/>
<path d="M411.541 94.9148C412.543 94.6909 413.647 94.2282 414.631 94.7656C415.386 95.4074 414.948 96.6315 414.69 97.4749C411.133 96.8703 407.289 97.4749 404.331 100.147C401.374 102.789 399.629 106.976 398.399 111.126C397.853 113.104 397.391 115.164 397.415 117.276C397.451 118.806 398.183 120.411 399.407 120.873C400.618 121.373 401.884 120.649 402.886 119.828C405.069 117.963 406.749 115.298 408.092 112.484C409.154 110.178 410.036 107.655 410.216 104.976C410.3 103.804 410.042 102.408 409.148 101.811C408.14 101.304 407.079 102.132 406.407 103.035C405.483 104.155 405.021 105.685 404.337 106.998C404.049 105.707 404.505 104.401 405.099 103.364C406.107 101.602 407.528 100.169 409.172 99.4527C410.21 98.99 411.451 99.1766 412.267 100.154C413.401 101.423 413.551 103.498 413.299 105.259C412.783 108.827 411.073 111.917 409.16 114.559C406.791 117.671 404.109 120.53 400.978 122.374C399.599 123.12 397.967 123.777 396.509 122.978C395.112 122.239 394.296 120.358 394.29 118.522C394.284 114.679 395.52 111.006 397.181 107.834C400.516 101.587 405.687 96.8031 411.541 94.9148Z" fill="#010101"/>
<path d="M72.1722 97.1912C74.0796 95.8478 76.203 94.6834 78.4404 94.7506C79.1902 94.7282 80.078 95.3328 80.06 96.3851C79.988 97.9226 79.2262 99.2288 78.4824 100.393C76.431 103.483 73.3838 105.259 70.3187 106.222C69.4549 106.543 68.4052 106.327 68.0153 105.2C70.7445 105.64 73.6417 104.64 75.6932 102.319C76.521 101.341 77.2408 100.02 77.1928 98.5496C77.1268 97.4898 76.257 96.7882 75.4532 96.7882C74.0076 96.721 72.634 97.5196 71.4763 98.5347C68.7051 100.998 66.8396 104.715 65.418 108.499C64.3863 111.424 63.5825 114.567 63.6245 117.791C63.6185 119.082 64.0384 120.522 65.0341 121.112C66.2578 121.761 67.6554 121.254 68.7951 120.545C71.1764 118.963 72.9399 116.261 74.3436 113.447C75.0754 112.021 75.5912 110.454 76.233 108.969C76.539 110.432 76.0711 111.917 75.5072 113.186C74.4095 115.649 72.706 117.567 70.9785 119.358C69.6888 120.679 68.3092 121.896 66.7856 122.791C65.6519 123.426 64.4043 123.911 63.1566 123.657C62.1789 123.448 61.3811 122.493 61.0932 121.336C60.6493 119.627 60.9132 117.798 61.1712 116.074C62.0109 111.424 63.6545 106.916 66.2038 103.326C67.9073 100.893 69.9348 98.8257 72.1722 97.1912Z" fill="#010101"/>
<path d="M101.282 97.4525C103.136 96.3852 105.073 95.4448 107.113 95.1985C107.598 95.191 108.222 95.0418 108.57 95.5866C108.906 96.2061 108.594 96.9375 108.456 97.5794C105.403 97.1838 102.182 97.4749 99.4467 99.3408C97.1614 100.819 95.4218 103.319 94.1682 106.073C92.8065 109.043 91.7568 112.283 91.3429 115.671C91.169 117.067 91.193 118.604 91.8528 119.814C92.4526 120.993 93.6643 121.62 94.762 121.351C96.0277 121.052 97.1074 120.105 98.0731 119.097C100.448 116.462 102.284 113.104 103.466 109.439C103.975 107.722 104.419 105.871 104.227 104.02C104.101 102.804 103.238 101.543 102.176 101.804C100.64 102.095 99.6687 103.812 98.9429 105.364C98.7329 105.715 98.6909 106.274 98.337 106.454C98.547 104.446 99.6807 102.856 100.88 101.602C101.876 100.625 103.082 99.7588 104.389 99.8035C105.793 99.8782 106.855 101.475 107.023 103.132C107.239 105.222 106.723 107.312 106.003 109.185C104.551 112.775 102.278 115.738 99.8186 118.291C97.9651 120.164 95.9737 121.941 93.6823 122.874C92.4706 123.359 91.007 123.463 89.9573 122.426C88.8536 121.448 88.4157 119.664 88.5237 118.037C88.6677 114.037 90.1253 110.29 91.9908 107.088C94.3961 103.005 97.6112 99.6468 101.282 97.4525Z" fill="#010101"/>
</g>
<defs>
<clipPath id="clip0_7_69">
<rect width="460" height="138" fill="white"/>
</clipPath>
</defs>
</svg>
