<svg width="698" height="406" viewBox="0 0 698 406" fill="none" xmlns="http://www.w3.org/2000/svg">
<path d="M445.675 208.215C445.238 208.215 444.166 208.314 444.166 209.929C444.166 210.728 444.504 211.262 445.094 211.262L447.532 211.643C449.584 212.374 450.174 213.623 450.318 217.737C450.476 221.545 450.434 224.912 450.434 243.446V264.204C450.434 275.348 450.457 284.961 450.086 289.913C449.798 293.577 449.436 295.443 448.344 295.816L446.255 296.387C445.568 296.387 445.21 297.042 445.21 297.72C445.21 299.358 446.399 299.434 446.835 299.434L453.336 299.053H453.568H454.497L462.506 299.434C463.88 299.434 464.015 298.322 464.015 297.72C464.015 297.042 463.783 296.387 463.087 296.387L459.836 295.816C458.035 295.435 457.64 293.546 457.399 289.913C457.051 284.946 457.05 275.348 457.05 264.204V261.347C457.062 261.065 457.166 261.157 457.166 261.157L465.988 261.347C466.267 261.347 466.444 261.514 466.685 261.918C466.685 261.948 469.355 267.822 469.355 267.822L474.578 279.438L475.507 281.343C479.138 289.219 481.506 294.353 484.445 296.959C486.47 298.718 488.429 299.434 492.455 299.434H497.562C498.481 299.434 499.652 299.358 499.652 297.72C499.652 296.974 499.178 296.387 498.607 296.387L495.821 296.006C493.903 295.519 490.936 294.041 487.231 287.627C483.544 281.16 479.291 272.156 474.346 261.728C474.346 261.728 472.837 258.444 472.489 257.728C478.344 248.709 481.079 239.987 481.079 230.305C481.079 221.918 477.889 215.817 475.971 213.547C471.946 208.831 466.815 208.214 462.39 208.214L456.354 208.405L453.916 208.596H452.871L445.675 208.215ZM462.042 213.356C469.629 213.356 474.23 221.957 474.23 236.4C474.23 244.52 472.591 251.109 469.935 254.11C468.273 256.015 466.146 256.396 464.712 256.396C461.642 256.396 458.415 255.474 457.399 254.491C457.185 254.263 457.05 254.11 457.05 253.729V214.88C457.05 214.484 457.166 214.263 457.399 214.118C458.03 213.821 459.873 213.356 462.042 213.356Z" fill="#4665B9"/>
<path d="M46.3608 207.644C45.9111 207.619 45.5137 207.625 45.0839 207.834C43.4794 208.27 44.2317 212.657 45.8965 211.833C48.1413 211.519 50.5953 213.583 50.3075 217.737C50.5528 239.688 50.4088 261.668 50.3075 283.628C49.9658 287.418 50.6284 293.122 48.5663 295.245C47.0892 295.239 44.6054 295.644 45.4321 299.054C48.496 300.986 51.9692 298.676 55.1828 299.625C58.2804 299.202 61.6416 300.81 64.5853 299.054C65.6279 295.418 62.6831 295.353 61.219 295.436C58.6014 296.112 57.9607 291.511 58.0848 288.199C57.6893 279.367 57.8189 270.388 57.7366 261.537C60.7317 261.938 64.156 261.296 66.9069 262.299C72.2107 273.969 76.9576 286.697 83.5063 296.388C88.0509 301.511 93.8805 299.549 99.0609 299.816C101.124 299.994 100.641 294.748 98.7127 295.626C94.2724 295.847 90.4557 291.876 87.6851 286.866C82.9641 278.782 79.5103 270.023 75.1485 261.347C72.6598 258.837 73.7448 256.192 75.6128 253.73C80.2103 246.102 83.1545 234.359 81.1847 223.64C79.6825 215.673 75.4421 210.351 70.5053 208.786C63.006 206.588 55.3163 208.731 47.7537 207.834C47.3119 207.877 46.8105 207.669 46.3608 207.644ZM62.1476 212.786C64.8954 212.789 67.7195 213.6 69.8089 216.404C74.5631 221.932 75.3426 232.625 74.5681 241.542C74.1867 248.979 71.3863 256.567 66.4426 256.777C63.3878 256.528 59.7251 256.902 57.1562 254.492C56.8831 242.506 57.119 230.536 57.0401 218.499C56.6259 215.256 57.1969 212.323 59.4778 212.976C60.3579 212.825 61.2317 212.785 62.1476 212.786V212.786Z" fill="#4665B9"/>
<path d="M684.081 247.232L682.057 244.597C675.087 235.227 673.393 231.434 673.393 225.157C673.393 217.349 676.801 212.093 681.88 212.093C687.912 212.093 689.964 216.221 690.563 218.027C690.948 219.207 691.394 222.315 691.445 223.702C691.524 224.555 691.617 225.858 692.439 225.858C693.372 225.858 693.372 223.618 693.372 222.445L693.623 210.76L693.653 209.853C693.653 208.36 692.826 208.36 692.51 208.36L690.073 207.759C688.002 206.951 685.833 206.57 683.238 206.57C674.044 206.57 667.869 215.445 667.869 228.638C667.869 236.652 669.485 244.231 677.411 254.919L680.675 259.299C687.092 268.013 688.842 272.492 688.842 280.163C688.842 287.674 685.434 295.261 678.915 295.261C676.231 295.261 669.884 294.134 668.607 283.705L668.375 279.462C668.375 278.731 668.375 277.444 667.46 277.444C666.629 277.444 666.536 279.165 666.495 279.988C666.495 280 666.407 281.42 666.407 281.42L666.119 292.626C666.119 295.833 666.174 296.693 667.442 297.752C670.181 299.946 673.413 301.013 677.318 301.013C681.71 301.013 685.564 299.268 688.471 295.916C693.133 290.47 694.827 281.877 694.827 275.638C694.827 266.414 693.063 258.788 684.083 247.233" fill="#4665B9"/>
<path d="M655.235 281.969C654.455 281.969 654.278 283.385 654.185 284.322C653.703 289.007 652.885 291.178 651.172 292.359C649.366 293.631 646.255 293.631 644.388 293.631C637.312 293.631 636.597 291.993 636.407 284.528L636.388 269.491L636.407 264.235V253.806C637.697 253.631 644.853 253.883 646.817 254.233C649.333 254.66 649.946 256.313 650.206 257.897C650.485 259.36 650.485 260.472 650.485 261.63C650.485 262.696 650.856 263.367 651.404 263.367C652.31 263.367 652.31 261.47 652.31 260.441L652.616 252.915L653.206 246.197C653.206 244.688 652.597 244.566 652.421 244.566C651.966 244.566 651.65 245.168 651.135 246.151C650.494 247.278 649.682 247.545 647.903 247.789C646.673 247.964 641.18 248.025 636.434 248.025V248.012C636.434 247.914 636.405 247.502 636.405 247.502V214.731L636.438 214.175C637.26 214.236 645.098 214.351 646.296 214.571C650.033 215.257 650.651 216.506 651.101 218.205C651.417 219.431 651.505 221.29 651.505 222.212C651.505 224.147 652.123 224.413 652.49 224.413C652.945 224.413 653.242 223.812 653.395 222.608C653.417 222.553 653.669 217.093 653.669 217.093L653.767 214.663L654.19 210.602L654.347 209.018C654.347 207.479 653.874 207.304 653.66 207.304L652.899 207.639L652.564 207.906C652.531 207.906 649.495 208.477 649.495 208.477C647.861 208.591 633.555 208.591 632.938 208.591L631.99 208.536L624.761 208.239C624.352 208.239 623.206 208.239 623.206 209.854C623.206 210.654 623.619 211.248 624.199 211.248L626.549 211.583C628.61 212.314 629.205 213.617 629.358 217.731C629.492 221.539 629.492 224.822 629.492 243.356V264.235C629.492 275.38 629.492 284.978 629.144 289.945C628.833 293.593 628.476 295.513 627.361 295.886C627.35 295.886 625.276 296.343 625.276 296.343C624.599 296.343 624.273 297.044 624.273 297.722C624.273 299.36 625.439 299.36 625.866 299.36L630.082 299.139C630.056 299.139 632.678 299.025 632.678 299.025L632.938 299.013L635.714 299.158L650.823 299.714C653.688 299.714 654.533 299.714 655.132 296.126C655.499 293.666 656.089 285.53 656.089 284.441C656.089 283.58 656.089 281.973 655.234 281.973" fill="#4665B9"/>
<path d="M603.742 247.237L601.727 244.601C594.743 235.232 593.058 231.438 593.058 225.161C593.058 217.353 596.452 212.097 601.536 212.097C607.6 212.097 609.629 216.226 610.242 218.016C610.614 219.197 611.045 222.305 611.124 223.706C611.185 224.56 611.287 225.862 612.099 225.862C613.033 225.862 613.033 223.622 613.033 222.449L613.283 210.764L613.317 209.858C613.317 208.365 612.481 208.365 612.179 208.365L609.742 207.763C607.652 206.956 605.498 206.575 602.916 206.575C593.699 206.575 587.524 215.449 587.524 228.643C587.524 236.657 589.135 244.236 597.08 254.923L600.33 259.303C606.737 268.018 608.502 272.497 608.502 280.168C608.502 287.679 605.085 295.266 598.561 295.266C595.9 295.266 589.553 294.138 588.276 283.71L588.063 279.467C588.063 278.736 588.063 277.448 587.139 277.448C586.298 277.448 586.182 279.101 586.145 279.993C586.145 280.005 586.057 281.47 586.057 281.47L585.778 292.63C585.778 295.837 585.839 296.698 587.092 297.757C589.85 299.951 593.091 301.017 596.987 301.017C601.365 301.017 605.224 299.273 608.149 295.921C612.797 290.474 614.464 281.882 614.464 275.643C614.464 266.418 612.709 258.793 603.743 247.237" fill="#4665B9"/>
<path d="M574.393 296.347L571.208 295.852C569.411 295.471 568.951 293.582 568.729 289.948C568.353 284.982 568.353 275.384 568.353 264.239V243.36C568.353 224.826 568.352 221.543 568.501 217.734C568.668 213.59 569.225 212.097 570.851 211.587C570.832 211.587 572.587 211.252 572.587 211.252C573.154 211.252 573.581 210.658 573.581 209.858C573.581 208.243 572.429 208.243 572.007 208.243L566.11 208.54L564.921 208.595L563.774 208.54L557.599 208.243C557.186 208.243 556.043 208.243 556.043 209.858C556.043 210.658 556.452 211.252 557.023 211.252L559.164 211.717C560.566 212.219 561.183 213.987 561.318 217.734C561.467 221.543 561.467 224.826 561.467 243.36V264.24C561.467 275.384 561.467 284.982 561.114 289.949C560.798 293.598 560.431 295.517 559.335 295.89C559.328 295.89 557.232 296.347 557.232 296.347C556.545 296.347 556.238 297.048 556.238 297.726C556.238 299.364 557.39 299.364 557.813 299.364L563.709 299.059L564.921 299.017L565.752 299.059L573.827 299.364C575.197 299.364 575.382 298.328 575.382 297.726C575.382 297.048 575.085 296.347 574.393 296.347" fill="#4665B9"/>
<path d="M546.246 208.243L541.412 208.495L540.173 208.593L539.156 208.539L532.474 208.241C532.061 208.241 530.924 208.241 530.924 209.856C530.924 210.656 531.337 211.25 531.926 211.25L534.243 211.585C536.319 212.317 536.918 213.619 537.085 217.733C537.219 221.541 537.219 224.824 537.219 243.358V258.189C537.219 272.434 535.998 281.004 533.115 286.869C530.505 291.981 526.252 295.172 522.059 295.172C518.034 295.172 514.849 294.106 511.417 288.82C508.803 284.691 506.124 278.086 506.124 259.964V243.358C506.124 224.824 506.124 221.541 506.259 217.733C506.389 213.52 506.992 211.997 508.599 211.585L510.34 211.25C510.911 211.25 511.324 210.656 511.324 209.856C511.324 208.241 510.187 208.241 509.769 208.241L504.397 208.478L502.59 208.592L501.077 208.493L494.274 208.241C493.857 208.241 492.687 208.241 492.687 209.856C492.687 210.656 493.114 211.25 493.694 211.25L496.044 211.585C498.119 212.317 498.709 213.619 498.853 217.733C498.987 221.541 498.987 224.824 498.987 243.358V260.695C498.987 279.831 502.442 287.692 505.423 292.407C510.266 299.918 517.022 301.015 520.606 301.015C524.511 301.015 530.292 300.093 535.799 292.057C541.826 283.274 542.601 268.222 542.601 256.064V243.358C542.601 224.824 542.601 221.541 542.735 217.733C542.893 213.589 543.45 212.096 545.089 211.585C545.108 211.585 546.821 211.25 546.821 211.25C547.402 211.25 547.829 210.656 547.829 209.856C547.829 208.241 546.673 208.241 546.246 208.241" fill="#4665B9"/>
<path d="M437.674 276.507C436.815 276.507 436.648 277.878 436.55 278.846C436.337 280.849 435.408 286.006 433.969 288.482C430.988 293.502 426.303 294.218 421.664 294.218C405.571 294.218 395.96 272.462 395.96 251.423C395.96 241.307 396.707 229.766 402.339 220.922C405.929 215.201 411.282 212.429 418.716 212.429C425.249 212.429 430.658 215.872 432.915 219.063C434.656 221.448 435.808 226.11 435.808 230.634C435.808 231.975 435.808 233.811 436.815 233.811C437.744 233.811 437.818 232.006 437.86 230.703L437.934 226.384L438.083 218.446L438.459 211.758C438.459 210.539 438.022 209.907 437.122 209.763C434.888 209.542 432.65 208.871 430.036 208.079L429.785 208.018C425.49 206.731 420.949 206.571 419.217 206.571C409.453 206.571 402.126 210.791 396.861 219.46C390.783 229.416 388.624 242.99 388.624 252.375C388.624 267.336 391.623 279.333 397.52 288.04C403.528 296.9 411.213 301.013 421.664 301.013C425.992 301.013 431.731 300.312 434.86 298.248C436.3 297.204 436.513 296.785 436.978 294.355C437.702 290.265 438.566 279.905 438.566 278.991C438.566 276.698 437.878 276.507 437.674 276.507" fill="#4665B9"/>
<path d="M347.968 247.233L345.935 244.597C338.956 235.228 337.252 231.434 337.252 225.157C337.252 217.349 340.669 212.093 345.749 212.093C351.808 212.093 353.842 216.222 354.441 218.012C354.835 219.193 355.244 222.301 355.318 223.702C355.388 224.556 355.486 225.858 356.307 225.858C357.245 225.858 357.245 223.619 357.245 222.445L357.477 210.76L357.519 209.854C357.519 208.361 356.684 208.361 356.396 208.361L353.94 207.759C351.878 206.952 349.71 206.571 347.123 206.571C337.921 206.571 331.736 215.445 331.736 228.639C331.736 236.652 333.352 244.232 341.287 254.919L344.542 259.299C350.968 267.999 352.728 272.478 352.728 280.164C352.728 287.675 349.292 295.262 342.777 295.262C340.107 295.262 333.77 294.134 332.469 283.706L332.26 279.463C332.26 278.732 332.26 277.444 331.341 277.444C330.496 277.444 330.398 279.151 330.352 279.989C330.352 280.001 330.296 281.421 330.296 281.421L329.995 292.626C329.995 295.833 330.041 296.694 331.309 297.753C334.067 299.947 337.294 301.013 341.185 301.013C345.568 301.013 349.426 299.269 352.361 295.917C357.004 290.47 358.69 281.878 358.69 275.639C358.69 266.414 356.925 258.789 347.968 247.233" fill="#4665B9"/>
<path d="M308.515 247.233L306.486 244.598C299.516 235.228 297.803 231.435 297.803 225.158C297.803 217.35 301.22 212.094 306.309 212.094C312.359 212.094 314.412 216.222 314.983 218.012C315.387 219.193 315.814 222.316 315.874 223.703C315.939 224.556 316.046 225.859 316.859 225.859C317.778 225.859 317.778 223.619 317.778 222.446L318.042 210.761L318.08 209.854C318.08 208.361 317.249 208.361 316.937 208.361L314.5 207.76C312.415 206.952 310.261 206.571 307.674 206.571C298.471 206.571 292.287 215.446 292.287 228.639C292.287 236.653 293.921 244.232 301.838 254.92L305.111 259.3C311.51 267.999 313.269 272.493 313.269 280.164C313.269 287.675 309.861 295.262 303.338 295.262C300.668 295.262 294.316 294.135 293.03 283.706L292.816 279.463C292.816 278.732 292.816 277.445 291.911 277.445C291.047 277.445 290.959 279.151 290.912 279.989C290.901 280.001 290.843 281.421 290.843 281.421L290.545 292.627C290.545 295.834 290.601 296.694 291.859 297.753C294.608 299.947 297.84 301.014 301.74 301.014C306.119 301.014 309.977 299.269 312.912 295.917C317.578 290.471 319.231 281.878 319.231 275.639C319.231 266.415 317.471 258.789 308.514 247.234" fill="#4665B9"/>
<path d="M279.676 281.97C278.873 281.97 278.724 283.387 278.608 284.324C278.125 289.008 277.303 291.179 275.599 292.36C273.788 293.632 270.682 293.632 268.806 293.632C261.73 293.632 261.015 291.994 260.811 284.529V269.492V264.236V253.808C262.129 253.632 269.289 253.884 271.225 254.234C274.09 254.707 274.457 256.855 274.634 257.898C274.921 259.361 274.921 260.473 274.921 261.631C274.921 262.697 275.269 263.368 275.831 263.368C276.751 263.368 276.751 261.471 276.751 260.443L277.034 252.916L277.624 246.198C277.624 244.69 277.025 244.568 276.839 244.568C276.384 244.568 276.073 245.169 275.571 246.152C274.93 247.279 274.109 247.546 272.33 247.79C271.118 247.965 265.602 248.026 260.848 248.026C260.848 247.927 260.811 247.5 260.811 247.5V214.73L260.871 214.173C261.711 214.234 269.521 214.349 270.714 214.569C274.466 215.255 275.079 216.504 275.525 218.203C275.84 219.429 275.919 221.288 275.919 222.21C275.919 224.145 276.555 224.411 276.918 224.411C277.373 224.411 277.679 223.81 277.828 222.606C277.835 222.551 278.088 217.06 278.088 217.06L278.204 214.661L278.621 210.585L278.765 209.016C278.765 207.477 278.282 207.302 278.078 207.302L277.321 207.638L276.982 207.904C276.964 207.904 273.913 208.475 273.913 208.475C272.279 208.589 257.973 208.589 257.374 208.589L256.418 208.535L249.198 208.237C248.77 208.237 247.614 208.237 247.614 209.852C247.614 210.652 248.051 211.246 248.617 211.246L250.976 211.581C253.019 212.312 253.627 213.615 253.776 217.729C253.929 221.537 253.929 224.821 253.929 243.354V264.234C253.929 275.378 253.929 284.976 253.553 289.943C253.251 293.592 252.893 295.511 251.802 295.885C251.78 295.885 249.699 296.341 249.699 296.341C249.021 296.341 248.701 297.042 248.701 297.72C248.701 299.358 249.857 299.358 250.27 299.358L254.5 299.137C254.481 299.137 257.123 299.024 257.123 299.024L257.374 299.011L260.132 299.156L275.25 299.712C278.106 299.712 278.956 299.712 279.568 296.124C279.917 293.664 280.516 285.528 280.516 284.439C280.516 283.578 280.516 281.971 279.675 281.971" fill="#4665B9"/>
<path d="M239.697 276.509C238.834 276.509 238.699 277.88 238.583 278.848C238.369 280.912 237.459 285.977 236.011 288.484C233.011 293.504 228.335 294.22 223.706 294.22C207.613 294.22 198.001 272.464 198.001 251.424C198.001 241.308 198.758 229.768 204.381 220.924C207.97 215.203 213.324 212.43 220.748 212.43C227.291 212.43 232.691 215.873 234.952 219.065C236.688 221.449 237.849 226.111 237.849 230.636C237.849 231.977 237.849 233.813 238.834 233.813C239.785 233.813 239.86 232.007 239.902 230.705L239.976 226.477L240.134 218.448L240.482 211.76C240.482 210.541 240.064 209.909 239.172 209.764C236.93 209.544 234.682 208.873 232.078 208.081L231.818 208.02C227.523 206.732 222.991 206.572 221.259 206.572C211.504 206.572 204.177 210.793 198.893 219.461C192.824 229.417 190.665 242.992 190.665 252.377C190.665 267.337 193.655 279.335 199.547 288.042C205.56 296.901 213.236 301.014 223.706 301.014C228.043 301.014 233.782 300.314 236.897 298.249C238.341 297.206 238.546 296.787 239.019 294.357C239.753 290.266 240.616 279.906 240.616 278.992C240.616 276.699 239.929 276.509 239.697 276.509" fill="#4665B9"/>
<path d="M182.828 208.241L177.975 208.492L176.671 208.591L175.12 208.492L169.139 208.241C168.443 208.241 167.282 208.241 167.282 209.749C167.282 210.968 167.825 211.25 168.271 211.25C168.791 211.25 170.435 211.349 171.735 211.821C173.671 212.651 174.163 214.731 174.233 222.462C174.233 222.462 174.86 271.306 174.985 281.003C173.862 278.954 169.413 271.032 169.413 271.032L158.358 251.325C147.14 231.611 136.419 212.567 135.36 210.602C135.342 210.59 134.706 209.459 134.706 209.459C133.717 207.639 133.076 206.572 132.519 206.572C131.479 206.572 131.307 208.606 131.307 213.192L131.228 281.232C131.228 291.995 130.852 294.966 129.37 295.644C128.414 296.17 127.239 296.345 126.506 296.345C125.781 296.345 125.517 297.107 125.517 297.724C125.517 299.361 126.543 299.361 127.086 299.361L132.834 299.11L134.037 299.012L135.1 299.054L141.703 299.359C142.176 299.359 143.416 299.359 143.416 297.721C143.416 297.104 143.152 296.342 142.427 296.342C142.232 296.342 140.482 296.33 138.921 295.642C137.366 294.895 136.544 292.656 136.396 282.524C136.396 282.524 135.555 230.862 135.486 227.442C136.874 229.956 153.636 260.19 153.636 260.19C161.367 273.855 171.772 291.262 172.547 292.404C176.592 299.009 177.348 300.197 178.11 300.197C179.099 300.197 179.178 298.803 179.178 291.071L179.331 221.492C179.331 214.347 179.624 212.313 181.662 211.582C181.695 211.582 183.329 211.247 183.329 211.247C184.151 211.247 184.536 210.493 184.536 209.746C184.536 208.238 183.417 208.238 182.827 208.238" fill="#4665B9"/>
<path d="M116.508 296.343L113.323 295.847C111.522 295.466 111.067 293.577 110.853 289.943C110.495 284.977 110.495 275.379 110.495 264.234V243.355C110.495 224.821 110.495 221.538 110.63 217.729C110.788 213.585 111.349 212.092 112.975 211.582L114.707 211.247C115.287 211.247 115.705 210.653 115.705 209.853C115.705 208.238 114.572 208.238 114.126 208.238L108.234 208.535L107.041 208.59L105.898 208.535L99.723 208.238C99.3004 208.238 98.1582 208.238 98.1582 209.853C98.1582 210.653 98.5807 211.247 99.1426 211.247L101.283 211.712C102.685 212.215 103.317 213.982 103.442 217.73C103.577 221.538 103.577 224.821 103.577 243.355V264.235C103.577 275.379 103.577 284.977 103.229 289.944C102.917 293.593 102.551 295.512 101.464 295.886C101.446 295.886 99.3747 296.343 99.3747 296.343C98.669 296.343 98.3671 297.043 98.3671 297.721C98.3671 299.359 99.5233 299.359 99.9365 299.359L105.852 299.054L107.041 299.012L107.886 299.054L115.946 299.359C117.293 299.359 117.502 298.323 117.502 297.721C117.502 297.043 117.205 296.343 116.508 296.343" fill="#4665B9"/>
<path d="M39.5243 229.809C39.5243 223.76 37.6346 218.108 35.7866 215.168C34.5515 213.279 31.2595 208.236 22.0427 208.236L15.9277 208.457L12.9282 208.586L11.5538 208.487L4.72832 208.236C4.30579 208.236 3.17285 208.236 3.17285 209.851C3.17285 210.651 3.57681 211.245 4.1572 211.245L6.52059 211.58C8.56359 212.311 9.16256 213.614 9.32507 217.727C9.46436 221.536 9.46437 224.819 9.46437 243.353V264.232C9.46437 275.377 9.46436 284.975 9.11631 289.942C8.80503 293.59 8.43841 295.51 7.32404 295.883L5.23461 296.34C4.55671 296.34 4.24562 297.041 4.24562 297.719C4.24562 299.357 5.39712 299.357 5.81501 299.357L11.9672 299.052L12.7612 299.009L13.6156 299.052L21.6668 299.357C23.0412 299.357 23.2362 298.321 23.2362 297.719C23.2362 297.041 22.9439 296.34 22.2565 296.34L19.0527 295.845C17.2558 295.464 16.8101 293.575 16.5872 289.941C16.2206 284.975 16.2206 275.376 16.2206 264.232V215.442C16.2206 214.467 16.3227 213.911 16.527 213.819C17.1167 213.377 18.2311 213.118 19.4987 213.118H19.8188C21.7179 213.106 25.6368 213.042 29.1191 218.87C33.0473 225.443 33.0473 233.922 33.0473 236.702C33.0473 247.161 27.7448 255.388 20.9425 255.388C19.6238 255.388 18.5791 255.388 18.5791 257.117C18.5791 258.008 19.0852 258.61 19.791 258.61C19.8207 258.61 21.3093 258.74 21.3093 258.74C32.0444 258.74 39.5245 246.849 39.5245 229.809" fill="#4665B9"/>
<path d="M431.13 31.0991C408.55 26.0944 396.218 -5.28225 372.12 20.6174C357.447 36.4161 351.94 49.6554 322.907 20.3663C308.387 5.71017 291.491 3.42491 291.491 3.42491C265.377 1.39103 243.23 33.8951 241.99 77.3227C241.321 100.655 246.345 121.329 255.98 136.1C257.15 137.692 258.459 137.341 259.077 135.406L259.346 134.34L274.241 75.5401C274.241 75.5401 282.316 40.987 302.235 51.7887C308.643 55.2242 313.936 58.614 318.695 60.9907C330.071 66.7115 338.392 66.8257 351.527 49.7091C357.503 41.9087 367.379 31.0232 380.18 40.7127C398.089 54.2186 427.986 87.6902 449.308 24.2666C449.308 24.2666 440.778 33.2248 431.13 31.0995" fill="#4665B9"/>
<path d="M320.757 113.955C347.121 140.525 358.056 127.263 369.408 115.029C396.849 85.5494 412.413 125.26 430.104 129.175C439.762 131.323 448.259 122.319 448.259 122.319C425.651 189.643 396.761 148.029 384.731 138.926C375.226 131.75 370.095 122.754 348.769 139.68C330.136 154.511 305.467 166.813 282.845 155.669C282.845 155.669 282.762 155.626 282.664 155.54C285.278 143.694 289.322 128.132 296.32 128.307C298.363 128.319 309.53 129.533 310.69 129.244C312.037 128.954 312.91 127.378 313.151 125.671C313.694 121.703 312.705 120.781 312.599 119.493C312.501 118.229 313.277 117.81 313.917 116.957C314.971 115.563 315.069 114.527 314.837 113.361C314.632 112.348 313.207 112.021 312.733 111.587C312.26 111.137 312.394 109.812 313.151 109.652C316.963 108.821 316.759 105.508 316.327 104.335C314.767 99.6955 316.81 99.0708 317.827 98.7738C317.827 98.7738 319.192 98.8347 320.139 98.5532C322.298 97.9133 321.346 93.8683 321.346 93.8683C321.346 93.8683 319.22 72.8744 318.695 69.1265C318.222 65.6758 319.294 64.6323 321.202 65.9653C321.388 66.1025 321.551 66.2853 321.727 66.5065C321.735 66.5065 321.746 66.5491 321.764 66.5826C346.675 91.7052 350.074 89.9762 370.773 67.6797C397.448 38.992 412.023 77.1025 430.406 81.1627C440.073 83.288 448.551 74.3069 448.551 74.3069C428.776 133.198 401.153 104.967 378.829 87.7518C357.74 71.5569 343.638 118.763 321.328 112.638C320.659 112.395 320.265 113.461 320.757 113.956" fill="#4665B9"/>
<path d="M253.913 131.731C245.527 117.077 241.009 93.6085 242.576 72.8394C243.952 54.5984 248.46 39.2434 256.136 26.6501C263.854 13.9882 273.214 6.62282 284.43 4.38686C288.809 3.51401 290.639 3.59203 295.084 4.84082C306.397 8.01898 313.517 12.3682 325.669 23.5228C337.984 34.8256 343.007 37.7905 349.979 37.8713C354.115 37.92 355.032 37.577 358.941 34.5217C361.336 32.65 365.861 28.2842 368.997 24.8199C378.991 13.7802 384.87 10.3779 392.308 11.331C397.328 11.9741 401.37 14.0183 410.451 20.5042C422.906 29.4006 426.897 31.2153 434.06 31.2377C439.195 31.256 440.941 30.8842 443.275 29.2878C444.859 28.2045 446.635 26.9885 447.223 26.5856C448.114 25.9747 448.029 26.5428 446.708 30.0077C438.959 50.3353 428.687 61.0897 417.019 61.0897C409.473 61.0897 402.617 57.5935 388.168 46.3785C375.501 36.5457 370.977 34.9164 364.377 37.809C360.305 39.5934 357.081 42.4519 351.135 49.5485C345.061 56.7988 339.686 61.3843 335.354 63.0114C329.923 65.0514 325.013 63.6834 311.281 56.3051C300.211 50.357 298.341 49.6164 294.479 49.6495C290.847 49.6799 289.56 50.1496 286.64 52.5084C282.368 55.9586 277.78 63.3388 275.498 70.432C274.559 73.3482 270.483 88.9145 266.439 105.024C262.395 121.133 258.838 134.844 258.534 135.494C257.606 137.481 256.853 136.868 253.913 131.731V131.731Z" fill="#4665B9"/>
<path d="M475.043 361.137C473.785 361.137 472.615 361.472 471.561 362.089C470.507 362.706 469.648 363.613 468.891 364.756C468.148 365.883 467.567 367.3 467.15 368.945C466.722 370.598 466.453 372.404 466.453 374.468V388.37C466.453 393.085 467.256 396.62 468.891 399.034C470.525 401.449 472.865 402.653 475.739 402.653C477.258 402.653 478.637 402.31 479.918 401.51C481.186 400.733 482.393 399.4 483.517 397.511L481.427 393.131C480.466 394.609 479.51 395.637 478.641 396.178C477.759 396.719 476.845 396.94 475.856 396.94C474.165 396.94 472.851 396.147 471.793 394.654C470.729 393.161 470.168 391.135 470.168 388.37V384.371L483.169 380.562V374.468C483.169 372.464 482.983 370.781 482.588 369.136C482.189 367.483 481.562 365.936 480.847 364.756C480.141 363.598 479.282 362.706 478.293 362.089C477.295 361.472 476.236 361.137 475.043 361.137ZM475.043 366.85C476.399 366.85 477.42 367.421 478.061 368.564C478.706 369.707 479.134 371.352 479.338 373.516L479.454 377.134L470.168 379.8V374.468C470.168 372.129 470.613 370.332 471.561 368.945C472.499 367.566 473.65 366.85 475.043 366.85Z" fill="#4665B9"/>
<path d="M352.579 361.137C351.952 361.137 351.251 361.426 350.49 361.708C349.733 362.013 349.032 362.394 348.284 362.851C347.541 363.315 346.873 363.818 346.195 364.374C345.517 364.945 344.918 365.547 344.453 366.088L345.846 370.849C346.246 370.422 346.678 369.813 347.239 369.326C347.797 368.845 348.368 368.389 348.981 367.992C349.589 367.573 350.257 367.299 350.838 367.04C351.423 366.804 351.92 366.659 352.347 366.659C353.865 366.659 354.901 367.201 355.481 368.183C356.052 369.15 356.294 370.979 356.294 373.515V377.705L343.873 382.085V392.178C343.873 395.659 344.509 398.28 345.73 399.986C346.951 401.7 348.614 402.652 350.722 402.652C352.078 402.652 353.192 401.921 354.204 400.748C355.212 399.59 356.015 398.303 356.642 396.558L356.874 401.891H360.008V373.515C360.008 369.295 359.437 366.164 358.267 364.184C357.097 362.211 355.151 361.137 352.579 361.137V361.137ZM356.294 382.466V389.322C356.294 390.449 356.191 391.417 355.945 392.369C355.695 393.321 355.346 394.144 354.901 394.845C354.455 395.545 353.861 396.147 353.275 396.559C352.7 396.955 352.082 397.13 351.418 397.13C350.299 397.13 349.473 396.733 348.748 395.987C348.024 395.225 347.588 394.022 347.588 392.178V385.513L356.294 382.466V382.466Z" fill="#4665B9"/>
<path d="M316.478 343.236V401.891H319.844L320.076 397.13C320.773 399.149 321.674 400.474 322.746 401.32C323.824 402.157 324.989 402.653 326.345 402.653C328.885 402.653 330.812 401.48 332.149 399.225C333.481 396.97 334.122 393.732 334.122 389.512V374.277C334.122 370.034 333.574 366.804 332.265 364.565C330.96 362.31 328.922 361.137 326.345 361.137C325.091 361.137 324.032 361.708 322.978 362.661C321.924 363.628 321 364.87 320.309 366.469V343.236H316.478ZM325.416 366.85C327.004 366.85 328.253 367.536 329.131 368.755C330.008 369.981 330.408 371.863 330.408 374.468V389.512C330.408 391.958 330.022 393.786 329.131 395.035C328.239 396.292 327.023 396.939 325.532 396.939C323.916 396.939 322.635 396.147 321.702 394.464C320.778 392.78 320.309 390.655 320.309 387.989V375.991C320.309 374.78 320.406 373.691 320.657 372.563C320.908 371.451 321.242 370.545 321.702 369.707C322.166 368.861 322.7 368.107 323.327 367.612C323.958 367.124 324.692 366.85 325.416 366.85Z" fill="#4665B9"/>
<path d="M281.77 361.137C280.512 361.137 279.346 361.472 278.288 362.089C277.234 362.706 276.37 363.613 275.618 364.756C274.87 365.883 274.299 367.3 273.877 368.945C273.454 370.598 273.18 372.404 273.18 374.468V388.37C273.18 393.085 274.1 396.62 275.734 399.034C277.368 401.449 279.592 402.653 282.467 402.653C283.985 402.653 285.373 402.31 286.645 401.51C287.918 400.733 289.12 399.4 290.244 397.511L288.154 393.131C287.193 394.609 286.237 395.637 285.369 396.178C284.486 396.719 283.576 396.94 282.583 396.94C280.902 396.94 279.583 396.147 278.52 394.654C277.461 393.161 276.895 391.135 276.895 388.37V384.371L289.896 380.562V374.468C289.896 372.464 289.71 370.781 289.315 369.136C288.916 367.483 288.284 365.936 287.574 364.756C286.868 363.598 286.009 362.706 285.02 362.089C284.027 361.472 282.959 361.137 281.77 361.137ZM281.77 366.85C283.121 366.85 284.147 367.421 284.788 368.564C285.434 369.707 285.87 371.352 286.065 373.516L286.181 377.134L276.895 379.8V374.468C276.895 372.129 277.345 370.332 278.288 368.945C279.226 367.566 280.377 366.85 281.77 366.85Z" fill="#4665B9"/>
<path d="M214.328 361.137C213.07 361.137 211.918 361.488 210.846 362.089C209.768 362.676 208.831 363.643 208.06 364.756C207.284 365.868 206.634 367.14 206.202 368.755C205.775 370.393 205.622 372.213 205.622 374.277V389.513C205.622 393.74 206.421 396.955 208.06 399.225C209.694 401.518 211.751 402.653 214.328 402.653C215.582 402.653 216.738 402.302 217.81 401.701C218.888 401.114 219.84 400.337 220.596 399.225C221.358 398.113 221.91 396.673 222.338 395.035C222.774 393.42 223.034 391.63 223.034 389.513V374.277C223.034 372.213 222.783 370.393 222.338 368.755C221.892 367.14 221.26 365.868 220.48 364.756C219.709 363.643 218.869 362.676 217.81 362.089C216.756 361.488 215.582 361.137 214.328 361.137ZM214.328 366.85C215.911 366.85 217.068 367.384 217.927 368.564C218.781 369.722 219.319 371.672 219.319 374.277V389.513C219.319 392.057 218.804 393.999 217.927 395.226C217.049 396.445 215.846 396.94 214.328 396.94C212.708 396.94 211.472 396.429 210.613 395.226C209.755 394.03 209.337 392.163 209.337 389.513V374.277C209.337 371.832 209.838 370.012 210.73 368.755C211.616 367.521 212.81 366.85 214.328 366.85Z" fill="#4665B9"/>
<path d="M510.64 394.058L514.197 362.011H518.023L512.572 401.935H508.704L504.795 371.777L500.876 401.935H496.915L491.408 362.011H495.281L498.893 394.218L502.858 362.011H506.573L510.64 394.058V394.058Z" fill="#4665B9"/>
<path d="M448.793 361.127C451.37 361.127 453.209 362.255 454.319 364.51C455.424 366.749 455.976 369.987 455.976 374.207V401.851H452.211V374.999C452.211 372.523 451.909 370.543 451.319 369.05C450.72 367.557 449.666 366.825 448.143 366.825C447.391 366.825 446.653 367.122 445.938 367.747C445.232 368.379 444.614 369.187 444.081 370.223C443.556 371.251 443.133 372.378 442.822 373.635C442.502 374.877 442.349 376.111 442.349 377.368V401.851H438.583V362.011H442.047L442.298 367.298C443.124 365.256 444.011 363.695 444.972 362.666C445.929 361.645 447.205 361.127 448.793 361.127Z" fill="#4665B9"/>
<path d="M404.688 380.308L413.12 401.851H408.755L401.368 383.165H400.681V401.851H396.859V344.133H400.681V377.719H401.465L408.114 362.011H412.372L404.688 380.308V380.308Z" fill="#4665B9"/>
<path d="M378.477 366.902C377.084 366.902 375.993 367.602 375.18 369.019C374.377 370.428 373.968 372.272 373.968 374.542V389.495C373.968 391.948 374.386 393.799 375.208 395.071C376.03 396.343 377.191 396.976 378.672 396.976C379.536 396.976 380.385 396.694 381.23 396.122C382.071 395.551 382.767 394.675 383.338 393.487L385.66 397.631C384.741 399.36 383.659 400.632 382.419 401.455C381.179 402.262 379.902 402.666 378.574 402.666C376.03 402.666 374.019 401.516 372.529 399.215C371.048 396.915 370.3 393.677 370.3 389.495V374.542C370.3 372.592 370.495 370.794 370.89 369.172C371.28 367.557 371.828 366.14 372.548 364.951C373.263 363.763 374.126 362.841 375.129 362.186C376.137 361.539 377.251 361.204 378.477 361.204C381.546 361.204 384.007 363.268 385.864 367.381L383.338 371.442C382.739 370.093 382.02 368.996 381.179 368.158C380.339 367.32 379.438 366.902 378.477 366.902" fill="#4665B9"/>
<path d="M255.934 361.204C258.409 361.204 260.173 362.11 261.208 363.938C262.253 365.744 262.768 368.684 262.768 372.744V401.851H259.003V373.559C259.003 371.289 258.729 369.606 258.186 368.524C257.642 367.442 256.658 366.902 255.233 366.902C254.508 366.902 253.83 367.176 253.208 367.716C252.577 368.25 252.052 368.981 251.62 369.903C251.188 370.824 250.849 371.891 250.608 373.079C250.357 374.268 250.232 375.509 250.232 376.812V401.851H246.42V374.306C246.42 371.967 246.169 370.124 245.677 368.76C245.18 367.412 244.219 366.726 242.803 366.726C242.074 366.726 241.396 367.092 240.769 367.793C240.142 368.494 239.604 369.385 239.158 370.428C238.708 371.495 238.364 372.668 238.118 373.97C237.867 375.273 237.746 376.53 237.746 377.718V401.851H233.93V362.011H237.301L237.5 367.716C238.155 365.759 238.986 364.19 239.975 362.994C240.964 361.805 242.176 361.204 243.597 361.204C245.18 361.204 246.443 361.668 247.381 362.582C248.323 363.504 249.062 365.188 249.591 367.633C250.153 365.683 250.998 364.129 252.135 362.948C253.278 361.79 254.545 361.204 255.934 361.204" fill="#4665B9"/>
<path d="M189.434 366.902C188.041 366.902 186.945 367.602 186.133 369.019C185.325 370.428 184.925 372.272 184.925 374.542V389.495C184.925 391.948 185.334 393.799 186.165 395.071C186.987 396.343 188.143 396.976 189.629 396.976C190.488 396.976 191.342 396.694 192.183 396.122C193.028 395.551 193.724 394.675 194.291 393.487L196.617 397.631C195.693 399.36 194.611 400.632 193.376 401.455C192.136 402.262 190.855 402.666 189.531 402.666C186.987 402.666 184.972 401.516 183.481 399.215C182 396.915 181.257 393.677 181.257 389.495V374.542C181.257 372.592 181.452 370.794 181.842 369.172C182.232 367.557 182.785 366.14 183.5 364.951C184.22 363.763 185.079 362.841 186.086 362.186C187.094 361.539 188.204 361.204 189.434 361.204C192.503 361.204 194.959 363.268 196.817 367.381L194.291 371.442C193.692 370.093 192.977 368.996 192.136 368.158C191.291 367.32 190.395 366.902 189.434 366.902Z" fill="#4665B9"/>
<path d="M533.242 365.917C532.299 364.435 531.01 363.536 529.596 363.579C528.185 363.621 526.917 364.599 526.006 366.137H526.003C525.093 367.676 524.542 369.784 524.569 372.078C524.595 374.376 525.193 376.444 526.139 377.93C527.083 379.412 528.377 380.307 529.787 380.267C531.198 380.224 532.468 379.248 533.376 377.714V377.709C534.287 376.165 534.841 374.063 534.815 371.768C534.789 369.467 534.188 367.398 533.244 365.921L533.242 365.916V365.917ZM529.578 362.012C531.253 361.964 532.786 363.028 533.91 364.789C533.91 364.791 533.911 364.792 533.911 364.792C535.034 366.555 535.746 369.011 535.775 371.74C535.809 374.47 535.154 376.968 534.072 378.795L534.07 378.793C532.99 380.623 531.479 381.783 529.806 381.835C528.128 381.883 526.595 380.824 525.469 379.056C524.348 377.297 523.639 374.839 523.605 372.112C523.575 369.381 524.23 366.878 525.313 365.051H525.311C526.393 363.219 527.905 362.059 529.579 362.012" fill="#4665B9"/>
<path fill-rule="evenodd" clip-rule="evenodd" d="M528.405 368.345L529.978 368.296C530.791 368.272 531.229 368.642 531.243 369.861C531.258 371.099 530.835 371.523 529.987 371.551L528.443 371.594L528.406 368.341L528.405 368.345ZM527.322 366.888L527.444 377.468L528.518 377.437L528.469 373.079L530.104 373.031C530.961 373.006 531.105 373.591 531.151 374.693L531.203 375.958C531.225 376.518 531.25 376.971 531.381 377.348L532.59 377.312L532.586 377.003C532.342 376.792 532.328 376.407 532.304 375.79L532.233 374.274C532.182 373.13 532.051 372.486 531.431 372.185C532.015 371.798 532.347 370.902 532.335 369.698C532.313 367.861 531.605 366.779 530.467 366.812C530.43 366.819 530.313 366.8 530.123 366.811L527.322 366.89" fill="#4665B9"/>
</svg>
