<svg width="581" height="503" viewBox="0 0 581 503" fill="none" xmlns="http://www.w3.org/2000/svg">
<path fill-rule="evenodd" clip-rule="evenodd" d="M551.379 194.681H26.2397V308.602H552.584V194.681H551.379Z" fill="#231F20"/>
<path fill-rule="evenodd" clip-rule="evenodd" d="M155.428 306.515H28.6499V196.768H155.428V306.515Z" fill="white"/>
<path fill-rule="evenodd" clip-rule="evenodd" d="M157.826 274.562H550.174V306.516H157.826V274.562Z" fill="white"/>
<path fill-rule="evenodd" clip-rule="evenodd" d="M157.826 272.485V196.768H550.174V272.485H157.826Z" fill="white"/>
<path fill-rule="evenodd" clip-rule="evenodd" d="M133.505 237.746L136.382 213.955L119.934 224.033L125.55 229.411L116.53 235.143L102.48 229.593L107.697 223.688L93.156 211.535H93.1443L78.603 223.688L83.8089 229.593L69.7705 235.143L60.7509 229.411L66.3662 224.033L49.918 213.955L52.7958 237.746H133.505Z" fill="#231F20"/>
<path fill-rule="evenodd" clip-rule="evenodd" d="M131.96 250.487L132.966 242.263H53.334L54.3401 250.487H84.1481V278.846H69.8407C69.8407 278.846 63.5586 278.157 63.5586 274.106C63.5586 270.055 69.8407 267.735 69.8407 267.735L55.3344 258.731L58.341 283.596L93.1444 295.061H93.1561L127.959 283.596L130.954 258.853L116.647 267.735C116.647 267.735 122.929 270.055 122.929 274.106C122.929 278.157 116.647 278.846 116.647 278.846H102.339V250.487H131.96Z" fill="#231F20"/>
<path fill-rule="evenodd" clip-rule="evenodd" d="M175.818 284.679H178.228V299.223H175.818V284.679Z" fill="#231F20"/>
<path fill-rule="evenodd" clip-rule="evenodd" d="M198.853 284.679H202.129L209.534 296.387H209.581V284.679H211.991V299.223H208.914L201.31 287.262H201.263V299.223H198.853V284.679Z" fill="#231F20"/>
<path fill-rule="evenodd" clip-rule="evenodd" d="M234.522 286.512H229.304V284.679H242.149V286.512H236.932V299.223H234.522V286.512Z" fill="#231F20"/>
<path fill-rule="evenodd" clip-rule="evenodd" d="M259.124 284.679H268.53V286.512H261.522V290.766H267.91V292.599H261.522V297.39H268.53V299.223H259.124V284.679Z" fill="#231F20"/>
<path fill-rule="evenodd" clip-rule="evenodd" d="M287.166 284.679H291.272C294.594 284.679 297.8 285.135 297.8 288.619C297.8 290.391 296.279 291.637 294.337 291.931V291.971C295.074 292.225 295.436 292.539 295.975 293.43L299.145 299.223H296.396L293.822 294.179C293.085 292.761 292.29 292.761 291.014 292.761H289.564V299.223H287.166V284.679Z" fill="#231F20"/>
<path fill-rule="evenodd" clip-rule="evenodd" d="M289.564 290.929H291.611C293.904 290.929 295.25 290.058 295.25 288.66C295.25 287.343 294.091 286.513 291.88 286.513H289.564V290.929Z" fill="white"/>
<path fill-rule="evenodd" clip-rule="evenodd" d="M317.383 284.679H320.659L328.076 296.387H328.123V284.679H330.533V299.223H327.444L319.84 287.262H319.793V299.223H317.383V284.679Z" fill="#231F20"/>
<path fill-rule="evenodd" clip-rule="evenodd" d="M354.55 284.679H357.077L364.178 299.223H361.557L359.849 295.557H351.613L349.905 299.223H347.378L354.55 284.679Z" fill="#231F20"/>
<path fill-rule="evenodd" clip-rule="evenodd" d="M355.732 286.634L352.386 293.845H359.077L355.732 286.634Z" fill="white"/>
<path fill-rule="evenodd" clip-rule="evenodd" d="M383.574 286.512H378.356V284.679H391.213V286.512H385.984V299.223H383.574V286.512Z" fill="#231F20"/>
<path fill-rule="evenodd" clip-rule="evenodd" d="M408.539 284.679H410.949V299.223H408.539V284.679Z" fill="#231F20"/>
<path fill-rule="evenodd" clip-rule="evenodd" d="M437.364 284.426C442.476 284.426 445.459 287.637 445.459 291.951C445.459 296.367 442.5 299.477 437.364 299.477C432.24 299.477 429.28 296.367 429.28 291.951C429.28 287.637 432.263 284.426 437.364 284.426Z" fill="#231F20"/>
<path fill-rule="evenodd" clip-rule="evenodd" d="M437.364 297.643C441.248 297.643 442.91 294.848 442.91 291.951C442.91 288.994 441.073 286.239 437.364 286.259C433.668 286.239 431.831 288.994 431.831 291.951C431.831 294.848 433.492 297.643 437.364 297.643Z" fill="white"/>
<path fill-rule="evenodd" clip-rule="evenodd" d="M463.768 284.679H467.044L474.461 296.387H474.507V284.679H476.917V299.223H473.829L466.225 287.262H466.178V299.223H463.768V284.679Z" fill="#231F20"/>
<path fill-rule="evenodd" clip-rule="evenodd" d="M501.894 284.679H504.421L511.522 299.223H508.901L507.193 295.557H498.958L497.25 299.223H494.723L501.894 284.679Z" fill="#231F20"/>
<path fill-rule="evenodd" clip-rule="evenodd" d="M503.075 286.634L499.729 293.845H506.421L503.075 286.634Z" fill="white"/>
<path fill-rule="evenodd" clip-rule="evenodd" d="M528.368 284.679H530.778V297.39H537.808V299.223H528.368V284.679Z" fill="#231F20"/>
<path fill-rule="evenodd" clip-rule="evenodd" d="M177.62 227.699C177.62 219.728 177.316 218.533 170.577 218.017V217.287L185.259 216.862C200.421 216.447 201.626 222.858 201.626 225.359C201.626 229.735 198.502 232.236 194.162 233.897L194.466 234.262C199.099 241.301 204.878 250.264 214.81 252.027L214.623 252.817C208.247 252.553 203.556 252.705 200.058 249.586C196.092 245.99 192.957 241.402 191.693 239.164C189.295 234.839 187.119 236.085 182.908 235.467V243.853C182.908 249.586 183.036 250.619 191.272 251.611V252.391H170.156V251.611C177.374 250.781 177.433 249.221 177.62 243.853V227.699Z" fill="#231F20"/>
<path fill-rule="evenodd" clip-rule="evenodd" d="M182.908 234.576C188.687 234.525 195.425 232.236 195.425 226.453C195.425 220.356 189.225 217.905 182.908 217.956V234.576Z" fill="white"/>
<path fill-rule="evenodd" clip-rule="evenodd" d="M223.712 252.918C215.465 252.918 208.902 248.38 208.902 240.987C208.902 233.796 215.71 228.843 223.771 228.843C231.948 228.843 238.511 233.431 238.511 240.774C238.511 247.864 231.656 252.918 223.712 252.918Z" fill="#231F20"/>
<path fill-rule="evenodd" clip-rule="evenodd" d="M223.642 229.988C217.15 229.988 214.506 235.832 214.506 240.622C214.506 245.463 217.629 251.773 224.134 251.773C230.205 251.773 232.919 245.777 232.919 241.301C232.919 236.51 230.205 229.988 223.642 229.988Z" fill="white"/>
<path fill-rule="evenodd" clip-rule="evenodd" d="M240.43 233.431C239.342 231.092 239.108 230.565 236.09 230.15V229.37H248.549V230.15C243.975 230.363 245.18 232.753 246.385 235.417L252.281 248.644L256.013 239.265C258.715 232.5 259.206 230.667 254.749 230.15V229.37H265.278V230.15C262.634 230.413 261.792 231.345 260.645 233.33L258.118 238.384L248.853 258.539C246.619 263.39 245.063 265.001 242.653 265.001C241.027 265.001 239.705 263.856 239.705 262.398C239.705 261.304 240.43 260.311 241.635 259.947C242.232 260.261 244.103 261.405 244.817 261.405C246.139 261.405 247.227 258.59 247.648 257.81L249.637 253.799L240.43 233.431Z" fill="#231F20"/>
<path fill-rule="evenodd" clip-rule="evenodd" d="M293.74 246.355V215.201L293.073 214.988L286.159 217.287V217.804C289.166 219.678 289.096 220.356 289.096 222.544V246.355C289.061 249.403 288.944 250.518 287.002 251.125V250.73C281.41 249.738 281.761 248.644 281.761 244.056V236.662C281.761 232.5 280.076 228.843 274.543 228.843C269.664 228.843 263.055 234.262 263.055 235.67C263.055 236.247 263.955 236.196 264.435 236.196L267.442 236.034C267.442 233.168 267.021 231.457 271.174 231.457C275.923 231.457 277.619 233.796 277.128 239.478L263.827 244.684C263.593 245.464 263.476 246.193 263.476 246.973C263.476 250.102 265.64 252.918 269.489 252.918C272.554 252.918 275.21 251.247 277.128 249.373C277.432 251.409 278.392 252.655 280.918 252.655C282.006 252.655 283.165 252.442 284.405 252.158V252.391H298.431V251.611C293.974 251.044 293.74 250.619 293.74 246.355Z" fill="#231F20"/>
<path fill-rule="evenodd" clip-rule="evenodd" d="M277.128 248.38C276.052 249.373 274.426 250.315 272.8 250.315C270.027 250.315 268.588 248.38 268.588 246.193C268.588 245.463 268.764 244.785 269.01 244.116L277.128 240.521V248.38Z" fill="white"/>
<path fill-rule="evenodd" clip-rule="evenodd" d="M337.762 227.699H336.861C335.715 221.814 331.737 217.591 324.519 217.591C313.511 217.591 307.311 225.41 307.311 234.373C307.311 244.633 316.401 251.773 325.116 251.773C333.001 251.773 336.136 246.77 338.838 241.139L339.681 241.453C338.967 244.633 337.821 247.762 336.37 250.781C332.521 252.391 328.368 253.019 324.098 253.019C311.522 253.019 300.327 246.77 300.327 234.991C300.327 225.724 308.691 216.345 324.578 216.345C329.152 216.345 333.785 217.125 337.762 219.161V227.699Z" fill="#231F20"/>
<path fill-rule="evenodd" clip-rule="evenodd" d="M380.544 228.843C376.754 228.843 373.385 232.439 372.051 235.204H371.934L372.18 229.056L371.513 228.843L364.353 231.142V231.659C367.36 233.533 367.301 234.211 367.301 236.399V246.355C367.255 249.474 367.138 250.568 365.196 251.166V250.73C359.604 249.737 359.966 248.644 359.966 244.056V236.662C359.966 232.499 358.282 228.843 352.737 228.843C347.87 228.843 341.249 234.262 341.249 235.67C341.249 236.247 342.149 236.196 342.629 236.196L345.636 236.034C345.636 233.168 345.214 231.456 349.367 231.456C354.129 231.456 355.813 233.796 355.334 239.478L342.032 244.684C341.787 245.463 341.67 246.193 341.67 246.972C341.67 250.102 343.834 252.918 347.683 252.918C350.76 252.918 353.403 251.247 355.334 249.373C355.626 251.409 356.597 252.654 359.124 252.654C360.294 252.654 361.546 252.411 362.914 252.087V252.391H377.947V251.611C372.18 251.044 371.934 250.619 371.934 246.355V241.088C371.934 240.308 371.513 233.219 376.625 232.803C377.947 232.702 379.456 233.847 380.486 234.525C381.866 233.948 383.609 232.651 383.609 231.244C383.609 229.785 382.229 228.843 380.544 228.843Z" fill="#231F20"/>
<path fill-rule="evenodd" clip-rule="evenodd" d="M355.333 248.38C354.245 249.373 352.619 250.315 350.993 250.315C348.232 250.315 346.782 248.38 346.782 246.193C346.782 245.463 346.969 244.785 347.203 244.116L355.333 240.521V248.38Z" fill="white"/>
<path fill-rule="evenodd" clip-rule="evenodd" d="M385.469 252.391V251.611C389.915 251.044 390.102 250.416 390.16 246.355V236.399C390.16 234.211 390.219 233.533 386.487 231.659V231.142L394.126 228.843L394.793 229.056V246.355C394.793 250.619 395.039 251.044 399.484 251.611V252.391H385.469Z" fill="#231F20"/>
<path fill-rule="evenodd" clip-rule="evenodd" d="M395.273 218.999C395.273 220.457 393.892 221.652 392.208 221.652C390.523 221.652 389.143 220.457 389.143 218.999C389.143 217.54 390.523 216.345 392.208 216.345C393.892 216.345 395.273 217.54 395.273 218.999Z" fill="#231F20"/>
<path fill-rule="evenodd" clip-rule="evenodd" d="M401.098 222.544C401.098 220.356 401.157 219.678 398.15 217.804V217.287L405.064 214.988L405.731 215.201V231.76C408.679 230.363 412.353 228.843 415.78 228.843C422.46 228.843 427.093 234.211 427.093 239.68C427.093 248.907 417.289 252.918 410.668 252.918C407.053 252.918 404.351 252.077 401.098 250.831V222.544Z" fill="#231F20"/>
<path fill-rule="evenodd" clip-rule="evenodd" d="M405.731 241.818C405.731 246.669 406.34 251.297 413.312 251.297C416.623 251.297 421.981 249.008 421.981 241.767C421.981 235.518 417.173 231.457 411.323 231.457C409.276 231.457 407.603 231.922 405.731 232.601V241.818Z" fill="white"/>
<path fill-rule="evenodd" clip-rule="evenodd" d="M429.971 222.544C429.971 220.356 430.029 219.678 427.022 217.804V217.287L433.936 214.988L434.603 215.201V231.76C437.551 230.363 441.225 228.843 444.652 228.843C451.332 228.843 455.965 234.211 455.965 239.68C455.965 248.907 446.161 252.918 439.54 252.918C435.925 252.918 433.223 252.077 429.971 250.831V222.544Z" fill="#231F20"/>
<path fill-rule="evenodd" clip-rule="evenodd" d="M434.604 241.818C434.604 246.669 435.2 251.297 442.184 251.297C445.495 251.297 450.853 249.008 450.853 241.767C450.853 235.518 446.033 231.457 440.195 231.457C438.16 231.457 436.464 231.922 434.604 232.601V241.818Z" fill="white"/>
<path fill-rule="evenodd" clip-rule="evenodd" d="M464.259 239.113C463.78 244.532 468.05 249.586 474.847 249.586C477.982 249.586 480.146 248.38 481.948 246.304L482.86 246.871C480.567 250.264 476.473 252.918 471.781 252.918C464.318 252.918 459.147 247.6 459.147 241.351C459.147 234.626 464.563 228.843 472.682 228.843C478.099 228.843 481.714 231.821 481.948 236.51H464.505L464.259 239.113Z" fill="#231F20"/>
<path fill-rule="evenodd" clip-rule="evenodd" d="M476.239 235.102C475.689 232.702 474.004 229.988 470.822 229.988C467.383 229.988 465.347 232.905 464.681 235.518L476.239 235.102Z" fill="white"/>
<path fill-rule="evenodd" clip-rule="evenodd" d="M532.135 246.355V237.077C532.135 234.009 531.772 228.843 524.554 228.843C520.693 228.843 517.394 230.666 513.955 232.854L514.435 229.056L513.78 228.843L506.62 231.142V231.659C509.627 233.533 509.568 234.211 509.568 236.399V246.355C509.533 248.846 509.439 250.041 508.363 250.73C502.771 249.737 503.134 248.644 503.134 244.056V236.662C503.134 232.499 501.449 228.843 495.916 228.843C491.037 228.843 484.416 234.262 484.416 235.67C484.416 236.247 485.317 236.196 485.796 236.196L488.815 236.034C488.815 233.168 488.382 231.456 492.547 231.456C497.296 231.456 498.981 233.796 498.501 239.478L485.2 244.684C484.954 245.463 484.837 246.193 484.837 246.972C484.837 250.102 487.001 252.918 490.85 252.918C493.927 252.918 496.571 251.247 498.501 249.373C498.794 251.409 499.765 252.654 502.292 252.654C503.11 252.654 503.964 252.533 504.865 252.35V252.391H518.892V251.611C514.435 251.044 514.201 250.619 514.201 246.355V233.796C516.189 232.236 517.874 231.558 520.342 231.558C527.678 231.558 527.502 236.713 527.502 240.359V246.355C527.444 250.416 527.256 251.044 522.799 251.611V252.391H536.826V251.611C532.369 251.044 532.135 250.619 532.135 246.355Z" fill="#231F20"/>
<path fill-rule="evenodd" clip-rule="evenodd" d="M498.501 248.38C497.413 249.373 495.787 250.315 494.161 250.315C491.4 250.315 489.95 248.38 489.95 246.193C489.95 245.463 490.137 244.785 490.371 244.116L498.501 240.521V248.38Z" fill="white"/>
</svg>
