<svg width="290" height="291" viewBox="0 0 290 291" fill="none" xmlns="http://www.w3.org/2000/svg">
<g clip-path="url(#clip0_7_2)">
<path d="M19.6632 290.597C16.588 290.597 13.9369 290.157 11.7607 289.217C8.50425 287.834 5.84833 285.285 3.97783 285.285C2.71512 285.285 1.92729 286.522 1.68683 289.217H0V269.713H1.68683C4.2195 281.723 10.1947 288.053 19.2439 288.053C27.9922 288.053 32.515 284.049 32.515 277.644C32.515 271.172 28.832 269.351 15.927 268.549C5.78912 267.899 0.546167 261.49 0.546167 251.455C0.546167 241.269 7.23792 233.7 16.3475 233.7H16.8961C19.4856 233.624 21.8986 234.211 24.1896 235.007C26.2426 235.737 31.3115 239.007 32.155 239.007C33.3585 239.007 33.7258 238.286 33.8442 235.007H35.5902V252.762H33.8442C31.7912 242.797 25.0959 236.173 16.9517 236.173C9.59175 236.173 5.91237 240.321 5.91237 245.34C5.91237 253.706 14.5979 252.689 22.3215 253.563C32.0945 254.656 38.4866 259.82 38.4866 271.831C38.4866 282.961 30.9442 290.597 19.6632 290.597V290.597ZM63.1475 289.217V286.67H67.0722V260.694C67.0722 255.529 64.9588 252.543 60.9193 252.543C57.5964 252.543 53.9207 256.691 53.9207 260.694V286.67H57.9009V289.217H39.5004V286.67H43.4215V237.557H39.5004V235.009H53.9195V254.293C55.9724 251.455 58.8652 249.053 63.8121 249.053C74.4913 249.053 77.5702 255.382 77.5702 263.313V286.668H81.548V289.215H63.1475V289.217ZM106.574 267.169C106.574 259.308 105.608 251.31 99.876 251.31C95.5949 251.31 92.2744 259.308 92.2744 267.169H106.574ZM81.7196 270.295C81.7196 257.052 89.2572 249.049 99.9968 249.049C110.078 249.049 115.501 257.128 115.804 269.718H92.214C92.214 281.07 96.0166 287.037 102.23 287.037C106.389 287.037 113.993 283.831 113.993 274.224V274.01H115.805V274.52C115.805 283.033 109.953 290.599 99.5751 290.599C89.2584 290.597 81.7196 283.466 81.7196 270.295V270.295ZM143.069 252.103C143.248 252.103 143.37 252.103 143.549 252.183C142.947 251.74 142.226 251.31 141.258 251.31C133.901 251.31 131.424 260.038 131.424 268.552V286.665H135.402V289.213H117.005V286.665H120.93V252.906H117.005V250.362H131.424V254.293C133.477 251.45 135.951 249.053 140.898 249.053C144.154 249.053 148.016 251.596 148.016 258.001C148.016 261.276 145.784 263.896 143.07 263.896C140.416 263.896 138.243 261.276 138.243 258.001C138.242 254.799 140.414 252.103 143.069 252.103ZM169.243 266.73C168.518 267.679 166.826 268.768 164.72 269.932C159.83 272.624 158.686 274.661 158.686 279.314C158.686 283.322 160.016 287.035 163.513 287.035C166.287 287.035 169.243 283.756 169.243 280.483V266.73ZM159.769 260.111C159.769 263.384 157.6 265.856 154.946 265.856C151.689 265.856 150.059 262.877 150.059 259.232C150.059 253.052 156.03 249.049 165.017 249.049C177.929 249.049 180.343 254.579 180.343 266.219V280.706C180.343 283.975 180.524 285.934 182.696 285.934C184.806 285.934 185.471 283.103 185.471 277.571V276.766H187.223V277.934C187.223 289.288 183.302 290.596 177.929 290.596C174.133 290.596 171.539 288.633 170.208 284.124C168.456 288.34 163.877 290.596 159.348 290.596C151.326 290.596 148.189 285.722 148.189 279.609C148.189 268.913 157.539 268.986 164.053 266.873C167.8 265.64 169.604 263.313 169.604 259.671C169.604 254.652 166.53 251.74 161.822 251.74C159.174 251.74 156.694 253.125 155.367 254.365C156.569 254.47 157.692 255.123 158.509 256.19C159.327 257.257 159.777 258.658 159.769 260.111V260.111ZM190.224 277.936V252.906H186.303V250.362C192.338 250.362 196.738 245.121 198.07 236.903H200.543V250.362H206.511V252.906H200.543V280.703C200.543 284.194 202.107 285.939 204.22 285.939C206.273 285.939 207.9 283.101 207.9 277.577V276.771H209.712V277.936C209.712 288.048 205.854 290.597 199.637 290.597C193.422 290.597 190.224 288.048 190.224 277.936V277.936ZM228.949 251.306C223.642 251.306 221.532 258.221 221.532 270.299C221.532 282.522 223.642 288.271 228.949 288.271C233.896 288.271 236.372 282.522 236.372 270.299C236.371 258.221 233.895 251.306 228.949 251.306ZM229.011 290.597C218.811 290.597 211.09 283.462 211.09 270.299C211.09 257.052 218.811 249.053 228.948 249.053C240.17 249.053 246.804 257.052 246.804 270.299C246.806 283.463 239.324 290.597 229.011 290.597ZM271.599 289.217V286.67H275.524V260.694C275.524 255.529 273.408 252.543 269.368 252.543C266.048 252.543 262.368 256.691 262.368 260.694V286.67H266.352V289.217H247.95V286.67H251.871V252.906H247.95V250.362H262.369V254.293C264.422 251.455 267.32 249.053 272.268 249.053C282.941 249.053 286.019 255.382 286.019 263.313V286.668H290V289.215H271.599V289.217ZM127.09 189.48C122.352 189.48 118.5 191.806 115.931 192.578C114.522 193.045 110.422 194.436 107.08 192.578C106.435 192.272 104.382 192.116 106.831 195.371C107.469 196.292 108.745 197.224 110.283 198.154C118.5 202.947 125.803 200.936 134.661 196.136C136.84 194.907 140.43 195.051 140.43 193.66C140.308 192.272 138.51 191.347 137.227 189.181C132.35 180.819 126.323 173.852 119.012 170.608C115.16 168.757 113.366 170.149 114.522 171.376C117.342 174.634 118.751 180.668 122.474 185.776C123.631 187.32 125.297 188.871 127.09 189.48V189.48ZM139.67 184.994C139.67 181.746 143.767 176.8 144.541 173.856C145.437 176.8 149.415 181.745 149.415 184.994C149.415 188.244 147.232 190.881 144.541 190.881C143.901 190.88 143.267 190.727 142.675 190.431C142.084 190.135 141.547 189.701 141.094 189.155C140.642 188.608 140.283 187.959 140.039 187.245C139.795 186.532 139.669 185.767 139.67 184.994V184.994ZM139.67 201.094C139.67 204.342 143.767 209.447 144.541 212.391C145.437 209.447 149.415 204.343 149.415 201.094C149.415 197.844 147.232 195.212 144.541 195.212C143.901 195.212 143.267 195.364 142.676 195.66C142.084 195.956 141.547 196.389 141.095 196.935C140.643 197.482 140.284 198.13 140.039 198.843C139.795 199.557 139.669 200.322 139.67 201.094" fill="black"/>
<path d="M102.84 177.259C98.485 175.408 94.3791 175.872 91.6846 175.561C90.2696 175.254 86.2978 175.095 83.7265 172.155C83.2178 171.545 81.4222 170.46 82.7054 174.636C82.9592 175.561 83.8558 176.804 85.0133 178.343C91.2991 186.08 98.4863 187.164 107.722 186.236C110.161 186.08 114.135 187.164 114.393 185.774C114.651 184.537 112.724 183.301 112.081 180.977C109.899 171.377 106.435 162.565 100.669 156.678C97.7129 153.593 95.5367 154.207 96.2968 155.753C97.9703 159.781 97.5897 165.819 99.6366 172.002C100.285 173.853 101.429 175.87 102.84 177.259" fill="black"/>
<path d="M82.9595 155.447C79.494 152.197 75.5138 151.267 73.2095 150.187C71.7945 149.406 68.3363 147.862 66.6664 144.301C66.2857 143.532 64.8744 141.984 65.0001 146.155C65.1282 147.096 65.6417 148.635 66.4114 150.654C70.26 159.616 76.6714 163.183 85.4004 165.348C87.579 166.125 91.0469 168.295 91.5568 167.209C92.1948 166.276 90.5322 164.423 90.6615 161.942C90.7895 152.508 89.6332 143.22 85.659 135.951C83.8537 131.927 81.6751 131.771 82.0642 133.634C82.5729 137.809 80.9066 143.22 81.2908 149.561C81.4225 151.575 82.0642 153.739 82.9595 155.447" fill="black"/>
<path d="M70.8942 129.144C68.4606 124.957 65.1316 122.644 63.3324 120.781C62.1784 119.697 59.3521 116.918 58.8422 113.046C58.5849 112.272 57.6883 110.421 56.7856 114.286C56.7856 115.212 56.7856 116.762 57.043 118.776C58.3226 128.518 63.3324 133.937 70.6392 139.045C72.5701 140.595 75.1257 143.686 75.9027 143.064C76.67 142.295 75.6453 140.125 76.2857 137.96C78.8547 129.3 80.0086 120.322 78.2167 112.272C77.4433 107.941 75.5124 107.171 75.5124 108.866C74.878 112.89 72.0542 117.233 70.8929 123.262C70.5172 124.957 70.5172 127.288 70.8942 129.144" fill="black"/>
<path d="M66.798 99.28C65.8917 94.79 63.4545 91.3842 62.4335 88.9082C61.9175 87.5164 60.1219 83.9518 60.7599 80.2472C60.7599 79.622 60.5026 77.4564 58.707 80.5591C58.3239 81.3286 57.9469 82.8675 57.5566 84.5784C56.0088 93.5556 58.9656 100.363 63.8424 107.947C65.1317 109.952 66.4113 113.984 67.1822 113.514C68.0812 113.199 67.9459 110.882 69.0999 109.338C73.5937 102.68 77.1812 95.2534 77.6996 87.5179C78.2155 83.4942 76.8006 81.7833 76.4236 83.3397C74.75 86.744 70.8991 89.3643 68.4619 94.1735C67.5653 95.4079 66.798 97.5735 66.798 99.28" fill="black"/>
<path d="M69.9985 71.2657C69.9985 66.78 68.5896 62.9166 68.0773 60.4436C67.826 58.8886 67.0454 55.1724 68.3347 52.0814C68.4603 51.3075 68.5884 49.2979 66.2841 51.6194C65.8914 52.2373 65.2462 53.4731 64.4861 55.0252C61.2756 62.7534 62.5552 70.0299 65.5084 78.3891C66.2853 80.5547 66.666 84.5784 67.4357 84.4225C68.3347 84.4225 68.7213 82.2525 69.9985 81.0167C75.5134 76.2279 80.2645 70.6449 82.4468 63.6905C83.724 60.1302 82.7054 58.1162 82.0637 59.352C79.8755 61.9796 75.9037 63.2198 72.5711 67.0963C71.4171 67.8643 70.3888 69.7151 69.9985 71.2657" fill="black"/>
<path d="M79.2364 46.3584C80.394 42.02 79.8744 37.8403 80.0097 35.2128C80.0097 33.6695 80.1354 29.7944 82.0603 27.1741C82.4469 26.7034 82.9593 24.8453 80.394 26.2371C79.7524 26.5431 78.857 27.4729 77.8287 28.8734C72.8298 35.2142 72.4359 42.6466 73.3313 51.6194C73.5923 54.091 73.0799 57.9646 73.8545 58.1191C74.7499 58.4193 75.5147 56.4082 77.1798 55.6387C83.4692 53.0068 89.3767 49.1419 92.9619 43.2558C95.0184 40.1648 94.6342 38.0006 93.6035 38.929C90.9113 40.6311 86.8054 40.6311 82.7055 43.0955C81.4223 43.572 80.0097 44.9638 79.2364 46.3584Z" fill="black"/>
<path d="M93.4837 26.5446C95.5403 23.2947 96.2979 19.7388 96.942 17.5732C97.4507 16.4875 98.4862 13.2377 100.794 12.0062C101.303 11.5399 102.203 10.1481 99.6402 10.4585C99.1278 10.4585 97.9703 10.9205 96.8163 11.5399C91.1698 14.9413 88.8643 20.8231 87.1956 28.563C86.8089 30.5726 85.4 33.6709 86.038 34.1344C86.6796 34.5963 87.8372 33.3605 89.2521 33.3605C95.2769 33.5121 101.182 32.5867 105.537 29.025C107.98 27.3228 108.228 25.4647 107.207 25.778C104.518 26.2414 101.182 24.6938 97.1945 25.0013C95.9173 25.0013 94.5011 25.6192 93.4837 26.5446Z" fill="black"/>
<path d="M109.642 13.3965C111.828 11.2309 112.974 8.29294 114.012 6.5864C114.521 5.81256 115.93 3.18791 118.109 2.56708C118.617 2.4126 119.518 1.33127 117.341 1.01648C116.825 0.864919 115.93 1.01648 114.772 1.33126C109.386 2.87458 106.434 7.51618 103.878 14.0159C103.227 15.5636 101.429 18.0396 102.079 18.5059C102.456 18.9679 103.739 18.0396 105.025 18.5059C110.027 20.0492 115.287 20.52 119.655 18.35C121.96 17.4173 122.47 15.874 121.569 16.0255C119.136 15.7151 116.567 13.7084 112.972 13.0861C111.959 12.7786 110.541 12.9302 109.642 13.3965Z" fill="black"/>
<path d="M134.79 3.02906C133.127 7.36025 128.881 8.74763 127.601 9.21835C126.576 9.6847 122.212 11.0721 119.009 8.44451C120.679 4.1104 124.907 2.72302 126.064 2.25085C127.222 1.94772 131.457 0.401495 134.79 3.02906V3.02906ZM170.982 47.1338C173.798 48.3623 176.232 46.819 177.264 44.0311C177.769 42.8026 178.02 42.0214 178.02 40.7885H181.754V77.1519H179.062C174.436 61.9781 162.9 47.2795 149.414 43.7265C136.079 41.2505 120.555 41.5565 112.856 55.6373C110.67 59.5007 111.824 67.3965 115.93 70.1844C129.658 80.2443 144.665 75.5955 162.9 78.6937C172.121 80.2443 182.259 86.5852 186.365 98.9667C190.352 110.877 189.579 123.104 185.601 131.15C176.231 150.488 158.787 152.349 147.617 152.349C135.942 152.349 124.265 145.849 115.03 141.821C112.213 140.597 109.772 142.136 108.744 144.924C108.228 146.157 107.973 147.094 107.973 148.173H104.256V109.796C105.282 109.796 106.432 109.796 107.973 109.951C111.564 127.589 123.11 140.6 134.659 144.616C148.006 149.406 161.344 148.635 171.739 139.816C175.845 136.414 177.387 128.989 175.845 122.489C173.535 112.736 161.083 110.108 152.106 109.952C132.863 109.339 109.521 109.646 102.587 84.1121C99.8965 71.8851 101.563 58.4237 108.87 49.2994C120.935 35.0598 141.206 34.6007 156.6 40.3193C162.121 41.7096 165.836 45.2669 170.982 47.1338ZM161.988 189.48C166.733 189.48 170.582 191.806 173.28 192.578C174.695 193.045 178.667 194.436 182.015 192.578C182.649 192.272 184.707 192.116 182.259 195.371C181.615 196.292 180.338 197.224 178.804 198.154C170.582 202.947 163.281 200.936 154.559 196.136C152.239 194.907 148.648 195.051 148.77 193.66C148.77 192.272 150.566 191.347 151.855 189.181C156.735 180.819 162.766 173.852 170.08 170.608C173.919 168.757 175.73 170.149 174.57 171.376C171.743 174.634 170.461 180.668 166.615 185.776C165.461 187.32 163.784 188.871 161.988 189.48Z" fill="black"/>
<path d="M186.246 177.259C190.599 175.408 194.705 175.872 197.398 175.561C198.814 175.254 202.92 175.095 205.357 172.155C205.873 171.545 207.671 170.46 206.379 174.636C206.121 175.561 205.226 176.804 204.081 178.343C197.782 186.08 190.599 187.164 181.36 186.236C178.926 186.08 175.072 187.164 174.693 185.774C174.436 184.537 176.371 183.301 177.005 180.977C179.184 171.377 182.653 162.565 188.421 156.678C191.373 153.593 193.546 154.207 192.786 155.753C191.116 159.781 191.496 165.819 189.452 172.002C188.799 173.853 187.659 175.87 186.246 177.259" fill="black"/>
<path d="M206.117 155.447C209.593 152.197 213.563 151.267 215.884 150.187C217.286 149.406 220.881 147.862 222.421 144.301C222.805 143.532 224.216 141.984 224.097 146.155C223.96 147.096 223.457 148.635 222.682 150.654C218.83 159.616 212.416 163.183 203.684 165.348C201.508 166.125 198.04 168.295 197.541 167.209C197.021 166.276 198.559 164.423 198.432 161.942C198.298 152.508 199.455 143.22 203.425 135.951C205.357 131.927 207.414 131.771 207.032 133.634C206.513 137.809 208.169 143.22 207.793 149.561C207.668 151.575 207.033 153.739 206.117 155.447" fill="black"/>
<path d="M218.192 129.144C220.626 124.957 223.958 122.644 225.889 120.781C226.912 119.697 229.741 116.918 230.376 113.046C230.499 112.272 231.402 110.421 232.293 114.286C232.436 115.212 232.293 116.762 232.174 118.776C230.894 128.518 225.75 133.937 218.447 139.045C216.515 140.595 213.959 143.686 213.315 143.064C212.544 142.295 213.443 140.125 212.803 137.96C210.362 129.3 209.073 120.322 210.865 112.272C211.764 107.941 213.562 107.171 213.562 108.866C214.217 112.89 217.157 117.233 218.191 123.262C218.708 124.957 218.708 127.288 218.192 129.144" fill="black"/>
<path d="M222.299 99.28C223.318 94.79 225.63 91.3842 226.654 88.9082C227.17 87.5164 228.966 83.9518 228.324 80.2472C228.324 79.622 228.707 77.4564 230.5 80.5591C230.897 81.3286 231.138 82.8675 231.535 84.5784C233.072 93.5556 230.12 100.363 225.371 107.947C223.96 109.952 222.683 113.984 221.903 113.514C221.004 113.199 221.265 110.882 220.105 109.338C215.501 102.68 212.026 95.2534 211.389 87.5179C210.87 83.4942 212.288 81.7833 212.665 83.3397C214.343 86.744 218.194 89.3643 220.627 94.1735C221.66 95.4079 222.299 97.5735 222.299 99.28" fill="black"/>
<path d="M219.211 71.2657C219.085 66.78 220.5 62.9166 221.003 60.4436C221.268 58.8886 222.159 55.1724 220.88 52.0814C220.621 51.3075 220.5 49.2979 222.805 51.6194C223.317 52.2373 223.837 53.4731 224.593 55.0252C227.941 62.7534 226.531 70.0299 223.7 78.3891C222.936 80.5547 222.42 84.5784 221.663 84.4225C220.76 84.4225 220.499 82.2525 219.084 81.0167C213.697 76.2279 208.832 70.6449 206.635 63.6905C205.481 60.1302 206.377 58.1162 207.154 59.352C209.207 61.9796 213.314 63.2198 216.649 67.0963C217.668 67.8643 218.832 69.7151 219.211 71.2657" fill="black"/>
<path d="M209.851 46.3584C208.69 42.02 209.209 37.8403 209.209 35.2128C209.074 33.6695 208.952 29.7944 207.037 27.1741C206.776 26.7034 206.117 24.8453 208.829 26.2371C209.332 26.5431 210.223 27.4729 211.266 28.8734C216.263 35.2142 216.655 42.6466 215.753 51.6194C215.501 54.091 216.008 57.9646 215.237 58.1191C214.341 58.4193 213.563 56.4082 212.026 55.6387C205.618 53.0068 199.714 49.1419 196.123 43.2558C194.07 40.1648 194.583 38.0006 195.482 38.929C198.176 40.6311 202.287 40.6311 206.381 43.0955C207.668 43.572 209.073 44.9638 209.851 46.3584" fill="black"/>
<path d="M195.862 26.3959C193.944 23.1417 193.17 19.5858 192.532 17.4202C192.016 16.3345 190.859 13.089 188.678 11.8445C188.165 11.3898 187.265 9.98636 189.838 10.3011C190.354 10.3011 191.378 10.7675 192.652 11.3898C198.3 14.7868 200.61 20.6686 202.151 28.4041C202.53 30.5697 204.081 33.5121 203.427 33.9711C202.79 34.5934 201.632 33.1973 200.09 33.1973C194.189 33.5121 188.299 32.4278 183.933 29.0177C181.36 27.1668 181.24 25.3131 182.135 25.6133C184.948 26.084 188.301 24.532 192.275 24.8482C193.428 24.8497 194.969 25.4632 195.862 26.3959" fill="black"/>
<path d="M179.562 13.3965C177.389 11.2309 176.232 8.29293 175.213 6.43483C174.693 5.65662 173.278 3.1879 171.101 2.41114C170.585 2.25083 169.685 1.3298 171.878 1.01502C172.381 0.863454 173.415 1.01502 174.437 1.3298C179.823 2.87311 182.772 7.51472 185.345 13.8672C185.985 15.5621 187.784 17.8822 187.143 18.3485C186.768 18.9664 185.466 18.0381 184.191 18.5045C179.184 20.0478 173.914 20.3626 169.685 18.3485C167.255 17.4158 166.729 15.7122 167.636 15.8725C170.082 15.5621 172.639 13.5524 176.232 12.9302C177.264 12.6227 178.665 12.9302 179.562 13.3965Z" fill="black"/>
<path d="M154.301 3.02906C155.957 7.36025 160.189 8.74763 161.482 9.21835C162.504 9.6847 166.875 11.0721 170.078 8.44451C168.404 4.1104 164.179 2.72302 163.019 2.25085C161.863 1.94772 157.633 0.401495 154.301 3.02906" fill="black"/>
</g>
<defs>
<clipPath id="clip0_7_2">
<rect width="290" height="291" fill="white"/>
</clipPath>
</defs>
</svg>
