<?xml version="1.0" encoding="utf-8"?>
<!-- Generator: Adobe Illustrator 24.0.2, SVG Export Plug-In . SVG Version: 6.00 Build 0)  -->
<svg version="1.0" id="Layer_1" xmlns="http://www.w3.org/2000/svg" xmlns:xlink="http://www.w3.org/1999/xlink" x="0px" y="0px"
	 viewBox="0 0 300 280" enable-background="new 0 0 300 280" xml:space="preserve">
<g>
	<polygon fill-rule="evenodd" clip-rule="evenodd" fill="#C42032" points="41.73,100.69 258.27,100.69 258.27,179.31 41.73,179.31 
		41.73,100.69 	"/>
	<path fill-rule="evenodd" clip-rule="evenodd" fill="#FFFFFF" d="M193.1,141.36l-0.67,2.17c-0.87,2.8,0.67,3.44,2.06,3.46
		c0.94,0.02,3.23-0.19,3.97-2.85h5.37c-1.39,4.58-5.95,6.8-9.96,6.85c-4.1,0.06-7.88-2.26-6.85-6.52l2.16-7.76
		c2.24-6.5,7.59-7.08,10.9-7.05c4.67,0.05,7.02,2.96,5.85,7.04l-1.34,4.68L193.1,141.36L193.1,141.36z M194.27,137.48h6.09
		c1.06-2.43,0.64-4-1.88-4.02C196.39,133.44,194.86,134.44,194.27,137.48L194.27,137.48z M184.24,142.99
		c-1.28,5.91-6.45,7.74-10.46,7.79c-4.1,0.06-7.94-1.64-6.74-6.52l2.05-7.76c2.24-6.5,7.59-7.08,10.9-7.05
		c5.73,0.05,6.96,3.4,5.79,7.48l-5.41,0.01c1.06-2.43,0.25-3.27-1.93-3.3c-2.09-0.03-3.62,0.8-4.21,3.84l-1.67,5.84
		c-0.8,2.81,0.62,3.31,2.01,3.35c2.13,0.07,3.83-1.06,4.25-3.68H184.24L184.24,142.99z M224.56,141.23l-0.67,2.17
		c-0.87,2.8,0.67,3.44,2.06,3.46c0.94,0.02,3.23-0.19,3.97-2.85h5.37c-1.39,4.58-5.95,6.8-9.96,6.85c-4.1,0.06-7.88-2.26-6.85-6.52
		l2.16-7.76c2.24-6.5,7.59-7.08,10.9-7.05c4.67,0.05,7.02,2.96,5.85,7.04l-1.34,4.68L224.56,141.23L224.56,141.23z M225.72,137.36
		h6.09c1.06-2.43,0.64-4-1.88-4.02C227.84,133.31,226.31,134.31,225.72,137.36L225.72,137.36z M160.87,129.94h5.33l-5.82,20.69
		h-5.33L160.87,129.94L160.87,129.94z M162.61,123.59h5.33l-1.21,4.36h-5.38L162.61,123.59L162.61,123.59z M130.42,135.94l4.83-1.51
		c-0.12-3.56-3.8-5.13-6.58-5.12c-5.29,0.02-9.36,3.56-9.14,8.18c0.08,1.65,3.02,3.69,4.71,4.22c1.36,0.43,3.24,1.65,3.2,2.85
		c-0.08,2.49-5.99,4.02-6.23-0.93l-4.95,1.22c0.87,2.92,1.57,5.75,7.04,5.82c4.03,0.05,9.26-2.72,9.37-7.62
		c0.05-2.33-2.25-3.62-4.77-4.95c-1.17-0.61-3.2-1.48-3.14-2.74C124.86,133.47,129.58,131.28,130.42,135.94L130.42,135.94z
		 M140.07,129.88h4.89l-0.68,2.45c2.1-1.76,4.82-2.95,6.94-2.84c2.61,0.14,4.6,2.26,3.43,6.72c-0.79,3.01-1.61,6.01-2.68,9.02
		c-1.98,5.55-8.09,7.58-11.84,3.47l-3.31,11.47h-5.21L140.07,129.88L140.07,129.88z M144.05,134.55l-3.19,11.21
		c2.07,3.05,5.33,1.2,6.06-1.22l2.13-7.06C150.39,132.63,147.64,132,144.05,134.55L144.05,134.55z M214.73,123.7h5.29l-8.17,28.56
		c-1.12,3.9-3.58,8.49-10.61,8.35c-6.47-0.13-7.83-3.15-6.21-7.83l5.02,0c-0.53,2.64,0.06,3.55,2.08,3.58
		c2.92,0.03,3.75-1.7,4.44-4.11L214.73,123.7L214.73,123.7z M245.09,123.62h5.22l-2.01,7.21h3.55l-1.14,3.84h-3.47l-2.68,9.61
		c-0.43,1.56-0.73,2.58,2.74,2.45l-1.13,4.02c-3.01,0.38-5.2,0.17-6.33-0.36c-2.24-1.06-1.22-3.51-0.54-5.96l2.72-9.76h-2.82
		l1.14-3.84h2.74L245.09,123.62L245.09,123.62z M169.66,166.44c-0.13-0.03-0.26-0.05-0.4-0.08c-0.14-0.02-0.26-0.03-0.39-0.03
		c-0.13,0-0.25,0.01-0.35,0.04c-0.1,0.03-0.19,0.08-0.26,0.14c-0.07,0.07-0.12,0.16-0.16,0.26c-0.04,0.11-0.05,0.24-0.05,0.39v0.58
		h1.33v0.9h-1.33v3.57h-1.17v-3.57h-0.81v-0.9h0.81v-0.53c0-0.31,0.05-0.58,0.14-0.81c0.09-0.23,0.23-0.41,0.39-0.56
		c0.17-0.15,0.37-0.25,0.59-0.32c0.23-0.07,0.47-0.1,0.74-0.1c0.17,0,0.33,0.01,0.49,0.04c0.16,0.03,0.3,0.06,0.42,0.1V166.44
		L169.66,166.44z M170.03,172.23v-6.67h1.17v6.67H170.03L170.03,172.23z M171.94,167.77h1.25l0.72,1.62
		c0.27,0.61,0.46,1.07,0.57,1.36h0.02c0.08-0.23,0.26-0.66,0.52-1.28l0.74-1.7h1.27l-3.08,6.61h-1.16l1.1-2.39L171.94,167.77
		L171.94,167.77z M177.77,167.77h1.17v4.46h-1.17V167.77L177.77,167.77z M177.74,165.56h1.23v1.18h-1.23V165.56L177.74,165.56z
		 M181.33,168.39h0.02c0.07-0.09,0.16-0.18,0.26-0.27c0.1-0.09,0.22-0.17,0.36-0.24c0.13-0.07,0.28-0.12,0.45-0.16
		c0.16-0.04,0.34-0.06,0.52-0.06c0.17,0,0.34,0.02,0.51,0.05c0.16,0.04,0.31,0.09,0.45,0.17c0.13,0.08,0.25,0.18,0.36,0.3
		c0.1,0.12,0.19,0.27,0.24,0.44c0.03,0.09,0.06,0.2,0.07,0.31c0.01,0.11,0.02,0.24,0.02,0.39v2.9h-1.17v-2.73
		c0-0.12,0-0.22-0.02-0.31c-0.01-0.08-0.03-0.16-0.05-0.22c-0.06-0.14-0.15-0.24-0.27-0.31c-0.12-0.06-0.26-0.09-0.44-0.09
		c-0.23,0-0.45,0.05-0.65,0.15c-0.21,0.1-0.39,0.25-0.56,0.44v3.07h-1.17v-4.46h0.97L181.33,168.39L181.33,168.39z M188.97,172.35
		c0-0.06,0-0.14,0-0.23c0-0.09,0.01-0.17,0.01-0.23h-0.01c-0.07,0.06-0.16,0.11-0.25,0.16c-0.09,0.05-0.2,0.1-0.31,0.15
		c-0.11,0.04-0.24,0.08-0.37,0.11c-0.13,0.03-0.27,0.04-0.41,0.04c-0.25,0-0.5-0.04-0.74-0.13c-0.24-0.08-0.46-0.22-0.65-0.4
		c-0.19-0.18-0.34-0.42-0.45-0.7c-0.11-0.29-0.17-0.63-0.17-1.03c0-0.4,0.06-0.75,0.18-1.06c0.12-0.3,0.27-0.56,0.47-0.76
		c0.19-0.2,0.42-0.36,0.67-0.46c0.25-0.1,0.51-0.15,0.78-0.15c0.29,0,0.55,0.06,0.78,0.17c0.23,0.11,0.41,0.26,0.56,0.44h0.02
		l0.05-0.5h1.03v4.55c0,0.26-0.02,0.48-0.07,0.67c-0.05,0.19-0.11,0.35-0.2,0.5c-0.11,0.17-0.24,0.32-0.4,0.44
		c-0.16,0.13-0.35,0.23-0.56,0.31c-0.21,0.08-0.44,0.15-0.69,0.19c-0.25,0.04-0.51,0.06-0.79,0.06c-0.16,0-0.31-0.01-0.47-0.02
		c-0.15-0.01-0.29-0.03-0.43-0.05c-0.13-0.02-0.26-0.04-0.37-0.07c-0.11-0.03-0.2-0.05-0.28-0.08v-0.89
		c0.22,0.07,0.45,0.12,0.68,0.15c0.24,0.04,0.49,0.05,0.75,0.05c0.52,0,0.93-0.09,1.22-0.28c0.29-0.19,0.43-0.47,0.43-0.86V172.35
		L188.97,172.35z M187.93,171.48c0.12,0,0.23-0.01,0.34-0.04c0.1-0.03,0.2-0.06,0.29-0.11c0.09-0.04,0.17-0.09,0.24-0.14
		c0.07-0.05,0.13-0.1,0.18-0.16v-1.99c-0.13-0.14-0.28-0.25-0.47-0.35c-0.18-0.09-0.38-0.14-0.59-0.14c-0.07,0-0.15,0.01-0.23,0.03
		c-0.08,0.02-0.16,0.05-0.24,0.09c-0.08,0.04-0.16,0.1-0.23,0.17c-0.07,0.07-0.14,0.16-0.2,0.28c-0.06,0.11-0.1,0.24-0.13,0.4
		c-0.04,0.15-0.05,0.33-0.05,0.53c0,0.22,0.02,0.42,0.07,0.6c0.05,0.18,0.12,0.33,0.21,0.45c0.09,0.12,0.21,0.22,0.34,0.29
		C187.59,171.44,187.74,171.48,187.93,171.48L187.93,171.48z M197.56,166.44c-0.13-0.03-0.26-0.05-0.39-0.08
		c-0.13-0.02-0.26-0.03-0.38-0.03c-0.13,0-0.24,0.01-0.34,0.04c-0.1,0.03-0.18,0.08-0.25,0.14c-0.07,0.07-0.12,0.16-0.16,0.26
		c-0.03,0.11-0.05,0.24-0.05,0.39v0.58h1.3v0.9h-1.3v3.57h-1.14v-3.57h-0.79v-0.9h0.79v-0.53c0-0.31,0.05-0.58,0.14-0.81
		c0.09-0.23,0.22-0.41,0.38-0.56c0.16-0.15,0.36-0.25,0.58-0.32c0.22-0.07,0.46-0.1,0.72-0.1c0.16,0,0.32,0.01,0.48,0.04
		c0.16,0.03,0.3,0.06,0.41,0.1V166.44L197.56,166.44z M201.16,170c0-0.24-0.03-0.44-0.09-0.63c-0.06-0.18-0.14-0.33-0.24-0.46
		c-0.1-0.12-0.23-0.22-0.37-0.28c-0.15-0.06-0.3-0.09-0.47-0.09c-0.17,0-0.32,0.03-0.47,0.09c-0.14,0.06-0.27,0.15-0.37,0.28
		c-0.1,0.12-0.18,0.27-0.24,0.46c-0.06,0.18-0.09,0.39-0.09,0.63c0,0.24,0.03,0.44,0.09,0.63c0.06,0.18,0.14,0.33,0.24,0.45
		c0.1,0.12,0.23,0.21,0.37,0.28c0.14,0.06,0.3,0.09,0.47,0.09c0.17,0,0.33-0.03,0.47-0.09c0.14-0.06,0.26-0.16,0.37-0.28
		c0.1-0.12,0.18-0.27,0.24-0.45C201.13,170.45,201.16,170.24,201.16,170L201.16,170z M202.34,170c0,0.35-0.05,0.67-0.17,0.96
		c-0.11,0.29-0.27,0.54-0.47,0.74c-0.2,0.21-0.45,0.36-0.74,0.48c-0.29,0.11-0.61,0.17-0.97,0.17c-0.37,0-0.7-0.05-0.99-0.17
		c-0.29-0.11-0.54-0.27-0.74-0.48c-0.2-0.21-0.36-0.45-0.46-0.74c-0.11-0.29-0.16-0.61-0.16-0.96c0-0.35,0.06-0.67,0.16-0.96
		c0.11-0.29,0.27-0.54,0.47-0.74c0.2-0.21,0.45-0.36,0.74-0.48c0.29-0.11,0.61-0.17,0.97-0.17c0.37,0,0.7,0.05,0.99,0.17
		c0.29,0.11,0.54,0.27,0.74,0.48c0.2,0.21,0.36,0.45,0.47,0.74C202.29,169.33,202.34,169.65,202.34,170L202.34,170z M206.14,168.63
		h-0.1c-0.35,0-0.66,0.05-0.93,0.15c-0.27,0.1-0.47,0.25-0.62,0.46v2.99h-1.14v-4.46h0.95l0.11,0.62h0.02
		c0.14-0.23,0.32-0.41,0.56-0.54c0.24-0.13,0.52-0.19,0.85-0.19c0.12,0,0.22,0.01,0.3,0.02V168.63L206.14,168.63z M212.51,171.47
		c0.22,0,0.44-0.02,0.67-0.06c0.23-0.04,0.47-0.11,0.71-0.19v0.87c-0.14,0.06-0.36,0.12-0.66,0.18c-0.3,0.05-0.6,0.08-0.92,0.08
		c-0.32,0-0.63-0.04-0.91-0.12c-0.29-0.08-0.54-0.21-0.76-0.39c-0.22-0.18-0.39-0.42-0.51-0.7c-0.13-0.29-0.19-0.64-0.19-1.05
		c0-0.41,0.06-0.76,0.18-1.06c0.12-0.3,0.28-0.56,0.48-0.75c0.2-0.2,0.43-0.35,0.68-0.45c0.26-0.1,0.52-0.15,0.8-0.15
		c0.29,0,0.55,0.04,0.79,0.13c0.24,0.09,0.45,0.22,0.63,0.41c0.18,0.18,0.31,0.42,0.41,0.71c0.1,0.29,0.15,0.63,0.15,1.03
		c0,0.15-0.01,0.28-0.01,0.39h-2.97c0.02,0.21,0.06,0.38,0.14,0.53c0.08,0.14,0.18,0.26,0.31,0.35c0.13,0.09,0.27,0.16,0.44,0.2
		C212.13,171.44,212.31,171.47,212.51,171.47L212.51,171.47z M212.06,168.51c-0.14,0-0.27,0.03-0.37,0.08
		c-0.11,0.05-0.2,0.12-0.28,0.21c-0.08,0.09-0.14,0.19-0.19,0.31c-0.05,0.12-0.08,0.24-0.09,0.37h1.78c0-0.13-0.02-0.26-0.05-0.37
		c-0.04-0.12-0.09-0.22-0.16-0.31c-0.07-0.09-0.16-0.16-0.26-0.21C212.32,168.53,212.2,168.51,212.06,168.51L212.06,168.51z
		 M219.09,167.77l-1.75,4.46h-1.1l-1.76-4.46h1.17l0.63,1.7c0.18,0.48,0.35,0.96,0.5,1.44h0.02c0.13-0.41,0.29-0.88,0.49-1.41
		l0.63-1.73H219.09L219.09,167.77z M222.08,171.47c0.22,0,0.44-0.02,0.67-0.06c0.23-0.04,0.47-0.11,0.71-0.19v0.87
		c-0.14,0.06-0.36,0.12-0.66,0.18c-0.3,0.05-0.6,0.08-0.92,0.08c-0.32,0-0.63-0.04-0.91-0.12c-0.29-0.08-0.54-0.21-0.76-0.39
		c-0.22-0.18-0.39-0.42-0.51-0.7c-0.13-0.29-0.19-0.64-0.19-1.05c0-0.41,0.06-0.76,0.18-1.06c0.12-0.3,0.28-0.56,0.48-0.75
		c0.2-0.2,0.43-0.35,0.68-0.45c0.26-0.1,0.52-0.15,0.8-0.15c0.29,0,0.55,0.04,0.79,0.13c0.24,0.09,0.45,0.22,0.63,0.41
		c0.18,0.18,0.31,0.42,0.41,0.71c0.1,0.29,0.15,0.63,0.15,1.03c0,0.15-0.01,0.28-0.01,0.39h-2.97c0.02,0.21,0.06,0.38,0.14,0.53
		c0.08,0.14,0.18,0.26,0.31,0.35c0.13,0.09,0.27,0.16,0.44,0.2C221.7,171.44,221.88,171.47,222.08,171.47L222.08,171.47z
		 M221.63,168.51c-0.14,0-0.26,0.03-0.37,0.08c-0.11,0.05-0.2,0.12-0.28,0.21c-0.08,0.09-0.14,0.19-0.19,0.31
		c-0.05,0.12-0.08,0.24-0.09,0.37h1.78c0-0.13-0.02-0.26-0.05-0.37c-0.04-0.12-0.09-0.22-0.16-0.31c-0.07-0.09-0.16-0.16-0.26-0.21
		C221.89,168.53,221.77,168.51,221.63,168.51L221.63,168.51z M227.35,168.63h-0.09c-0.34,0-0.64,0.05-0.9,0.15
		c-0.26,0.1-0.46,0.25-0.6,0.46v2.99h-1.11v-4.46h0.92l0.1,0.62h0.02c0.13-0.23,0.31-0.41,0.54-0.54c0.23-0.13,0.5-0.19,0.83-0.19
		c0.11,0,0.21,0.01,0.29,0.02V168.63L227.35,168.63z M227.44,167.77h1.19l0.68,1.62c0.26,0.61,0.44,1.07,0.54,1.36h0.02
		c0.08-0.23,0.24-0.66,0.5-1.28l0.7-1.7h1.2l-2.92,6.61h-1.1l1.04-2.39L227.44,167.77L227.44,167.77z M236.1,170
		c0-0.24-0.03-0.44-0.08-0.63c-0.06-0.18-0.13-0.33-0.23-0.46c-0.1-0.12-0.22-0.22-0.36-0.28c-0.14-0.06-0.29-0.09-0.46-0.09
		c-0.16,0-0.31,0.03-0.45,0.09c-0.14,0.06-0.26,0.15-0.36,0.28c-0.1,0.12-0.18,0.27-0.23,0.46c-0.06,0.18-0.08,0.39-0.08,0.63
		c0,0.24,0.03,0.44,0.08,0.63c0.06,0.18,0.13,0.33,0.24,0.45c0.1,0.12,0.22,0.21,0.36,0.28c0.14,0.06,0.29,0.09,0.46,0.09
		c0.17,0,0.32-0.03,0.45-0.09c0.14-0.06,0.26-0.16,0.36-0.28c0.1-0.12,0.18-0.27,0.23-0.45C236.07,170.45,236.1,170.24,236.1,170
		L236.1,170z M237.24,170c0,0.35-0.05,0.67-0.16,0.96c-0.11,0.29-0.26,0.54-0.45,0.74c-0.2,0.21-0.44,0.36-0.72,0.48
		c-0.28,0.11-0.59,0.17-0.94,0.17c-0.36,0-0.67-0.05-0.96-0.17c-0.28-0.11-0.52-0.27-0.72-0.48c-0.2-0.21-0.35-0.45-0.45-0.74
		c-0.11-0.29-0.16-0.61-0.16-0.96c0-0.35,0.05-0.67,0.16-0.96c0.11-0.29,0.26-0.54,0.46-0.74c0.2-0.21,0.44-0.36,0.72-0.48
		c0.28-0.11,0.59-0.17,0.94-0.17c0.36,0,0.68,0.05,0.96,0.17c0.28,0.11,0.52,0.27,0.72,0.48c0.2,0.21,0.35,0.45,0.45,0.74
		C237.19,169.33,237.24,169.65,237.24,170L237.24,170z M239.24,168.39h0.02c0.07-0.09,0.15-0.18,0.25-0.27
		c0.1-0.09,0.21-0.17,0.34-0.24c0.13-0.07,0.27-0.12,0.42-0.16c0.15-0.04,0.32-0.06,0.49-0.06c0.16,0,0.32,0.02,0.48,0.05
		c0.15,0.04,0.3,0.09,0.42,0.17c0.13,0.08,0.24,0.18,0.34,0.3c0.1,0.12,0.18,0.27,0.23,0.44c0.03,0.09,0.05,0.2,0.06,0.31
		c0.01,0.11,0.02,0.24,0.02,0.39v2.9h-1.11v-2.73c0-0.12,0-0.22-0.01-0.31c-0.01-0.08-0.03-0.16-0.05-0.22
		c-0.06-0.14-0.14-0.24-0.26-0.31c-0.11-0.06-0.25-0.09-0.41-0.09c-0.22,0-0.42,0.05-0.62,0.15c-0.2,0.1-0.37,0.25-0.53,0.44v3.07
		h-1.11v-4.46h0.92L239.24,168.39L239.24,168.39z M245.87,171.47c0.22,0,0.44-0.02,0.67-0.06c0.23-0.04,0.47-0.11,0.71-0.19v0.87
		c-0.14,0.06-0.36,0.12-0.66,0.18c-0.3,0.05-0.6,0.08-0.92,0.08c-0.32,0-0.63-0.04-0.91-0.12c-0.29-0.08-0.54-0.21-0.76-0.39
		c-0.22-0.18-0.39-0.42-0.51-0.7c-0.13-0.29-0.19-0.64-0.19-1.05c0-0.41,0.06-0.76,0.18-1.06c0.12-0.3,0.28-0.56,0.48-0.75
		c0.2-0.2,0.43-0.35,0.68-0.45c0.26-0.1,0.52-0.15,0.8-0.15c0.29,0,0.55,0.04,0.79,0.13c0.24,0.09,0.45,0.22,0.63,0.41
		c0.18,0.18,0.31,0.42,0.41,0.71c0.1,0.29,0.15,0.63,0.15,1.03c0,0.15-0.01,0.28-0.01,0.39h-2.97c0.02,0.21,0.06,0.38,0.14,0.53
		c0.08,0.14,0.18,0.26,0.31,0.35c0.13,0.09,0.27,0.16,0.44,0.2S245.67,171.47,245.87,171.47L245.87,171.47z M245.43,168.51
		c-0.14,0-0.26,0.03-0.37,0.08c-0.11,0.05-0.2,0.12-0.28,0.21c-0.08,0.09-0.14,0.19-0.19,0.31c-0.05,0.12-0.08,0.24-0.09,0.37h1.78
		c0-0.13-0.02-0.26-0.05-0.37c-0.04-0.12-0.09-0.22-0.16-0.31c-0.07-0.09-0.16-0.16-0.26-0.21
		C245.69,168.53,245.57,168.51,245.43,168.51L245.43,168.51z"/>
	<path fill-rule="evenodd" clip-rule="evenodd" fill="#F8981D" d="M84.22,106.54c2,3.27-0.71,8.47-4.7,10.61
		c-3.99,2.15-8.04,2.45-10.39-0.68c-2.21-2.94-0.16-8.28,3.72-10.61C76.79,103.5,81.72,102.45,84.22,106.54L84.22,106.54z"/>
	<path fill-rule="evenodd" clip-rule="evenodd" fill="#F78F1E" d="M69.82,129.49c2.12,2.94-1.29,7.72-5.27,9.87
		c-3.99,2.15-8.32,2.51-10.68-0.28c-2.38-2.81,0.59-7.82,4.47-10.16C62.27,126.56,67.23,125.88,69.82,129.49L69.82,129.49z"/>
	<path fill-rule="evenodd" clip-rule="evenodd" fill="#F78E1E" d="M56.17,160.98c-3.22,1.73-9.06,2.54-10.48-0.44
		c-1.38-2.88,1.7-6.76,5.08-8.79c3.25-1.95,7.61-2.8,9.88-1.11C64.54,153.55,60,158.92,56.17,160.98L56.17,160.98z"/>
	<path fill-rule="evenodd" clip-rule="evenodd" fill="#F6AD1B" d="M92.89,114.58c1.31,2.13-0.74,6.4-3.34,7.8
		c-2.6,1.4-5.14,2.34-7.33,0.48c-2.43-2.06,0.01-6.3,2.38-8.07C87.17,112.86,91.25,111.91,92.89,114.58L92.89,114.58z"/>
	<path fill-rule="evenodd" clip-rule="evenodd" fill="#F6A41C" d="M81.58,132.42c1.38,2.09-0.92,6.15-3.53,7.55
		c-2.6,1.4-5.39,2.21-7.33,0.67c-2.49-1.98,0.2-6.24,2.57-8.01C75.86,130.7,80.07,130.12,81.58,132.42L81.58,132.42z"/>
	<path fill-rule="evenodd" clip-rule="evenodd" fill="#F7A51B" d="M75.24,149.56c1.68,2.02-0.89,5.65-3.47,7.16
		c-2.55,1.5-5.59,2.08-7.24,0.82c-2.3-1.76,0.32-5.61,2.87-7.37C70.04,148.35,73.81,147.84,75.24,149.56L75.24,149.56z"/>
	<path fill-rule="evenodd" clip-rule="evenodd" fill="#F8C014" d="M100.75,121.69c1,1.63-0.19,3.93-2.05,5.42
		c-1.8,1.44-4.21,2.12-5.87,0.72c-1.8-1.53,0.12-4.57,1.87-5.88C96.62,120.53,99.54,119.71,100.75,121.69L100.75,121.69z"/>
	<path fill-rule="evenodd" clip-rule="evenodd" fill="#FDCD08" d="M92.46,135.01c1.07,1.58-0.19,3.93-2.05,5.42
		c-1.8,1.44-4.21,2.12-5.87,0.72c-1.8-1.53,0.24-4.44,2-5.76C88.45,133.97,91.25,133.21,92.46,135.01L92.46,135.01z"/>
	<path fill-rule="evenodd" clip-rule="evenodd" fill="#F9BD15" d="M87.94,147.82c1.11,1.27-0.32,3.81-2.18,5.3
		c-1.8,1.44-4.4,1.94-5.74,0.85c-1.58-1.3,0.43-4.25,2.19-5.57C84.12,146.97,86.77,146.48,87.94,147.82L87.94,147.82z"/>
	<path fill-rule="evenodd" clip-rule="evenodd" fill="#F8C014" d="M106.37,126.67c0.73,1.22-0.31,2.97-1.63,4.12
		c-1.29,1.12-3.21,1.69-4.23,0.79c-1.17-1.03,0.07-3.3,1.3-4.37C103.23,125.99,105.56,125.33,106.37,126.67L106.37,126.67z"/>
	<path fill-rule="evenodd" clip-rule="evenodd" fill="#FDCD08" d="M100.34,136.91c0.73,1.22-0.31,2.97-1.63,4.12
		c-1.29,1.12-3.21,1.69-4.23,0.79c-1.17-1.03,0.07-3.3,1.3-4.37C97.2,136.23,99.53,135.56,100.34,136.91L100.34,136.91z"/>
	<path fill-rule="evenodd" clip-rule="evenodd" fill="#FDCD08" d="M97.05,146.75c0.68,1.13-0.16,2.83-1.39,3.89
		c-1.2,1.04-3.42,1.63-4.37,0.79c-1.08-0.95,0.19-3.13,1.34-4.12C93.94,146.17,96.29,145.49,97.05,146.75L97.05,146.75z"/>
	<path fill-rule="evenodd" clip-rule="evenodd" fill="#F6EB16" d="M110.53,130.4c0.57,0.94-0.24,2.29-1.26,3.18
		c-1,0.86-2.47,1.3-3.26,0.61c-0.9-0.79,0.09-2.53,1.04-3.35C108.14,129.89,109.9,129.36,110.53,130.4L110.53,130.4z"/>
	<path fill-rule="evenodd" clip-rule="evenodd" fill="#F6EB16" d="M106.13,138.37c0.57,0.94-0.24,2.29-1.26,3.18
		c-1,0.86-2.47,1.3-3.26,0.61c-0.9-0.79,0.09-2.53,1.04-3.35C103.74,137.86,105.5,137.33,106.13,138.37L106.13,138.37z"/>
	<path fill-rule="evenodd" clip-rule="evenodd" fill="#F6EB16" d="M104.18,145.78c0.57,0.94-0.24,2.29-1.26,3.18
		c-1,0.86-2.47,1.3-3.26,0.61c-0.9-0.79,0.09-2.53,1.04-3.35C101.79,145.27,103.55,144.74,104.18,145.78L104.18,145.78z"/>
</g>
</svg>
