<svg width="1270" height="961" viewBox="0 0 1270 961" fill="none" xmlns="http://www.w3.org/2000/svg">
<path d="M358.405 479.026C357.821 478.437 341.848 462.518 312.046 447.926C314.578 439.23 315.747 431.566 316.331 425.228C317.695 410.194 315.747 400.466 315.747 400.024L315.358 398.108L312.825 397.813C312.241 397.813 299.385 396.191 279.517 397.371C271.336 397.813 261.012 398.697 249.715 400.466C230.431 377.915 209.394 366.123 208.615 365.534L206.473 364.355L204.33 365.534C203.356 366.123 182.514 377.915 163.035 400.613C151.543 398.697 141.414 397.813 133.039 397.371C113.17 396.339 100.315 397.813 99.7303 397.813L97.0033 398.108L96.6137 400.024C96.4189 400.466 94.6659 410.194 96.0294 425.228C96.6137 431.566 97.7824 439.23 100.315 447.926C70.1229 462.518 54.5401 478.289 53.9557 479.026L52.3975 480.647L53.9557 482.269C54.5401 483.006 70.3177 498.777 100.315 513.516C97.9772 522.065 96.6137 529.877 96.0294 536.067C94.6659 551.101 96.4189 560.829 96.6137 561.271L97.0033 563.335L99.7303 563.629C100.12 563.629 107.132 564.366 118.43 564.366C122.715 564.366 127.585 564.219 133.039 563.924C141.414 563.482 151.738 562.598 163.035 560.682C182.514 583.38 203.356 595.319 204.33 595.908L206.473 597.235L208.615 595.908C209.589 595.466 230.431 583.38 249.715 560.829C261.012 562.598 271.141 563.629 279.517 564.072C284.971 564.366 289.841 564.514 294.126 564.514C305.424 564.514 312.436 563.777 312.825 563.777L315.552 563.482L315.942 561.419C315.942 560.976 317.89 551.248 316.526 536.214C315.942 529.877 314.773 522.212 312.241 513.663C342.238 499.071 358.21 483.153 358.795 482.564L360.548 480.942L358.405 479.026ZM297.243 480.647C300.359 475.636 303.086 470.625 305.229 465.761C316.916 471.951 324.707 477.7 328.213 480.5C324.707 483.3 316.916 489.196 305.034 495.387C303.086 490.67 300.359 485.659 297.243 480.647ZM279.517 402.677C293.542 401.94 304.06 402.529 308.735 402.824C309.904 411.225 312.436 444.536 290.035 479.468C287.114 483.89 283.997 488.312 280.686 492.291C278.154 495.239 275.621 498.187 272.894 500.84L272.115 501.725L272.31 502.904C275.037 516.022 273.674 526.929 272.894 531.056C267.44 531.645 253.221 532.677 235.69 530.614L234.132 530.466L232.963 531.203C230.042 532.824 226.73 534.593 223.419 536.214C220.302 535.183 216.991 534.151 213.874 532.824C220.302 529.877 226.535 526.634 232.379 523.096C249.131 526.192 261.207 525.307 261.792 525.307L264.713 525.16L264.908 522.949C264.908 522.507 266.077 513.369 261.986 500.84C268.22 494.944 273.674 488.607 278.543 482.121C281.66 477.847 284.581 473.278 287.114 468.709C303.67 438.346 300.359 413.289 300.164 412.11L299.97 409.899L297.048 409.604C295.684 409.457 263.545 407.098 224.198 419.037C221.081 417.563 217.77 416.089 214.459 414.763C239.586 406.362 263.35 403.561 279.517 402.677ZM279.517 503.346C280.686 502.167 281.854 500.988 282.828 499.808C293.347 521.475 293.542 540.194 293.347 546.532C284.971 546.827 260.428 546.532 231.6 538.72C233.158 537.983 234.522 537.246 235.885 536.362C258.87 538.867 275.816 536.362 276.595 536.362L278.933 536.067L279.322 534.298C279.712 533.561 282.828 520.591 279.517 503.346ZM156.802 498.04C150.959 492.586 145.7 486.691 141.025 480.647C145.505 474.604 150.764 468.709 156.608 463.255L157.776 462.223L157.387 460.897C154.465 452.201 154.075 445.126 154.27 441.588C158.945 441.588 168.295 441.736 179.787 443.947L181.54 444.241L182.904 443.357C190.305 438.935 198.097 434.808 206.278 431.271C214.459 434.808 222.25 438.788 229.457 443.21L230.821 444.094L232.574 443.799C244.066 441.588 253.416 441.294 257.896 441.294C257.896 444.831 257.701 451.906 254.779 460.602L254.39 461.929L255.558 462.96C261.402 468.414 266.661 474.31 271.336 480.5C266.661 486.691 261.402 492.586 255.558 498.187L254.39 499.219L254.779 500.545C257.701 509.094 258.091 516.316 258.091 519.854C253.416 519.854 244.066 519.706 232.769 517.348L231.016 517.053L229.652 517.938C222.445 522.36 214.654 526.339 206.667 529.729C198.486 526.192 190.695 522.212 183.488 517.79L182.124 516.906L180.371 517.201C168.879 519.412 159.529 519.706 154.855 519.559C154.66 516.022 155.049 508.947 157.971 500.251L158.361 498.924L156.802 498.04ZM279.517 427.144L279.128 425.375L276.79 425.08C276.011 424.933 259.065 422.575 236.08 425.08C234.716 424.343 233.158 423.459 231.6 422.722C260.428 414.763 284.776 414.763 293.152 414.91C293.542 421.248 293.347 439.82 282.828 461.486C281.854 460.307 280.686 459.128 279.517 457.949C282.828 440.557 279.712 427.733 279.517 427.144ZM205.888 411.52C199.266 409.162 192.838 407.098 186.41 405.477C194.591 396.634 202.382 390.885 206.083 388.232C209.784 390.885 217.381 396.634 225.562 405.477C219.134 407.098 212.706 409.162 205.888 411.52ZM206.083 371.135C211.732 374.525 227.12 384.99 241.924 401.645C239.002 402.235 235.885 402.824 232.769 403.561C220.302 389.854 208.81 382.631 208.42 382.337L206.083 380.863L203.746 382.337C203.161 382.631 191.669 389.854 179.203 403.561C176.086 402.824 172.97 402.235 170.048 401.645C185.046 384.99 200.629 374.672 206.083 371.135ZM103.236 402.824C114.339 401.94 158.166 400.024 204.33 416.974C210.368 419.185 216.212 421.543 221.666 424.196C225.562 425.965 229.457 428.028 232.769 429.944L233.937 430.681L235.301 430.534C252.637 428.47 267.051 429.502 272.505 430.092C273.284 434.219 274.647 444.978 271.92 458.244L271.726 459.423L272.7 460.307C275.037 462.665 277.18 465.319 279.322 467.824C277.959 470.33 276.595 472.688 274.842 475.046C270.947 470.183 266.661 465.319 261.986 460.897C265.882 448.221 264.908 439.083 264.908 438.788L264.713 436.577L261.597 436.282C261.012 436.282 249.131 435.398 232.379 438.493C224.588 433.924 216.407 429.65 207.836 426.112C201.993 423.754 195.954 421.543 189.721 419.627C149.595 407.099 116.482 409.604 115.118 409.752L112.197 409.899L111.807 412.11C111.612 413.142 108.496 437.461 124.273 467.235C122.325 469.74 120.378 472.099 118.624 474.604C107.716 455.443 103.821 437.461 102.847 425.228C102.068 414.468 102.847 406.362 103.236 402.824ZM132.259 457.949C131.285 458.981 130.312 460.16 129.338 461.192C118.819 439.377 118.819 420.806 119.014 414.615C127.39 414.321 151.738 414.468 180.566 422.427C179.008 423.164 177.45 424.049 176.086 424.786C153.101 422.28 135.96 424.786 135.181 424.933L132.844 425.228L132.259 426.997C132.259 427.733 128.948 440.557 132.259 457.949ZM106.743 495.387C95.0554 489.196 87.264 483.448 83.9527 480.647C87.4588 477.847 95.0554 472.099 106.743 465.908C108.885 470.772 111.612 475.636 114.729 480.647C111.612 485.659 108.885 490.67 106.743 495.387ZM61.3576 480.647C65.8376 476.373 79.6674 464.729 101.678 453.527C102.457 455.738 103.236 458.096 104.21 460.455C86.0953 469.888 76.5508 478.584 76.1613 478.879L74.2134 480.647L76.1613 482.416C76.5508 482.858 86.0953 491.407 104.405 500.988C103.431 503.346 102.652 505.704 101.873 507.915C79.8622 496.713 66.0324 484.922 61.3576 480.647ZM132.454 558.471C118.43 559.208 107.911 558.765 103.236 558.323C102.847 554.786 102.068 546.827 103.042 536.214C104.21 522.949 108.496 502.756 121.741 481.827C124.663 477.405 127.779 472.836 131.285 468.709C133.623 465.761 136.155 462.96 138.687 460.307L139.661 459.423L139.466 458.244C136.739 444.978 138.298 434.219 139.077 429.944C144.531 429.355 158.75 428.323 176.281 430.239L177.644 430.387L178.813 429.797C181.93 428.028 185.241 426.407 188.552 424.786C191.864 425.817 195.175 426.996 198.486 428.176C191.864 431.123 185.436 434.514 179.397 438.051C162.646 435.103 150.569 435.987 149.985 435.987L147.063 436.282L146.674 438.493C146.674 438.935 145.505 448.074 149.401 460.749C143.362 466.498 137.908 472.688 133.233 479.173C129.922 483.595 127 488.164 124.468 492.881C108.106 523.244 111.028 548.301 111.223 549.332L111.612 551.543L114.534 551.691C114.924 551.691 117.845 551.985 122.715 551.985C134.986 551.985 159.529 550.659 187.578 542.258C190.695 543.731 193.812 545.058 196.928 546.237C172.58 554.786 148.621 557.586 132.454 558.471ZM129.338 499.956C130.312 500.988 131.285 502.167 132.259 503.198C128.948 520.591 132.259 533.561 132.454 534.151L133.039 535.92L135.376 536.214C136.155 536.362 153.296 538.867 176.281 536.362C177.839 537.099 179.203 537.983 180.761 538.72C151.933 546.679 127.195 546.827 118.819 546.679C118.624 540.341 118.819 521.77 129.338 499.956ZM205.888 549.627C212.511 551.985 219.134 554.049 225.562 555.67C217.381 564.514 209.784 570.41 206.083 573.063C202.382 570.41 194.785 564.514 186.41 555.523C192.838 554.049 199.46 551.985 205.888 549.627ZM206.083 590.16C200.434 586.623 184.851 576.158 170.243 559.355C173.164 558.766 176.281 558.176 179.397 557.439C191.864 571.294 203.356 578.664 203.94 578.958L206.278 580.432L208.615 578.958C209.2 578.664 220.497 571.294 232.963 557.439C236.08 558.176 239.002 558.766 242.118 559.355C227.315 576.01 211.732 586.623 206.083 590.16ZM308.735 558.323C303.865 558.618 293.542 559.208 279.517 558.471C261.986 557.586 235.106 554.344 207.641 544.174C201.798 542.11 195.954 539.604 190.5 537.099C186.605 535.33 182.904 533.267 179.203 531.35L178.034 530.614L176.476 530.761C158.945 532.824 144.726 531.645 139.077 531.056C138.298 526.929 136.739 516.022 139.466 502.756L139.661 501.577L138.687 500.693C136.545 498.335 134.402 495.976 132.259 493.471C133.623 490.965 135.181 488.459 136.739 485.954C140.635 490.965 144.92 495.681 149.79 500.103C145.894 512.779 147.063 521.917 147.063 522.36L147.453 524.57L150.374 524.865C150.959 524.865 163.035 525.75 179.787 522.654C187.578 527.223 195.759 531.498 204.33 535.035C209.979 537.394 216.017 539.604 222.055 541.373C250.884 550.364 276.011 551.691 288.477 551.691C293.542 551.691 296.463 551.543 296.853 551.396L299.775 551.101L300.164 548.89C300.359 547.858 303.281 523.391 287.503 493.618C289.451 491.26 291.204 488.901 292.957 486.543C303.865 505.557 307.566 523.686 308.735 535.772C309.904 546.827 309.124 554.786 308.735 558.323ZM310.098 507.768C309.319 505.557 308.54 503.198 307.566 500.988C325.876 491.554 335.615 482.858 336.005 482.416L337.953 480.647L336.005 478.879C335.615 478.437 325.876 469.888 307.566 460.455C308.54 458.096 309.319 455.885 310.098 453.527C332.109 464.582 346.134 476.373 350.809 480.647C346.134 484.922 332.304 496.713 310.098 507.768Z" fill="#BA9653"/>
<path d="M445.863 553.165H426.969V564.366H443.136V567.609H426.58C426.58 567.609 426.969 568.641 426.969 569.525V583.085H422.294V550.069H447.032L445.863 553.165Z" fill="#501C4B"/>
<path d="M461.057 583.38C456.187 583.38 453.85 581.464 453.85 577.484V547.416H458.524V577.484C458.524 579.548 459.304 580.285 461.251 580.285H463.589V583.527H461.057V583.38Z" fill="#501C4B"/>
<path d="M479.756 589.423C478.003 592.813 475.471 593.992 470.017 593.992H465.731V590.75H470.017C473.718 590.75 474.497 590.16 475.665 587.802L477.808 583.527L465.342 558.323H470.211L479.172 576.453C479.561 577.19 479.951 578.516 480.145 579.548C480.535 578.369 480.925 577.19 481.314 576.453L490.274 558.323H495.144L479.756 589.423Z" fill="#501C4B"/>
<path d="M527.089 583.675C522.219 583.675 518.518 582.348 518.518 576.895V563.335C518.518 562.45 518.908 562.008 519.103 561.566H513.064V558.471H518.713V550.069L523.388 549.038V558.471H535.075L533.712 561.566H523.388V577.042C523.388 579.99 525.141 580.874 528.647 580.874C530.206 580.874 531.959 580.432 533.906 579.548L536.828 581.906C534.296 583.233 530.4 583.675 527.089 583.675Z" fill="#501C4B"/>
<path d="M564.098 583.085V567.314C564.098 562.008 561.176 560.682 557.281 560.682C554.554 560.682 552.606 561.271 549.684 562.892L546.567 564.514V583.085H541.893V547.416H546.567V560.092L546.178 561.713L549.1 560.092C552.216 558.471 554.748 557.586 557.475 557.586C564.098 557.586 568.968 560.239 568.968 567.019V582.938H564.098V583.085Z" fill="#501C4B"/>
<path d="M580.46 571.736C580.655 577.779 582.992 580.727 590.589 580.727C595.264 580.727 598.185 579.548 599.744 577.19L603.834 578.369C601.692 581.759 597.991 583.675 590.589 583.675C580.265 583.675 575.59 579.695 575.59 570.704C575.59 562.45 579.291 557.734 590.784 557.734C602.86 557.734 604.419 563.777 604.419 570.704V571.736H580.46V571.736ZM590.784 560.682C584.356 560.682 581.044 562.598 580.655 568.788H599.549C599.549 563.777 597.991 560.682 590.784 560.682Z" fill="#501C4B"/>
<path d="M648.83 583.085V567.314C648.83 562.008 645.908 560.682 642.012 560.682C639.285 560.682 637.532 561.271 634.415 562.892L631.299 564.514V583.085H626.624V558.471H630.325L631.299 561.419L633.636 560.239C636.753 558.618 639.285 557.734 642.012 557.734C648.635 557.734 653.504 560.387 653.504 567.167V583.085H648.83V583.085Z" fill="#501C4B"/>
<path d="M665.387 571.736C665.581 577.779 667.919 580.727 675.515 580.727C680.19 580.727 683.112 579.548 684.67 577.19L688.761 578.369C686.618 581.759 682.723 583.675 675.515 583.675C665.192 583.675 660.517 579.695 660.517 570.704C660.517 562.45 664.218 557.734 675.71 557.734C687.787 557.734 689.54 563.777 689.54 570.704V571.736H665.387V571.736ZM675.515 560.682C669.282 560.682 665.776 562.598 665.387 568.788H684.281C684.281 563.777 682.723 560.682 675.515 560.682Z" fill="#501C4B"/>
<path d="M727.328 583.085H722.653L716.03 566.725C715.446 565.103 714.862 562.155 714.862 562.155C714.862 562.155 714.472 565.251 713.888 566.725L707.07 583.085H702.395L692.267 558.471H696.941L703.564 575.273C704.149 576.6 704.733 579.843 704.733 579.843C704.733 579.843 705.317 576.747 705.902 575.273L712.719 558.471H717.199L724.017 575.273C724.601 576.747 724.991 579.843 724.991 579.843C724.991 579.843 725.77 576.6 726.159 575.273L732.977 558.471H737.652L727.328 583.085Z" fill="#501C4B"/>
<path d="M778.557 551.101C777.388 550.954 776.414 550.806 775.635 550.659C774.661 550.512 773.687 550.364 772.129 550.364C768.623 550.364 765.506 551.691 765.506 555.67V558.323H776.609L775.635 561.419H765.506V582.938H760.832V563.482C760.832 562.745 761.026 562.156 761.416 561.419H755.767V558.323H760.832V555.67C760.832 550.069 765.506 547.269 772.129 547.269C775.246 547.269 776.609 547.564 779.531 547.858L778.557 551.101Z" fill="#501C4B"/>
<path d="M784.4 571.736C784.595 577.779 786.933 580.727 794.529 580.727C799.204 580.727 802.126 579.548 803.684 577.19L807.775 578.369C805.632 581.759 801.736 583.675 794.529 583.675C784.206 583.675 779.336 579.695 779.336 570.704C779.336 562.45 783.037 557.734 794.529 557.734C806.606 557.734 808.359 563.777 808.359 570.704V571.736H784.4V571.736ZM794.724 560.682C788.296 560.682 784.985 562.598 784.595 568.788H803.489C803.489 563.777 801.931 560.682 794.724 560.682Z" fill="#501C4B"/>
<path d="M819.267 571.736C819.462 577.779 821.799 580.727 829.396 580.727C834.071 580.727 836.993 579.548 838.551 577.19L842.641 578.369C840.499 581.759 836.798 583.675 829.396 583.675C818.877 583.675 814.203 579.695 814.203 570.704C814.203 562.45 817.904 557.734 829.396 557.734C841.473 557.734 843.226 563.777 843.226 570.704V571.736H819.267V571.736ZM829.396 560.682C822.968 560.682 819.657 562.598 819.267 568.788H838.356C838.161 563.777 836.603 560.682 829.396 560.682Z" fill="#501C4B"/>
<path d="M857.445 583.38C852.77 583.38 850.238 581.464 850.238 577.484V547.416H854.913V577.484C854.913 579.548 855.692 580.285 857.64 580.285H859.977V583.527H857.445V583.38Z" fill="#501C4B"/>
<path d="M870.106 551.691H865.236L864.847 551.248V547.711L865.236 547.269H870.106L870.495 547.711V551.248L870.106 551.691ZM865.236 558.471H869.911V583.085H865.236V558.471Z" fill="#501C4B"/>
<path d="M900.687 583.085V567.314C900.687 562.008 897.765 560.682 893.869 560.682C891.142 560.682 889.195 561.271 886.273 562.892L883.156 564.514V583.085H878.481V558.471H882.182L883.156 561.419L885.494 560.239C888.61 558.618 891.142 557.734 893.869 557.734C900.492 557.734 905.362 560.387 905.362 567.167V583.085H900.687V583.085Z" fill="#501C4B"/>
<path d="M942.761 561.124H940.423C939.839 561.124 938.67 561.124 937.502 560.829C939.449 562.45 940.229 564.661 940.229 566.283C940.229 572.031 935.943 574.684 926.983 574.684C925.425 574.684 924.646 574.537 923.282 574.389L920.945 574.094C918.997 574.094 918.218 574.979 918.218 576.01C918.218 576.895 918.997 577.484 920.555 577.632L933.996 579.4C941.008 580.285 942.566 583.085 942.566 586.181C942.566 592.076 935.749 593.845 926.983 593.845C919.776 593.845 911.4 592.813 911.4 585.591C911.4 582.643 913.348 580.58 916.075 579.106C914.907 578.369 914.127 577.484 914.127 575.863C914.127 574.242 915.296 573.21 917.439 572.326C914.907 570.557 913.933 568.641 913.933 566.135C913.933 559.945 920.166 557.586 927.178 557.586C930.489 557.586 933.216 557.881 935.749 559.06L940.813 557.586H944.124L942.761 561.124ZM933.022 582.496L919.192 580.58C917.049 581.611 916.075 583.527 916.075 585.738C916.075 589.865 919.776 591.192 926.788 591.192C934.775 591.192 937.502 589.276 937.502 586.328C937.307 584.117 936.138 582.938 933.022 582.496ZM926.594 560.534C921.334 560.534 918.023 562.156 918.023 566.283C918.023 570.704 921.724 571.736 926.594 571.736C931.853 571.736 935.164 570.557 935.164 566.283C935.164 562.598 932.242 560.534 926.594 560.534Z" fill="#501C4B"/>
<path d="M399.504 443.652H418.593C420.931 443.652 421.71 444.831 421.905 445.126C432.034 459.423 466.511 505.852 466.511 505.852C466.511 505.852 501.572 459.275 511.896 444.978C512.285 444.536 512.869 443.504 515.012 443.504H524.751C526.31 443.504 527.089 444.831 526.31 445.715C514.428 461.486 481.509 504.82 474.497 514.253C473.718 515.432 472.744 516.022 470.991 516.022H452.876C451.123 516.022 449.954 515.137 449.175 514.105C442.162 504.82 409.439 461.634 397.557 446.01C397.557 445.421 396.777 443.652 399.504 443.652Z" fill="#501C4B"/>
<path d="M687.592 456.18C682.527 454.117 667.334 448.074 644.155 448.074C619.027 448.074 614.158 456.18 614.158 461.928C614.158 469.151 624.092 471.214 635.584 471.804C642.596 472.246 660.322 472.836 669.866 474.162C692.656 477.257 698.695 486.985 698.695 494.797C698.695 511.158 673.567 518.085 643.181 518.085C617.469 518.085 598.965 511.895 591.563 508.799C590.199 508.21 590.199 506.883 590.784 505.999C592.731 503.346 592.147 504.23 593.705 502.019C594.484 500.84 595.848 500.693 597.211 501.282C603.25 504.23 622.534 511.305 643.376 511.305C664.802 511.305 676.294 504.23 676.294 497.155C676.294 491.26 673.372 487.575 657.205 485.806C648.635 484.922 629.546 484.922 619.807 483.153C610.067 481.532 593.121 477.994 593.121 463.697C593.121 455.738 601.497 441.146 645.323 441.146C669.282 441.146 685.254 446.01 693.241 449.105C694.604 449.695 694.994 450.579 694.214 451.611C692.851 453.232 692.461 453.969 691.098 455.591C690.124 456.475 688.761 456.622 687.592 456.18Z" fill="#501C4B"/>
<path d="M564.293 443.652H548.71C547.152 443.652 545.789 444.684 545.789 445.863V513.663C545.789 514.99 547.152 516.169 548.71 516.169H564.293C565.851 516.169 567.215 514.99 567.215 513.663V445.863C567.215 444.684 565.851 443.652 564.293 443.652Z" fill="#501C4B"/>
<path d="M791.023 512.337C789.659 509.389 790.244 510.568 789.075 507.915C788.491 506.441 786.738 506.736 785.958 506.883C779.725 508.799 771.155 510.421 765.116 510.421C749.728 510.421 740.768 505.409 740.768 494.944V452.79H784.011C785.764 452.79 787.322 451.758 787.322 450.579V447.189C787.322 445.863 785.764 444.978 784.011 444.978H740.768V427.439C740.768 425.817 738.82 425.228 737.457 425.67C733.756 426.554 726.744 428.323 722.848 429.207C721.485 429.502 720.121 430.386 720.121 432.008V491.112C720.121 505.852 731.419 517.79 762 517.79C772.713 517.79 782.842 516.022 789.27 514.548C790.244 514.4 791.802 513.811 791.023 512.337Z" fill="#501C4B"/>
<path d="M1049.31 512.779C1038.4 506.441 1013.86 492.439 1010.94 490.67C1028.27 490.67 1048.72 483.153 1048.72 466.645C1048.72 448.516 1025.35 443.504 1014.44 443.504H943.735C942.176 443.504 940.813 444.536 940.813 446.01V513.516C940.813 514.842 942.176 516.022 943.735 516.022H958.733C960.292 516.022 961.655 514.842 961.655 513.516V491.26H984.834C984.834 491.26 1011.33 507.473 1020.48 513.221C1021.26 513.811 1024.57 515.874 1028.08 515.874H1048.72C1050.28 516.169 1051.84 514.253 1049.31 512.779ZM961.85 484.48V450.874H1006.07C1020.09 450.874 1026.32 459.423 1026.32 466.94C1026.32 475.341 1020.87 484.48 1002.95 484.48H961.85V484.48Z" fill="#501C4B"/>
<path d="M915.88 473.425V472.836C915.88 468.266 914.322 457.802 902.635 450.579C898.544 448.074 886.078 442.178 861.925 442.178C841.862 442.178 826.669 446.01 811.865 451.906C810.501 452.348 810.112 453.38 810.696 454.264C812.449 457.212 812.06 456.917 813.229 458.686C813.813 459.718 814.982 460.012 816.54 459.275C823.942 456.033 840.693 449.4 859.587 449.4C882.572 449.4 895.038 457.359 895.038 468.266V476.668C886.857 475.046 871.664 472.541 856.276 472.541C817.124 472.541 803.489 483.3 803.489 495.681C803.489 513.663 827.058 518.085 847.9 518.085C865.82 518.085 881.988 514.99 894.649 507.768H895.038C895.038 511.158 895.038 513.811 895.038 513.811C895.038 515.137 896.402 516.316 897.96 516.316H912.764C914.517 516.316 915.686 515.137 915.686 513.811V473.425H915.88ZM851.991 510.715C830.954 510.715 825.5 502.609 825.5 494.797C825.5 481.679 846.342 479.173 859.393 479.173C874.196 479.173 887.052 481.237 895.038 482.711V500.693C886.663 504.967 873.612 510.715 851.991 510.715Z" fill="#501C4B"/>
<path d="M1178.26 473.425V472.836C1178.26 468.266 1176.89 457.802 1165.01 450.579C1160.92 448.074 1148.65 442.178 1124.5 442.178C1104.43 442.178 1089.24 446.01 1074.44 451.906C1073.07 452.348 1072.88 453.38 1073.27 454.264C1075.02 457.212 1074.63 456.917 1075.8 458.686C1076.38 459.718 1077.55 460.012 1079.11 459.275C1086.51 456.033 1103.26 449.4 1121.96 449.4C1144.95 449.4 1157.41 457.359 1157.41 468.266V476.668C1149.23 475.046 1134.04 472.541 1118.85 472.541C1079.5 472.541 1065.87 483.3 1065.87 495.681C1065.87 513.663 1089.43 518.085 1110.47 518.085C1128.39 518.085 1144.36 514.99 1157.22 507.768H1157.61C1157.61 511.158 1157.61 513.811 1157.61 513.811C1157.61 515.137 1158.97 516.316 1160.73 516.316H1175.53C1177.09 516.316 1178.45 515.137 1178.45 513.811V473.425H1178.26ZM1114.37 510.715C1093.33 510.715 1087.88 502.609 1087.88 494.797C1087.88 481.679 1108.72 479.173 1121.77 479.173C1136.57 479.173 1149.23 481.237 1157.41 482.711V500.693C1148.84 504.967 1135.79 510.715 1114.37 510.715Z" fill="#501C4B"/>
<path d="M959.318 422.427L956.98 417.416H947.825L945.488 422.427H940.423L949.968 402.529H955.032L964.577 422.427H959.318ZM952.89 408.425L952.5 406.804L951.916 408.425L949.189 414.321H955.617L952.89 408.425Z" fill="#501C4B"/>
<path d="M983.86 405.625V422.427H978.991V405.625H971.394V402.529H991.262V405.625H983.86Z" fill="#501C4B"/>
<path d="M1009.38 422.427L1007.04 417.416H997.885L995.547 422.427H990.483L1000.03 402.529H1005.09L1014.64 422.427H1009.38ZM1003.14 408.425L1002.56 406.804L1001.98 408.425L999.248 414.321H1005.68L1003.14 408.425Z" fill="#501C4B"/>
<path d="M1026.32 405.625V422.427H1021.45V405.625H1013.86V402.529H1033.92V405.625H1026.32Z" fill="#501C4B"/>
<path d="M1052.04 422.427L1049.7 417.416H1040.54L1038.21 422.427H1033.14L1042.69 402.529H1047.75L1057.29 422.427H1052.04ZM1045.8 408.425L1045.22 406.804L1044.63 408.425L1041.91 414.321H1048.33L1045.8 408.425Z" fill="#501C4B"/>
<path d="M1077.36 422.869C1071.9 422.869 1069.37 420.953 1067.62 418.89L1071.71 417.269C1072.88 418.595 1074.63 419.627 1077.36 419.627C1081.45 419.627 1082.62 418.3 1082.62 416.532C1082.62 415.205 1081.84 414.321 1079.5 414.026L1074.05 413.289C1070.35 412.847 1067.81 411.373 1067.81 407.688C1067.81 404.888 1070.35 401.94 1077.36 401.94C1082.81 401.94 1085.15 403.414 1086.9 405.477L1082.81 407.098C1081.64 405.772 1080.08 405.182 1077.36 405.182C1073.85 405.182 1072.68 406.214 1072.68 407.688C1072.68 409.162 1073.27 409.604 1075.21 409.751L1080.47 410.341C1084.37 410.783 1087.68 412.405 1087.68 416.384C1087.49 420.216 1084.56 422.869 1077.36 422.869Z" fill="#501C4B"/>
<path d="M1096.45 402.529H1091.58V422.427H1096.45V402.529Z" fill="#501C4B"/>
<path d="M1120.4 422.427L1118.07 417.416H1108.91L1106.58 422.427H1101.51L1111.06 402.529H1116.12L1125.66 422.427H1120.4ZM1113.98 408.425L1113.39 406.804L1112.81 408.425L1110.08 414.321H1116.51L1113.98 408.425Z" fill="#501C4B"/>
<path d="M1142.03 422.869C1140.08 422.869 1137.74 422.575 1135.79 421.248L1137.94 418.89C1139.3 419.922 1140.66 419.922 1141.83 419.922C1143.97 419.922 1144.75 419.037 1144.75 416.679V402.677H1149.62V416.679C1149.62 421.101 1146.7 422.869 1142.03 422.869Z" fill="#501C4B"/>
<path d="M1169.1 422.427H1164.23L1154.69 402.529H1159.95L1166.18 416.532L1166.76 418.153L1167.15 416.532L1173.58 402.529H1178.65L1169.1 422.427Z" fill="#501C4B"/>
<path d="M1208.45 442.473C1210.59 442.473 1212.54 442.915 1214.68 443.652C1216.63 444.389 1218.19 445.568 1219.36 447.189C1220.52 448.663 1221.11 450.285 1221.11 451.906C1221.11 453.527 1220.52 455.148 1219.55 456.622C1218.38 458.096 1216.82 459.275 1214.88 460.16C1212.93 461.044 1210.79 461.486 1208.64 461.486C1206.5 461.486 1204.36 461.044 1202.41 460.16C1200.46 459.275 1198.9 458.096 1197.73 456.622C1196.57 455.148 1195.98 453.527 1195.98 451.906C1195.98 450.285 1196.57 448.663 1197.73 447.189C1198.9 445.715 1200.46 444.536 1202.41 443.652C1204.36 442.915 1206.31 442.473 1208.45 442.473ZM1208.45 444.094C1206.69 444.094 1204.94 444.389 1203.38 445.126C1201.63 445.863 1200.46 446.747 1199.49 448.074C1198.51 449.4 1198.12 450.727 1198.12 452.053C1198.12 453.38 1198.51 454.706 1199.49 456.033C1200.46 457.359 1201.63 458.244 1203.38 458.981C1204.94 459.718 1206.69 460.012 1208.64 460.012C1210.4 460.012 1212.15 459.718 1213.9 458.981C1215.46 458.244 1216.82 457.359 1217.8 456.033C1218.77 454.854 1219.16 453.527 1219.16 452.053C1219.16 450.727 1218.77 449.4 1217.8 448.074C1216.82 446.747 1215.46 445.863 1213.9 445.126C1211.95 444.389 1210.2 444.094 1208.45 444.094ZM1202.99 457.212V447.042H1207.67C1209.23 447.042 1210.4 447.189 1211.17 447.337L1212.93 448.368L1213.51 449.842C1213.51 450.579 1213.12 451.169 1212.54 451.758C1211.76 452.348 1210.98 452.643 1209.81 452.643L1210.98 453.232C1211.56 453.675 1212.15 454.264 1212.93 455.296L1214.49 457.359H1211.56L1210.4 455.738C1209.42 454.412 1208.64 453.675 1208.06 453.38L1206.31 453.085H1204.94V457.507H1202.99V457.212ZM1205.14 451.464H1207.86C1209.03 451.464 1210.01 451.316 1210.4 451.021L1210.98 449.842L1210.59 448.958L1209.62 448.368C1209.23 448.221 1208.45 448.221 1207.47 448.221H1204.94V451.464H1205.14Z" fill="#501C4B"/>
</svg>
